<svg width="330" height="300" viewBox="0 0 330 300" fill="none" xmlns="http://www.w3.org/2000/svg">
<g clip-path="url(#clip0_2061_27065)">
<path d="M0 0H330V300H0V0Z" fill="white"/>
<g clip-path="url(#clip1_2061_27065)">
<path d="M169.496 76.6504H298.354C302.657 76.6504 306.15 80.1436 306.15 84.4462V190.501H161.7V84.4462C161.7 80.1436 165.193 76.6504 169.496 76.6504Z" fill="white"/>
<path d="M306.15 190.8H161.7C161.62 190.8 161.544 190.768 161.488 190.712C161.431 190.656 161.4 190.579 161.4 190.5V84.4451C161.4 79.9813 165.032 76.3496 169.496 76.3496H298.354C302.818 76.3496 306.45 79.9813 306.45 84.4451V190.5C306.45 190.579 306.418 190.656 306.362 190.712C306.306 190.768 306.23 190.8 306.15 190.8ZM162 190.2H305.85V84.4451C305.85 80.3118 302.487 76.9492 298.354 76.9492H169.496C165.362 76.9492 162 80.312 162 84.4451V190.2Z" fill="#4E2A09"/>
<path d="M306.15 85.2305H161.7C161.62 85.2305 161.544 85.1989 161.488 85.1427C161.431 85.0865 161.4 85.0102 161.4 84.9307C161.4 84.8512 161.431 84.7749 161.488 84.7187C161.544 84.6624 161.62 84.6309 161.7 84.6309H306.15C306.23 84.6309 306.306 84.6624 306.362 84.7187C306.418 84.7749 306.45 84.8512 306.45 84.9307C306.45 85.0102 306.418 85.0865 306.362 85.1427C306.306 85.1989 306.23 85.2305 306.15 85.2305Z" fill="#4E2A09"/>
<path d="M172.639 82.488C173.594 82.488 174.368 81.7137 174.368 80.7586C174.368 79.8036 173.594 79.0293 172.639 79.0293C171.684 79.0293 170.91 79.8036 170.91 80.7586C170.91 81.7137 171.684 82.488 172.639 82.488Z" fill="#4E2A09"/>
<path d="M172.639 82.7868C171.52 82.7868 170.61 81.8766 170.61 80.7577C170.61 79.6388 171.52 78.7285 172.639 78.7285C173.758 78.7285 174.668 79.6388 174.668 80.7577C174.668 81.8766 173.758 82.7868 172.639 82.7868ZM172.639 79.3283C171.851 79.3283 171.21 79.9696 171.21 80.7578C171.21 81.546 171.851 82.1874 172.639 82.1874C173.427 82.1874 174.069 81.546 174.069 80.7578C174.069 79.9696 173.427 79.3283 172.639 79.3283Z" fill="#4E2A09"/>
<path d="M179.169 82.488C180.124 82.488 180.899 81.7137 180.899 80.7586C180.899 79.8036 180.124 79.0293 179.169 79.0293C178.214 79.0293 177.44 79.8036 177.44 80.7586C177.44 81.7137 178.214 82.488 179.169 82.488Z" fill="#4E2A09"/>
<path d="M179.169 82.7868C178.05 82.7868 177.14 81.8766 177.14 80.7577C177.14 79.6388 178.05 78.7285 179.169 78.7285C180.288 78.7285 181.199 79.6388 181.199 80.7577C181.199 81.8766 180.288 82.7868 179.169 82.7868ZM179.169 79.3283C178.381 79.3283 177.74 79.9696 177.74 80.7578C177.74 81.546 178.381 82.1874 179.169 82.1874C179.958 82.1874 180.599 81.546 180.599 80.7578C180.599 79.9696 179.958 79.3283 179.169 79.3283Z" fill="#4E2A09"/>
<path d="M185.7 82.488C186.655 82.488 187.429 81.7137 187.429 80.7586C187.429 79.8036 186.655 79.0293 185.7 79.0293C184.744 79.0293 183.97 79.8036 183.97 80.7586C183.97 81.7137 184.744 82.488 185.7 82.488Z" fill="#4E2A09"/>
<path d="M185.7 82.7868C184.581 82.7868 183.671 81.8766 183.671 80.7577C183.671 79.6388 184.581 78.7285 185.7 78.7285C186.819 78.7285 187.729 79.6388 187.729 80.7577C187.729 81.8766 186.819 82.7868 185.7 82.7868ZM185.7 79.3283C184.912 79.3283 184.27 79.9696 184.27 80.7578C184.27 81.546 184.912 82.1874 185.7 82.1874C186.488 82.1874 187.129 81.546 187.129 80.7578C187.129 79.9696 186.488 79.3283 185.7 79.3283ZM175.762 190.799C175.682 190.799 175.606 190.768 175.55 190.711C175.494 190.655 175.462 190.579 175.462 190.499V84.931C175.462 84.8515 175.494 84.7752 175.55 84.719C175.606 84.6627 175.682 84.6312 175.762 84.6312C175.841 84.6312 175.918 84.6627 175.974 84.719C176.03 84.7752 176.062 84.8515 176.062 84.931V190.499C176.062 190.579 176.03 190.655 175.974 190.712C175.918 190.768 175.841 190.799 175.762 190.799Z" fill="#4E2A09"/>
<path d="M195.659 129.225H216.815V134.267H195.659V129.225Z" fill="white"/>
<path d="M216.816 134.566H195.659C195.579 134.566 195.503 134.535 195.447 134.478C195.39 134.422 195.359 134.346 195.359 134.266V129.224C195.359 129.145 195.39 129.069 195.447 129.012C195.503 128.956 195.579 128.925 195.659 128.925H216.816C216.895 128.925 216.971 128.956 217.028 129.012C217.084 129.069 217.115 129.145 217.115 129.224V134.266C217.115 134.346 217.084 134.422 217.028 134.478C216.971 134.535 216.895 134.566 216.816 134.566ZM195.959 133.967H216.516V129.524H195.959V133.967ZM183.97 105.342H205.127V110.384H183.97V105.342Z" fill="#4E2A09"/>
<path d="M205.127 110.683H183.97C183.891 110.683 183.814 110.651 183.758 110.595C183.702 110.539 183.67 110.462 183.67 110.383V105.341C183.67 105.261 183.702 105.185 183.758 105.129C183.814 105.073 183.891 105.041 183.97 105.041H205.127C205.207 105.041 205.283 105.073 205.339 105.129C205.395 105.185 205.427 105.261 205.427 105.341V110.383C205.427 110.462 205.395 110.539 205.339 110.595C205.283 110.651 205.207 110.683 205.127 110.683ZM184.27 110.083H204.827V105.641H184.27V110.083ZM249.772 105.341H263.02V110.383H249.772V105.341Z" fill="#4E2A09"/>
<path d="M263.02 110.683H249.772C249.693 110.683 249.617 110.651 249.56 110.595C249.504 110.539 249.473 110.462 249.473 110.383V105.341C249.473 105.261 249.504 105.185 249.56 105.129C249.617 105.073 249.693 105.041 249.772 105.041H263.02C263.099 105.041 263.175 105.073 263.232 105.129C263.288 105.185 263.319 105.261 263.319 105.341V110.383C263.319 110.462 263.288 110.539 263.232 110.595C263.175 110.651 263.099 110.683 263.02 110.683ZM250.072 110.083H262.72V105.641H250.072V110.083Z" fill="#4E2A09"/>
<path d="M209.967 105.342H245.089V110.384H209.967V105.342Z" fill="white"/>
<path d="M245.089 110.683H209.967C209.887 110.683 209.811 110.651 209.755 110.595C209.699 110.539 209.667 110.462 209.667 110.383V105.341C209.667 105.261 209.699 105.185 209.755 105.129C209.811 105.073 209.887 105.041 209.967 105.041H245.089C245.169 105.041 245.245 105.073 245.301 105.129C245.358 105.185 245.389 105.261 245.389 105.341V110.383C245.389 110.462 245.358 110.539 245.301 110.595C245.245 110.651 245.169 110.683 245.089 110.683ZM210.267 110.083H244.79V105.641H210.267V110.083Z" fill="#4E2A09"/>
<path d="M197.217 146.208H183.97V141.166H197.217V146.208Z" fill="white"/>
<path d="M197.218 146.507H183.97C183.891 146.507 183.815 146.475 183.758 146.419C183.702 146.363 183.671 146.287 183.671 146.207V141.165C183.671 141.086 183.702 141.009 183.758 140.953C183.815 140.897 183.891 140.865 183.97 140.865H197.218C197.297 140.865 197.373 140.897 197.43 140.953C197.486 141.009 197.517 141.086 197.517 141.165V146.207C197.517 146.287 197.486 146.363 197.43 146.419C197.373 146.475 197.297 146.507 197.218 146.507ZM184.27 145.907H196.918V141.465H184.27V145.907ZM237.023 146.207H201.901V141.165H237.023V146.207Z" fill="#4E2A09"/>
<path d="M237.023 146.508H201.9C201.821 146.508 201.745 146.476 201.688 146.42C201.632 146.364 201.601 146.288 201.601 146.208V141.166C201.601 141.086 201.632 141.01 201.688 140.954C201.745 140.898 201.821 140.866 201.9 140.866H237.023C237.103 140.866 237.179 140.898 237.235 140.954C237.291 141.01 237.323 141.086 237.323 141.166V146.208C237.323 146.288 237.291 146.364 237.235 146.42C237.179 146.476 237.103 146.508 237.023 146.508ZM202.2 145.908H236.723V141.466H202.2V145.908ZM234.511 117.283H247.651V122.325H234.511V117.283Z" fill="#4E2A09"/>
<path d="M247.651 122.624H234.511C234.432 122.624 234.355 122.592 234.299 122.536C234.243 122.48 234.211 122.404 234.211 122.324V117.282C234.211 117.203 234.243 117.126 234.299 117.07C234.355 117.014 234.432 116.982 234.511 116.982H247.651C247.731 116.982 247.807 117.014 247.863 117.07C247.919 117.126 247.951 117.203 247.951 117.282V122.324C247.951 122.404 247.919 122.48 247.863 122.536C247.807 122.592 247.731 122.624 247.651 122.624ZM234.811 122.024H247.351V117.582H234.811V122.024ZM195.659 117.282H230.781V122.324H195.659V117.282Z" fill="#4E2A09"/>
<path d="M230.781 122.624H195.659C195.579 122.624 195.503 122.592 195.447 122.536C195.39 122.48 195.359 122.404 195.359 122.324V117.282C195.359 117.203 195.39 117.126 195.447 117.07C195.503 117.014 195.579 116.982 195.659 116.982H230.781C230.861 116.982 230.937 117.014 230.993 117.07C231.05 117.126 231.081 117.203 231.081 117.282V122.324C231.081 122.404 231.05 122.48 230.993 122.536C230.937 122.592 230.861 122.624 230.781 122.624ZM195.959 122.024H230.482V117.582H195.959V122.024Z" fill="#4E2A09"/>
<path d="M195.659 153.107H216.815V158.149H195.659V153.107Z" fill="white"/>
<path d="M216.816 158.448H195.659C195.579 158.448 195.503 158.417 195.447 158.36C195.39 158.304 195.359 158.228 195.359 158.148V153.106C195.359 153.027 195.39 152.951 195.447 152.894C195.503 152.838 195.579 152.807 195.659 152.807H216.816C216.895 152.807 216.971 152.838 217.028 152.894C217.084 152.951 217.115 153.027 217.115 153.106V158.148C217.115 158.228 217.084 158.304 217.028 158.36C216.971 158.417 216.895 158.448 216.816 158.448ZM195.959 157.849H216.516V153.406H195.959V157.849ZM257.255 158.149H222.132V153.107H257.255V158.149Z" fill="#4E2A09"/>
<path d="M257.255 158.448H222.132C222.052 158.448 221.976 158.417 221.92 158.36C221.864 158.304 221.832 158.228 221.832 158.148V153.106C221.832 153.027 221.864 152.951 221.92 152.894C221.976 152.838 222.052 152.807 222.132 152.807H257.255C257.334 152.807 257.41 152.838 257.467 152.894C257.523 152.951 257.554 153.027 257.554 153.106V158.148C257.554 158.228 257.523 158.304 257.467 158.36C257.41 158.417 257.334 158.448 257.255 158.448ZM222.432 157.849H256.955V153.406H222.432V157.849Z" fill="#4E2A09"/>
<path d="M230.781 170.091H195.659V165.049H230.781V170.091Z" fill="white"/>
<path d="M230.781 170.39H195.659C195.579 170.39 195.503 170.358 195.447 170.302C195.39 170.246 195.359 170.169 195.359 170.09V165.048C195.359 164.968 195.39 164.892 195.447 164.836C195.503 164.78 195.579 164.748 195.659 164.748H230.781C230.861 164.748 230.937 164.78 230.993 164.836C231.05 164.892 231.081 164.968 231.081 165.048V170.09C231.081 170.169 231.05 170.246 230.993 170.302C230.937 170.358 230.861 170.39 230.781 170.39ZM195.959 169.79H230.482V165.348H195.959V169.79Z" fill="#4E2A09"/>
<path d="M168.731 122.325C170.123 122.325 171.252 121.197 171.252 119.804C171.252 118.412 170.123 117.283 168.731 117.283C167.338 117.283 166.21 118.412 166.21 119.804C166.21 121.197 167.338 122.325 168.731 122.325Z" fill="#796959"/>
<path d="M168.731 122.624C167.175 122.624 165.91 121.359 165.91 119.803C165.91 118.248 167.175 116.982 168.731 116.982C170.286 116.982 171.552 118.248 171.552 119.803C171.552 121.359 170.286 122.624 168.731 122.624ZM168.731 117.582C167.506 117.582 166.51 118.578 166.51 119.803C166.51 121.028 167.506 122.024 168.731 122.024C169.955 122.024 170.952 121.028 170.952 119.803C170.952 118.578 169.955 117.582 168.731 117.582Z" fill="#796959"/>
<path d="M168.731 146.208C170.123 146.208 171.252 145.079 171.252 143.687C171.252 142.295 170.123 141.166 168.731 141.166C167.338 141.166 166.21 142.295 166.21 143.687C166.21 145.079 167.338 146.208 168.731 146.208Z" fill="#796959"/>
<path d="M168.731 146.507C167.175 146.507 165.91 145.242 165.91 143.686C165.91 142.131 167.175 140.865 168.731 140.865C170.286 140.865 171.552 142.131 171.552 143.686C171.552 145.242 170.286 146.507 168.731 146.507ZM168.731 141.465C167.506 141.465 166.51 142.461 166.51 143.686C166.51 144.911 167.506 145.907 168.731 145.907C169.955 145.907 170.952 144.911 170.952 143.686C170.952 142.461 169.955 141.465 168.731 141.465Z" fill="#796959"/>
<path d="M168.731 110.384C170.123 110.384 171.252 109.255 171.252 107.863C171.252 106.47 170.123 105.342 168.731 105.342C167.338 105.342 166.21 106.47 166.21 107.863C166.21 109.255 167.338 110.384 168.731 110.384Z" fill="#796959"/>
<path d="M168.731 110.683C167.175 110.683 165.91 109.417 165.91 107.862C165.91 106.306 167.175 105.041 168.731 105.041C170.286 105.041 171.552 106.306 171.552 107.862C171.552 109.417 170.286 110.683 168.731 110.683ZM168.731 105.641C167.506 105.641 166.51 106.637 166.51 107.862C166.51 109.087 167.506 110.083 168.731 110.083C169.955 110.083 170.952 109.087 170.952 107.862C170.952 106.637 169.955 105.641 168.731 105.641Z" fill="#796959"/>
</g>
<g clip-path="url(#clip2_2061_27065)">
<path d="M138.96 232.119C138.804 215.662 136.265 195.836 131.608 187.81C125.79 177.782 129.204 164.938 139.234 159.12C149.264 153.304 162.113 156.717 167.931 166.745C175.044 179.002 178.407 198.094 179.977 209.436C181.024 217.007 181.585 224.739 181.65 232.119H138.96Z" fill="white"/>
<path d="M181.65 232.42H138.96C138.881 232.42 138.805 232.389 138.749 232.334C138.692 232.278 138.66 232.202 138.66 232.123C138.514 216.671 136.164 196.26 131.349 187.962C125.457 177.807 128.927 164.753 139.084 158.862C149.242 152.971 162.299 156.441 168.191 166.595C173.559 175.847 177.624 190.247 180.274 209.396C181.32 216.956 181.884 224.601 181.95 232.118C181.951 232.157 181.943 232.197 181.928 232.233C181.913 232.27 181.891 232.303 181.863 232.331C181.835 232.36 181.802 232.382 181.766 232.397C181.729 232.412 181.69 232.42 181.65 232.42ZM139.256 231.821H181.347C181.269 224.427 180.708 216.912 179.679 209.478C177.04 190.406 173 176.08 167.672 166.896C161.945 157.028 149.256 153.656 139.385 159.381C129.514 165.106 126.142 177.792 131.868 187.661C136.707 196 139.083 216.328 139.256 231.821Z" fill="#4E2A09"/>
<path d="M167.931 166.746C171.413 172.077 177.524 184.963 179.367 190.788C175.524 199.351 153.138 206.565 135.048 203.798C135.048 203.798 134.333 195.011 132.173 192.105" fill="#796959"/>
<path d="M143.317 204.698C140.446 204.698 137.65 204.498 135.003 204.093C134.936 204.083 134.875 204.051 134.829 204.001C134.783 203.952 134.755 203.889 134.749 203.821C134.742 203.734 134.016 195.087 131.932 192.283C131.885 192.219 131.866 192.139 131.878 192.061C131.89 191.983 131.932 191.913 131.995 191.865C132.059 191.818 132.138 191.798 132.217 191.809C132.295 191.82 132.366 191.862 132.413 191.925C134.425 194.632 135.193 202.079 135.327 203.536C143.708 204.775 153.583 203.946 162.463 201.254C170.998 198.666 177.182 194.753 179.046 190.767C177.138 184.817 171.118 172.173 167.68 166.909C167.658 166.876 167.644 166.839 167.636 166.8C167.629 166.762 167.63 166.722 167.638 166.683C167.646 166.645 167.661 166.608 167.684 166.576C167.706 166.543 167.734 166.516 167.767 166.494C167.8 166.473 167.837 166.458 167.876 166.45C167.915 166.443 167.954 166.444 167.993 166.452C168.031 166.46 168.068 166.475 168.101 166.498C168.133 166.52 168.161 166.548 168.182 166.581C171.663 171.91 177.773 184.757 179.653 190.696C179.675 190.767 179.67 190.842 179.64 190.91C177.766 195.086 171.409 199.168 162.637 201.828C156.403 203.718 149.68 204.698 143.317 204.698V204.698Z" fill="#796959"/>
<path d="M154.045 188.226C157.55 210.843 156.187 232.12 156.187 232.12H70.7289C69.1221 218.779 69.0723 207.781 74.3636 185.3C71.1761 180.413 62.9508 156.493 72.4246 151.849C87.0647 145.049 98.6649 151.11 106.364 155.834L128.758 159.215C137.853 159.294 156.533 148.756 167.931 166.745" fill="#796959"/>
<path d="M156.187 232.419H70.7292C70.6559 232.419 70.5851 232.392 70.5303 232.344C70.4754 232.295 70.4403 232.228 70.4315 232.155C68.7724 218.38 68.8759 207.347 74.043 185.355C72.762 183.329 70.7601 178.508 69.34 173.037C68.1253 168.358 66.9586 161.759 68.2979 156.892C69.0061 154.319 70.3501 152.532 72.293 151.579C78.8892 148.516 85.3543 147.747 92.0623 149.227C97.6894 150.468 102.501 153.114 106.47 155.546L128.782 158.915L128.863 158.916C131 158.916 133.639 158.342 136.688 157.68C146.28 155.598 159.417 152.746 168.185 166.584C168.225 166.651 168.237 166.731 168.219 166.807C168.2 166.883 168.153 166.949 168.087 166.99C168.021 167.032 167.942 167.047 167.865 167.031C167.789 167.015 167.722 166.97 167.678 166.905C159.134 153.421 146.234 156.221 136.815 158.267C133.733 158.936 131.064 159.515 128.863 159.515C128.827 159.515 128.792 159.515 128.756 159.515C128.742 159.515 128.728 159.514 128.714 159.512L106.32 156.13C106.28 156.124 106.242 156.111 106.208 156.09C97.2166 150.573 86.1864 145.788 72.5515 152.12C70.7753 152.991 69.5368 154.651 68.8763 157.051C66.4673 165.805 72.2577 181.521 74.6155 185.136C74.6603 185.204 74.675 185.289 74.6562 185.368C69.5137 207.216 69.375 218.21 70.9956 231.82H155.904C156.046 229.23 156.993 209.204 153.749 188.272C153.737 188.193 153.756 188.113 153.803 188.049C153.85 187.984 153.921 187.942 153.999 187.929C154.038 187.923 154.078 187.925 154.116 187.934C154.155 187.944 154.191 187.96 154.223 187.984C154.254 188.007 154.281 188.036 154.302 188.07C154.322 188.103 154.336 188.141 154.342 188.18C157.812 210.57 156.5 231.926 156.487 232.139C156.482 232.215 156.448 232.286 156.393 232.338C156.337 232.39 156.264 232.419 156.187 232.419H156.187Z" fill="#796959"/>
<path d="M143.08 120.637C140.852 118.474 137.143 115.855 132.983 115.126C125.473 113.81 116.313 115.917 114.568 121.913C111.676 120.755 107.281 124.226 105.839 127.538C102.778 134.568 104.422 142.083 109.888 146.03C112.462 147.889 119.262 133.86 120.778 130.352C121.047 129.73 121.239 129.078 121.348 128.409C123.551 130.222 126.699 131.65 130.33 132.286C133.734 132.883 136.977 132.682 139.583 131.868C142.353 132.314 145.101 132.357 147.173 131.803C151.859 130.549 153.138 124.383 153.138 124.383C150.148 126.777 143.647 124.644 143.647 124.644C146.07 124.817 147.875 122.777 147.875 122.777C146.182 122.907 144.869 122.373 143.08 120.636L143.08 120.637Z" fill="#4E2A09"/>
<path d="M110.408 146.498C110.154 146.498 109.921 146.423 109.713 146.272C106.97 144.291 105.123 141.432 104.373 138.003C103.624 134.585 104.036 130.925 105.564 127.417C106.304 125.717 107.771 123.991 109.489 122.801C111.27 121.567 112.99 121.121 114.374 121.527C116.364 115.629 125.344 113.482 133.034 114.829C137.987 115.697 141.855 119.028 143.289 120.42C144.964 122.046 146.201 122.603 147.852 122.476C147.912 122.472 147.971 122.485 148.023 122.515C148.075 122.544 148.117 122.588 148.144 122.641C148.17 122.695 148.18 122.755 148.173 122.814C148.165 122.873 148.14 122.929 148.1 122.974C148.04 123.041 146.931 124.274 145.267 124.759C147.333 125.219 150.985 125.721 152.95 124.147C152.999 124.109 153.057 124.086 153.119 124.082C153.181 124.078 153.242 124.093 153.295 124.126C153.347 124.158 153.389 124.206 153.413 124.262C153.438 124.319 153.444 124.382 153.431 124.442C153.378 124.701 152.06 130.804 147.25 132.091C145.29 132.616 142.577 132.645 139.605 132.173C136.875 133.012 133.566 133.156 130.278 132.58C126.923 131.992 123.845 130.709 121.549 128.949C121.431 129.47 121.265 129.979 121.053 130.469C120.989 130.618 114.379 145.457 110.801 146.442C110.673 146.478 110.541 146.497 110.407 146.498L110.408 146.498ZM113.356 121.989C110.767 121.989 107.354 124.809 106.114 127.656C103.087 134.608 104.674 141.894 110.064 145.786C110.227 145.903 110.411 145.928 110.642 145.864C113.331 145.123 118.811 134.146 120.503 130.231C120.762 129.632 120.947 129.004 121.052 128.36C121.061 128.308 121.083 128.259 121.116 128.218C121.15 128.177 121.193 128.146 121.243 128.127C121.292 128.108 121.345 128.103 121.397 128.112C121.449 128.12 121.498 128.143 121.539 128.176C123.793 130.031 126.933 131.385 130.382 131.99C133.605 132.554 136.841 132.409 139.494 131.58C139.538 131.566 139.585 131.563 139.631 131.57C142.549 132.04 145.199 132.019 147.095 131.512C150.592 130.576 152.135 126.708 152.642 125.064C149.387 126.807 143.806 125.011 143.553 124.928C143.484 124.905 143.425 124.857 143.388 124.794C143.351 124.731 143.338 124.657 143.353 124.585C143.367 124.513 143.406 124.449 143.464 124.404C143.523 124.36 143.595 124.338 143.668 124.344C145.164 124.451 146.421 123.644 147.103 123.085C145.643 123.003 144.395 122.33 142.871 120.85C141.784 119.795 137.853 116.283 132.931 115.42C129.128 114.754 125.036 114.988 121.706 116.062C119.127 116.893 115.845 118.598 114.856 121.995C114.844 122.036 114.824 122.073 114.797 122.105C114.77 122.137 114.737 122.163 114.699 122.181C114.662 122.199 114.621 122.21 114.579 122.211C114.537 122.213 114.495 122.206 114.457 122.19C114.115 122.053 113.745 121.99 113.356 121.99V121.989Z" fill="#4E2A09"/>
<path d="M110.221 140.938L106.364 155.835C107.361 160.86 113.227 166.746 120.771 166.891C128.248 167.036 130.276 163.271 128.758 159.216L129.53 156.417" fill="white"/>
<path d="M121.184 167.195C121.046 167.195 120.908 167.193 120.766 167.191C113.287 167.046 107.129 161.232 106.07 155.893C106.061 155.849 106.063 155.803 106.074 155.759L109.93 140.862C109.95 140.785 110 140.719 110.068 140.678C110.137 140.638 110.219 140.626 110.296 140.646C110.373 140.666 110.439 140.716 110.479 140.784C110.52 140.853 110.531 140.935 110.511 141.012L106.672 155.843C107.723 160.935 113.618 166.453 120.777 166.591C124.417 166.661 126.971 165.798 128.176 164.096C129.057 162.851 129.164 161.155 128.478 159.321C128.456 159.261 128.453 159.197 128.469 159.136L129.241 156.337C129.264 156.262 129.315 156.199 129.383 156.161C129.452 156.124 129.532 156.114 129.608 156.135C129.683 156.156 129.747 156.205 129.787 156.273C129.826 156.34 129.838 156.42 129.819 156.496L129.073 159.202C129.794 161.194 129.65 163.052 128.666 164.442C127.769 165.709 125.743 167.194 121.184 167.195Z" fill="#4E2A09"/>
<path d="M114.061 148.705C116.644 154.52 123.943 156.224 129.252 156.523C140.639 157.165 147.659 149.048 147.652 137.703C147.646 127.579 138.721 119.598 128.294 119.87C117.868 120.142 109.63 128.568 109.895 138.689C109.921 139.683 110.029 140.656 110.21 141.603" fill="white"/>
<path d="M130.499 156.857C130.083 156.857 129.661 156.845 129.235 156.821C124.678 156.565 116.611 155.184 113.787 148.826C113.755 148.753 113.753 148.671 113.781 148.596C113.81 148.522 113.867 148.462 113.939 148.43C114.012 148.398 114.095 148.396 114.169 148.424C114.243 148.453 114.303 148.51 114.335 148.583C117.03 154.65 124.849 155.973 129.269 156.223C134.318 156.508 138.683 155.051 141.897 152.012C145.418 148.682 147.356 143.6 147.352 137.703C147.349 133.131 145.487 128.802 142.107 125.512C138.48 121.982 133.454 120.035 128.302 120.169C123.338 120.298 118.72 122.297 115.3 125.795C111.882 129.291 110.069 133.867 110.194 138.681C110.22 139.638 110.324 140.602 110.505 141.546C110.513 141.584 110.513 141.625 110.505 141.663C110.498 141.702 110.483 141.739 110.46 141.772C110.438 141.805 110.41 141.834 110.377 141.856C110.344 141.878 110.307 141.893 110.268 141.9C110.229 141.908 110.189 141.907 110.15 141.899C110.111 141.891 110.074 141.875 110.041 141.853C110.009 141.83 109.981 141.802 109.959 141.768C109.938 141.735 109.923 141.698 109.916 141.659C109.728 140.682 109.621 139.691 109.595 138.696C109.465 133.719 111.338 128.989 114.871 125.376C118.401 121.765 123.166 119.703 128.287 119.569C133.596 119.431 138.784 121.44 142.525 125.082C146.022 128.486 147.949 132.967 147.952 137.702C147.956 143.766 145.951 149.003 142.309 152.447C139.244 155.345 135.182 156.857 130.499 156.857L130.499 156.857Z" fill="#4E2A09"/>
<path d="M143.646 124.644C143.646 124.644 150.148 126.777 153.138 124.382C153.138 124.382 151.859 130.548 147.172 131.802C143.829 132.697 138.723 132.038 134.609 130.636C130.381 129.194 124.272 127.896 119.624 138.228C118.882 139.877 117.801 139.231 117.488 137.854C116.837 134.991 113.514 133.32 110.803 133.383C109.524 131.628 112.276 126.585 115.298 124.162C121.893 118.874 130.011 118.195 136.081 119.807C142.152 121.419 143.646 124.644 143.646 124.644Z" fill="#4E2A09"/>
<path d="M118.591 139.506C118.559 139.506 118.529 139.504 118.501 139.501C117.913 139.442 117.401 138.821 117.195 137.919C116.582 135.224 113.402 133.622 110.81 133.681C110.761 133.682 110.713 133.672 110.67 133.65C110.627 133.629 110.589 133.597 110.56 133.558C109.9 132.652 110.122 130.949 111.17 128.886C112.136 126.984 113.609 125.13 115.11 123.927C118.238 121.419 121.846 119.795 125.834 119.101C129.295 118.498 132.864 118.641 136.158 119.516C141.698 120.987 143.509 123.767 143.855 124.393C144.729 124.658 150.333 126.242 152.95 124.147C152.998 124.109 153.057 124.086 153.119 124.082C153.18 124.078 153.242 124.093 153.294 124.126C153.347 124.158 153.388 124.205 153.413 124.262C153.437 124.319 153.444 124.382 153.431 124.442C153.377 124.701 152.06 130.804 147.25 132.091C144.086 132.938 139.086 132.477 134.512 130.918C129.436 129.188 124.152 128.891 119.897 138.35C119.457 139.329 118.92 139.506 118.591 139.506H118.591ZM110.967 133.08C113.763 133.087 117.114 134.855 117.78 137.786C117.923 138.413 118.244 138.873 118.561 138.905C118.82 138.929 119.11 138.639 119.351 138.104C121.461 133.412 124.025 130.672 127.188 129.728C129.863 128.93 132.49 129.595 134.706 130.35C139.175 131.874 144.039 132.33 147.095 131.511C150.592 130.576 152.135 126.707 152.642 125.064C149.387 126.806 143.806 125.01 143.553 124.927C143.514 124.914 143.478 124.894 143.447 124.867C143.417 124.839 143.392 124.806 143.375 124.769C143.353 124.723 141.829 121.642 136.004 120.096C128.875 118.202 121.204 119.809 115.486 124.394C112.492 126.795 110.092 131.463 110.967 133.08H110.967Z" fill="#4E2A09"/>
<path d="M115.695 138.314C115.805 137.678 115.792 137.011 115.636 136.344C115.013 133.676 112.343 132.018 109.674 132.641C107.005 133.264 105.347 135.933 105.97 138.601C106.593 141.269 109.262 142.927 111.932 142.304" fill="white"/>
<path d="M110.803 142.735C108.413 142.735 106.244 141.094 105.678 138.67C105.358 137.301 105.591 135.89 106.332 134.696C107.074 133.503 108.237 132.669 109.606 132.349C112.432 131.69 115.268 133.451 115.928 136.276C116.089 136.961 116.11 137.672 115.991 138.365C115.977 138.443 115.933 138.513 115.868 138.559C115.803 138.605 115.722 138.623 115.644 138.61C115.566 138.596 115.496 138.552 115.45 138.487C115.404 138.422 115.386 138.341 115.399 138.263C115.505 137.649 115.486 137.019 115.344 136.413C114.759 133.91 112.246 132.349 109.742 132.933C108.529 133.216 107.499 133.955 106.842 135.013C106.184 136.07 105.978 137.321 106.262 138.533C106.846 141.036 109.36 142.597 111.863 142.013C111.901 142.003 111.941 142.002 111.98 142.008C112.02 142.014 112.057 142.028 112.091 142.049C112.124 142.07 112.154 142.097 112.177 142.129C112.2 142.161 112.216 142.197 112.225 142.236C112.234 142.274 112.236 142.314 112.229 142.353C112.223 142.392 112.209 142.43 112.188 142.463C112.167 142.497 112.139 142.526 112.107 142.549C112.075 142.572 112.038 142.588 111.999 142.597C111.607 142.688 111.205 142.735 110.802 142.735L110.803 142.735Z" fill="#4E2A09"/>
<path d="M112.036 140.661C111.993 140.661 111.953 140.659 111.917 140.655C111.455 140.607 111.04 140.28 110.858 139.82C110.68 139.37 110.758 138.89 111.065 138.536C111.211 138.368 111.399 138.21 111.597 138.043C112.329 137.425 113.019 136.842 112.142 135.638C111.552 134.829 110.449 134.844 109.664 135.277C108.906 135.696 108.206 136.648 108.728 137.952C108.757 138.026 108.756 138.108 108.725 138.181C108.693 138.254 108.634 138.312 108.56 138.342C108.486 138.371 108.404 138.37 108.331 138.339C108.258 138.307 108.2 138.248 108.17 138.174C107.547 136.614 108.326 135.331 109.374 134.752C110.389 134.191 111.832 134.195 112.627 135.285C113.833 136.941 112.721 137.879 111.984 138.501C111.804 138.653 111.633 138.797 111.518 138.93C111.291 139.191 111.371 139.486 111.416 139.6C111.516 139.854 111.737 140.034 111.978 140.059C112.311 140.093 112.671 139.845 112.991 139.36C113.035 139.293 113.103 139.247 113.181 139.231C113.259 139.215 113.34 139.23 113.406 139.274C113.473 139.318 113.519 139.386 113.535 139.464C113.551 139.542 113.536 139.623 113.492 139.689C112.954 140.508 112.386 140.661 112.036 140.661ZM131.711 141.445C131.669 141.445 131.628 141.437 131.589 141.42C131.551 141.403 131.517 141.378 131.489 141.348C131.461 141.317 131.439 141.28 131.426 141.241C131.413 141.201 131.408 141.159 131.412 141.118L131.695 138.066C131.699 138.027 131.71 137.989 131.728 137.954C131.747 137.919 131.772 137.888 131.802 137.863C131.832 137.838 131.867 137.819 131.905 137.807C131.943 137.796 131.982 137.792 132.022 137.796C132.061 137.799 132.099 137.811 132.134 137.829C132.169 137.847 132.199 137.872 132.225 137.903C132.25 137.933 132.269 137.968 132.28 138.005C132.292 138.043 132.296 138.083 132.293 138.122L132.009 141.173C132.002 141.247 131.968 141.317 131.912 141.367C131.857 141.417 131.785 141.445 131.711 141.445ZM142.003 141.412C141.961 141.412 141.92 141.403 141.882 141.386C141.843 141.369 141.809 141.345 141.781 141.314C141.753 141.283 141.731 141.247 141.718 141.207C141.705 141.168 141.7 141.126 141.704 141.084L141.987 138.033C141.991 137.994 142.002 137.955 142.021 137.92C142.039 137.886 142.064 137.855 142.094 137.829C142.125 137.804 142.16 137.785 142.197 137.774C142.235 137.762 142.275 137.758 142.314 137.762C142.353 137.766 142.391 137.777 142.426 137.795C142.461 137.814 142.492 137.839 142.517 137.869C142.542 137.899 142.561 137.934 142.573 137.972C142.584 138.009 142.588 138.049 142.585 138.088L142.301 141.14C142.294 141.214 142.26 141.283 142.205 141.333C142.15 141.384 142.078 141.412 142.003 141.412ZM139.546 147.004C139.485 147.004 139.426 146.985 139.376 146.951C139.326 146.916 139.287 146.867 139.266 146.811C139.244 146.754 139.24 146.692 139.255 146.633C139.269 146.574 139.301 146.52 139.347 146.48C140.438 145.51 140.52 144.586 140.117 144.101C139.611 143.494 138.328 143.478 136.852 144.625C136.821 144.649 136.786 144.667 136.748 144.677C136.71 144.688 136.67 144.691 136.631 144.686C136.592 144.681 136.554 144.668 136.52 144.649C136.486 144.63 136.456 144.604 136.432 144.572C136.407 144.541 136.39 144.506 136.379 144.468C136.369 144.43 136.366 144.39 136.371 144.351C136.376 144.312 136.388 144.274 136.408 144.24C136.427 144.206 136.453 144.176 136.484 144.152C138.343 142.707 139.909 142.914 140.578 143.718C141.166 144.425 141.137 145.692 139.745 146.928C139.69 146.977 139.619 147.004 139.546 147.004ZM131.434 151.779C129.998 151.779 128.671 151.201 127.837 150.173C126.979 149.116 126.773 147.778 127.272 146.502C127.302 146.429 127.359 146.371 127.432 146.34C127.504 146.309 127.586 146.308 127.659 146.336C127.732 146.365 127.791 146.421 127.824 146.493C127.856 146.565 127.858 146.646 127.831 146.72C127.413 147.79 127.585 148.911 128.303 149.795C129.173 150.867 130.68 151.372 132.234 151.113C132.273 151.107 132.313 151.108 132.351 151.117C132.39 151.126 132.426 151.142 132.458 151.165C132.49 151.188 132.517 151.217 132.538 151.25C132.559 151.283 132.573 151.321 132.58 151.359C132.586 151.398 132.585 151.438 132.576 151.476C132.567 151.515 132.551 151.551 132.528 151.583C132.505 151.615 132.476 151.642 132.442 151.663C132.409 151.684 132.372 151.698 132.333 151.705C132.031 151.755 131.73 151.779 131.434 151.779Z" fill="#4E2A09"/>
<path d="M89.791 191.479C83.3994 200.015 81.2677 222.498 83.5781 228.699C84.1808 229.818 84.6783 230.99 85.0642 232.2L41.4083 232.121C41.0774 229.788 40.919 227.503 40.8067 225.161C39.1231 198.942 51.0902 162.707 72.4246 151.85M83.6093 228.78L83.6098 228.781C83.6098 228.781 83.6098 228.78 83.6093 228.78Z" fill="white"/>
<path d="M85.0643 232.5H85.0637L41.4079 232.421C41.3357 232.42 41.266 232.394 41.2116 232.347C41.1571 232.3 41.1215 232.234 41.1114 232.163C40.7526 229.635 40.6046 227.212 40.5071 225.175C39.6481 211.798 42.2717 196.291 47.7053 182.634C53.67 167.642 62.4006 156.615 72.2887 151.582C72.3239 151.564 72.3625 151.552 72.4022 151.548C72.442 151.544 72.4821 151.549 72.5202 151.561C72.5583 151.573 72.5936 151.592 72.6241 151.618C72.6546 151.644 72.6796 151.675 72.6977 151.711C72.7158 151.746 72.7267 151.785 72.7296 151.825C72.7325 151.865 72.7274 151.905 72.7146 151.943C72.7019 151.98 72.6817 152.015 72.6553 152.045C72.6288 152.075 72.5967 152.099 72.5607 152.117C51.6245 162.771 39.3939 198.478 41.1061 225.142C41.1998 227.1 41.3402 229.41 41.6696 231.821L84.6494 231.9C84.3064 230.897 83.8857 229.923 83.3909 228.985C83.355 228.946 83.3296 228.899 83.3172 228.847L83.314 228.841C83.3075 228.829 83.3019 228.817 83.2972 228.804C83.2756 228.746 83.2545 228.687 83.2338 228.626L83.2074 228.641L83.2335 228.626L83.2069 228.64C83.1761 228.581 83.165 228.515 83.1753 228.45C82.1315 225.164 82.1036 218.225 83.1241 210.923C84.3301 202.296 86.6725 195.143 89.551 191.299C89.5746 191.268 89.6042 191.241 89.638 191.221C89.6719 191.201 89.7094 191.188 89.7484 191.182C89.7874 191.177 89.8271 191.179 89.8653 191.189C89.9035 191.198 89.9393 191.216 89.9708 191.239C90.0023 191.263 90.0289 191.292 90.049 191.326C90.0691 191.36 90.0824 191.398 90.088 191.437C90.0936 191.475 90.0914 191.515 90.0817 191.553C90.0719 191.591 90.0547 191.627 90.0311 191.659C83.5487 200.315 81.6783 222.68 83.8523 228.576C84.4589 229.705 84.9603 230.888 85.35 232.109C85.3643 232.154 85.3677 232.202 85.3601 232.248C85.3524 232.295 85.334 232.339 85.3061 232.377C85.2783 232.415 85.2419 232.446 85.1998 232.467C85.1578 232.489 85.1113 232.5 85.0642 232.5L85.0643 232.5Z" fill="#4E2A09"/>
<path d="M80.1367 223.986C80.8048 225.626 81.7387 226.677 83.0964 227.829C83.9364 228.541 86.9543 230.337 91.4906 230.067C98.3322 229.661 105.379 224.791 111.869 215.984C127.069 196.977 153.537 212.492 149.545 232.119H41.4084" fill="white"/>
<path d="M149.545 232.42H41.4083C41.3288 232.42 41.2525 232.389 41.1962 232.332C41.14 232.276 41.1084 232.2 41.1084 232.12C41.1084 232.041 41.14 231.965 41.1962 231.908C41.2525 231.852 41.3288 231.82 41.4083 231.82H149.298C151.008 222.832 146.126 213.735 137.358 209.635C130.311 206.339 119.977 206.326 112.103 216.172C105.566 225.044 98.4418 229.956 91.5084 230.367C86.0698 230.691 83.0289 228.166 82.9022 228.058C81.5894 226.944 80.5694 225.845 79.8588 224.1C79.8299 224.027 79.8311 223.945 79.8622 223.872C79.8933 223.8 79.9517 223.742 80.0249 223.713C80.0981 223.683 80.18 223.683 80.2529 223.714C80.3259 223.744 80.3839 223.802 80.4145 223.874C81.0813 225.512 82.0093 226.514 83.2903 227.601C84.3015 228.459 87.3144 230.016 91.4728 229.769C98.2227 229.368 105.192 224.54 111.628 215.807C119.726 205.68 130.359 205.7 137.613 209.092C141.831 211.065 145.387 214.333 147.628 218.296C150.05 222.581 150.815 227.382 149.839 232.18C149.825 232.248 149.788 232.309 149.735 232.353C149.681 232.397 149.614 232.421 149.545 232.421L149.545 232.42Z" fill="#4E2A09"/>
<path d="M158.22 232.12C159.196 229.187 160.075 226.098 160.162 225.518C161.144 218.98 154.07 216.938 151.924 223.676C151.587 224.732 148.364 229.458 148.364 229.458C145.244 228.175 141.867 229.706 139.748 232.12H158.22H158.22Z" fill="white"/>
<path d="M158.22 232.419H139.748C139.691 232.419 139.634 232.403 139.586 232.371C139.537 232.34 139.499 232.295 139.475 232.243C139.451 232.19 139.443 232.132 139.451 232.075C139.46 232.018 139.485 231.965 139.523 231.921C141.393 229.79 144.777 227.806 148.25 229.091C149.222 227.656 151.385 224.377 151.638 223.584C152.78 220 155.262 218.855 157.218 219.31C159.163 219.762 161.007 221.912 160.458 225.562C160.362 226.202 159.442 229.396 158.505 232.214C158.485 232.274 158.447 232.326 158.396 232.362C158.345 232.399 158.283 232.419 158.22 232.419ZM140.443 231.819H158.004C158.959 228.928 159.786 225.999 159.865 225.473C160.357 222.199 158.767 220.286 157.082 219.894C155.395 219.502 153.235 220.546 152.209 223.766C151.864 224.851 148.745 229.432 148.612 229.626C148.573 229.683 148.516 229.725 148.45 229.744C148.384 229.764 148.314 229.761 148.25 229.734C145.26 228.505 142.288 229.997 140.443 231.819Z" fill="#4E2A09"/>
<path d="M138.96 209.322C144.793 207.965 150.265 208.393 151.466 210.037C152.503 211.456 154.369 220.85 154.706 222.568C155.718 227.728 147.339 229.638 145.988 224.926C145.573 223.479 143.91 216.579 143.91 216.579" fill="white"/>
<path d="M149.869 227.917C148.083 227.917 146.295 227.085 145.699 225.008C145.288 223.572 143.686 216.93 143.618 216.648C143.6 216.571 143.613 216.49 143.654 216.422C143.696 216.354 143.762 216.305 143.84 216.287C143.917 216.268 143.999 216.281 144.067 216.322C144.134 216.364 144.183 216.431 144.202 216.508C144.218 216.577 145.868 223.419 146.276 224.843C146.92 227.087 149.237 227.621 151.117 227.169C153.106 226.689 154.896 225.099 154.411 222.626C153.368 217.307 151.983 211.253 151.224 210.213C150.187 208.795 145.039 208.215 139.028 209.613C138.95 209.631 138.869 209.617 138.802 209.575C138.735 209.533 138.687 209.466 138.669 209.389C138.651 209.311 138.664 209.23 138.706 209.163C138.748 209.095 138.815 209.047 138.892 209.029C144.744 207.668 150.373 208.033 151.708 209.859C152.709 211.229 154.344 219.163 155 222.51C155.559 225.358 153.451 227.223 151.258 227.752C150.803 227.861 150.337 227.917 149.869 227.917Z" fill="#4E2A09"/>
<path d="M130.957 207.516C135.872 207.58 141.384 208.106 143.019 210.481C144.015 211.928 144.129 222.102 144.017 223.85C143.68 229.097 135.091 228.81 134.986 223.909C134.953 222.404 135.015 216.889 135.015 216.889" fill="white"/>
<path d="M139.484 227.985C139.443 227.985 139.402 227.984 139.361 227.983C137.151 227.936 134.745 226.643 134.686 223.914C134.654 222.422 134.714 216.94 134.715 216.885C134.716 216.806 134.748 216.73 134.804 216.675C134.86 216.619 134.936 216.588 135.015 216.588H135.018C135.098 216.589 135.173 216.622 135.229 216.678C135.285 216.735 135.315 216.812 135.315 216.891C135.314 216.946 135.254 222.419 135.286 223.901C135.336 226.235 137.44 227.342 139.374 227.383C141.413 227.429 143.556 226.345 143.718 223.83C143.849 221.779 143.654 211.931 142.772 210.65C141.519 208.83 137.653 207.903 130.953 207.815C130.874 207.814 130.798 207.782 130.742 207.725C130.686 207.669 130.655 207.592 130.655 207.513C130.656 207.433 130.688 207.357 130.744 207.301C130.801 207.245 130.878 207.214 130.957 207.215H130.961C137.869 207.306 141.894 208.318 143.266 210.31C144.357 211.894 144.411 222.392 144.316 223.868C144.134 226.711 141.708 227.985 139.484 227.985Z" fill="#4E2A09"/>
<path d="M125.333 207.627C129.017 207.037 133.426 207.591 134.869 209.168C136.233 210.659 135.742 221.661 135.6 223.407C135.173 228.648 126.59 228.212 126.569 223.309C126.563 221.805 126.72 216.291 126.72 216.291" fill="white"/>
<path d="M131.097 227.465C131.022 227.465 130.948 227.463 130.873 227.461C128.664 227.376 126.281 226.041 126.269 223.311C126.263 221.819 126.418 216.339 126.42 216.284C126.425 216.118 126.564 215.986 126.728 215.992C126.808 215.995 126.883 216.028 126.938 216.086C126.992 216.144 127.022 216.221 127.019 216.301C127.018 216.356 126.863 221.826 126.869 223.309C126.879 225.643 128.964 226.787 130.897 226.861C132.948 226.936 135.096 225.895 135.301 223.384C135.541 220.44 135.8 210.631 134.647 209.371C133.358 207.962 129.202 207.313 125.381 207.924C125.342 207.93 125.302 207.929 125.264 207.919C125.226 207.91 125.189 207.894 125.157 207.871C125.126 207.848 125.098 207.818 125.078 207.785C125.057 207.751 125.043 207.714 125.037 207.675C125.031 207.636 125.032 207.597 125.042 207.558C125.051 207.52 125.067 207.484 125.09 207.452C125.113 207.42 125.143 207.393 125.176 207.372C125.21 207.352 125.247 207.338 125.286 207.332C128.848 206.762 133.49 207.217 135.09 208.966C136.693 210.718 135.909 223.308 135.899 223.432C135.671 226.229 133.294 227.465 131.098 227.465H131.097Z" fill="#4E2A09"/>
<path d="M111.869 215.983C113.193 214.054 117.058 209.956 117.987 209.088C119.671 207.514 125.847 208.617 126.934 209.998C128.318 211.755 126.633 222.541 126.331 224.266C125.422 229.445 116.917 228.22 117.348 223.337C117.48 221.838 118.144 216.362 118.144 216.362" fill="white"/>
<path d="M122.015 227.917C121.757 227.917 121.502 227.9 121.251 227.867C119.059 227.578 116.809 226.03 117.048 223.311C117.18 221.825 117.839 216.382 117.846 216.327C117.856 216.248 117.897 216.176 117.959 216.127C118.022 216.078 118.101 216.056 118.18 216.065C118.219 216.07 118.257 216.083 118.291 216.102C118.326 216.121 118.356 216.147 118.38 216.178C118.404 216.209 118.422 216.245 118.433 216.283C118.444 216.321 118.446 216.36 118.442 216.399C118.435 216.454 117.776 221.887 117.646 223.364C117.441 225.689 119.411 227.02 121.329 227.272C123.358 227.539 125.6 226.697 126.035 224.215C126.731 220.246 127.809 211.595 126.698 210.184C126.16 209.501 123.996 208.814 121.875 208.652C120.122 208.519 118.78 208.758 118.192 209.308C117.263 210.176 113.422 214.25 112.116 216.154C112.094 216.187 112.066 216.215 112.033 216.237C112 216.259 111.962 216.275 111.923 216.282C111.884 216.29 111.844 216.29 111.805 216.282C111.766 216.274 111.729 216.258 111.696 216.235C111.663 216.213 111.635 216.184 111.614 216.151C111.592 216.117 111.578 216.08 111.571 216.041C111.564 216.002 111.564 215.961 111.573 215.923C111.582 215.884 111.598 215.847 111.621 215.814C112.949 213.88 116.841 209.749 117.782 208.87C118.755 207.96 120.792 207.968 121.92 208.054C123.913 208.206 126.43 208.874 127.169 209.813C128.787 211.867 126.648 224.194 126.626 224.318C126.181 226.856 124.052 227.917 122.015 227.917L122.015 227.917Z" fill="#4E2A09"/>
<path d="M72.4248 151.85C56.695 159.827 49.0765 173.782 46.0947 179.114C48.1288 188.276 67.1179 199.862 85.3936 200.804C85.3936 200.804 87.7023 194.867 90.8479 189.639" fill="#796959"/>
<path d="M85.3937 201.103C85.3884 201.103 85.3833 201.103 85.3781 201.102C76.8499 200.663 67.4194 197.819 59.5048 193.301C51.9275 188.975 46.8047 183.695 45.802 179.177C45.7861 179.105 45.7971 179.03 45.8329 178.966L45.9753 178.711C47.5567 175.881 50.2036 171.143 54.4478 166.04C59.612 159.83 65.6148 154.966 72.2891 151.581C72.36 151.545 72.4421 151.539 72.5174 151.564C72.5927 151.589 72.6551 151.642 72.691 151.713C72.7269 151.784 72.7333 151.866 72.7089 151.941C72.6844 152.017 72.6311 152.079 72.5606 152.115C57.1568 159.928 49.6881 173.295 46.499 179.003L46.4129 179.157C47.4391 183.489 52.432 188.572 59.8022 192.78C67.5716 197.215 76.8135 200.02 85.1944 200.492C85.6302 199.403 87.7926 194.133 90.591 189.483C90.6331 189.418 90.6992 189.371 90.7753 189.353C90.8513 189.335 90.9313 189.348 90.9983 189.388C91.0652 189.428 91.1138 189.493 91.1338 189.569C91.1537 189.644 91.1434 189.725 91.105 189.793C88.0092 194.937 85.6962 200.852 85.6731 200.911C85.6512 200.968 85.6128 201.016 85.5629 201.05C85.5131 201.084 85.4541 201.102 85.3937 201.103V201.103Z" fill="#796959"/>
<path d="M155.801 203.996C155.724 203.996 155.65 203.966 155.595 203.913C155.539 203.86 155.506 203.788 155.502 203.711C155.217 198.02 154.497 193.236 153.861 189.015L153.749 188.27C153.742 188.23 153.743 188.19 153.752 188.151C153.761 188.113 153.778 188.076 153.802 188.044C153.825 188.012 153.854 187.984 153.889 187.964C153.923 187.943 153.96 187.929 154 187.923C154.039 187.917 154.079 187.919 154.118 187.929C154.157 187.939 154.193 187.956 154.225 187.98C154.257 188.004 154.283 188.034 154.303 188.069C154.323 188.103 154.336 188.141 154.342 188.181L154.454 188.926C155.092 193.16 155.815 197.96 156.101 203.681C156.103 203.721 156.097 203.762 156.083 203.8C156.068 203.838 156.047 203.873 156.019 203.903C155.991 203.932 155.957 203.956 155.919 203.972C155.882 203.988 155.842 203.996 155.801 203.996ZM85.2178 202.321C85.172 202.321 85.1269 202.311 85.0858 202.291C85.0447 202.271 85.0088 202.242 84.9807 202.205C84.9527 202.169 84.9333 202.127 84.924 202.082C84.9147 202.038 84.9158 201.991 84.9271 201.947C86.1164 197.301 88.3226 193.447 90.456 189.719L90.5877 189.489C90.6275 189.42 90.6927 189.371 90.7692 189.35C90.8456 189.33 90.9271 189.34 90.9958 189.379C91.0644 189.419 91.1148 189.484 91.1359 189.56C91.157 189.636 91.1471 189.718 91.1084 189.787L90.9767 190.017C88.8628 193.71 86.6773 197.529 85.5081 202.096C85.4916 202.16 85.4541 202.217 85.4015 202.258C85.3489 202.299 85.2842 202.321 85.2176 202.321L85.2178 202.321Z" fill="#4E2A09"/>
</g>
<g clip-path="url(#clip3_2061_27065)">
<path d="M24 232.047H253.2V238.652H24V232.047Z" fill="white"/>
<path d="M253.2 238.95H23.9999C23.9204 238.95 23.8441 238.919 23.7878 238.863C23.7316 238.807 23.7 238.731 23.7 238.653V232.047C23.7 231.969 23.7316 231.893 23.7878 231.837C23.8441 231.781 23.9204 231.75 23.9999 231.75H253.2C253.28 231.75 253.356 231.781 253.412 231.837C253.468 231.893 253.5 231.969 253.5 232.047V238.653C253.5 238.731 253.468 238.807 253.412 238.863C253.356 238.919 253.28 238.95 253.2 238.95ZM24.2999 238.355H252.9V232.345H24.2999V238.355Z" fill="#4E2A09"/>
</g>
<g clip-path="url(#clip4_2061_27065)">
<path d="M155.104 231.927H106.623L108.973 227.887H157.454L155.104 231.927Z" fill="#4E2A09"/>
<path d="M155.104 232.2H106.623C106.575 232.2 106.528 232.187 106.486 232.163C106.445 232.139 106.41 232.105 106.386 232.063C106.362 232.021 106.35 231.974 106.35 231.926C106.35 231.878 106.363 231.831 106.387 231.789L108.737 227.749C108.761 227.708 108.795 227.673 108.837 227.65C108.878 227.626 108.925 227.613 108.973 227.613H157.454C157.502 227.613 157.549 227.626 157.591 227.65C157.632 227.674 157.667 227.708 157.691 227.75C157.715 227.792 157.727 227.839 157.727 227.887C157.727 227.935 157.714 227.982 157.69 228.023L155.34 232.064C155.316 232.105 155.282 232.139 155.24 232.163C155.199 232.187 155.152 232.2 155.104 232.2ZM107.098 231.654H154.947L156.979 228.159H109.13L107.098 231.654Z" fill="#4E2A09"/>
<path d="M155.104 231.927H230.185L263.277 175.023H188.197L155.104 231.927Z" fill="#4E2A09"/>
<path d="M230.185 232.2H155.104C155.056 232.2 155.009 232.187 154.967 232.163C154.926 232.139 154.891 232.105 154.867 232.063C154.843 232.021 154.831 231.974 154.831 231.926C154.831 231.878 154.844 231.831 154.868 231.79L187.96 174.886C187.984 174.845 188.019 174.81 188.06 174.786C188.102 174.763 188.149 174.75 188.196 174.75H263.277C263.325 174.75 263.372 174.763 263.414 174.787C263.455 174.811 263.49 174.845 263.514 174.887C263.538 174.928 263.55 174.976 263.55 175.024C263.55 175.072 263.537 175.119 263.513 175.16L230.421 232.064C230.397 232.105 230.362 232.14 230.321 232.164C230.279 232.187 230.232 232.2 230.185 232.2ZM155.579 231.654H230.028L262.802 175.296H188.353L155.579 231.654Z" fill="#4E2A09"/>
<path d="M155.104 232.2C155.056 232.2 155.009 232.187 154.967 232.163C154.926 232.139 154.891 232.105 154.867 232.063C154.843 232.021 154.831 231.974 154.831 231.926C154.831 231.878 154.844 231.831 154.868 231.79L157.218 227.749C157.255 227.689 157.315 227.645 157.384 227.627C157.453 227.61 157.526 227.62 157.588 227.656C157.649 227.692 157.694 227.75 157.713 227.819C157.732 227.888 157.724 227.961 157.69 228.024L155.34 232.064C155.316 232.105 155.282 232.14 155.24 232.164C155.199 232.187 155.152 232.2 155.104 232.2Z" fill="white"/>
</g>
</g>
<defs>
<clipPath id="clip0_2061_27065">
<rect width="330" height="300" fill="white"/>
</clipPath>
<clipPath id="clip1_2061_27065">
<rect width="145.05" height="114.45" fill="white" transform="translate(161.4 76.3496)"/>
</clipPath>
<clipPath id="clip2_2061_27065">
<rect width="141.6" height="118.05" fill="white" transform="translate(40.3501 114.449)"/>
</clipPath>
<clipPath id="clip3_2061_27065">
<rect width="229.8" height="7.2" fill="white" transform="translate(23.7 231.75)"/>
</clipPath>
<clipPath id="clip4_2061_27065">
<rect width="157.2" height="57.45" fill="white" transform="translate(106.35 174.75)"/>
</clipPath>
</defs>
</svg>
