<svg width="330" height="264" viewBox="0 0 330 264" fill="none" xmlns="http://www.w3.org/2000/svg">
<g clip-path="url(#clip0_2061_27151)">
<path d="M0 0H330V264H0V0Z" fill="white"/>
<g clip-path="url(#clip1_2061_27151)">
<path d="M67.8301 201.941H292.926V207.391H67.8301V201.941Z" fill="white"/>
<path d="M292.926 207.635H67.83C67.7647 207.635 67.7022 207.609 67.656 207.563C67.6099 207.517 67.584 207.455 67.584 207.39V201.941C67.584 201.876 67.6099 201.813 67.656 201.767C67.7022 201.721 67.7647 201.695 67.83 201.695H292.926C292.991 201.695 293.054 201.721 293.1 201.767C293.146 201.813 293.172 201.876 293.172 201.941V207.39C293.172 207.455 293.146 207.517 293.1 207.563C293.054 207.609 292.991 207.635 292.926 207.635ZM68.076 207.145H292.68V202.186H68.076V207.145Z" fill="#4E2A09"/>
</g>
<g clip-path="url(#clip2_2061_27151)">
<path d="M94.8845 202.017C93.4279 200.216 92.3259 198.122 91.6969 196.069C87.9799 183.794 98.0223 170.758 100.065 158.303C101.094 152.933 100.938 148.084 99.5881 143.477C97.9489 137.883 101.154 132.019 106.747 130.38C112.34 128.741 118.202 131.946 119.841 137.54C124.399 151.726 120.446 167.845 115.017 180.746C113.804 183.945 112.667 186.646 112.076 189.398C115.458 193.111 115.48 198.15 113.266 201.891" fill="white"/>
<path d="M94.8845 202.281C94.8452 202.281 94.8063 202.272 94.7708 202.255C94.7353 202.238 94.704 202.214 94.6793 202.183C93.2414 200.406 92.0926 198.262 91.4447 196.147C89.0614 188.276 92.298 180.028 95.4281 172.051C97.2144 167.499 99.0615 162.791 99.8047 158.26C100.827 152.926 100.672 148.117 99.3348 143.552C98.5223 140.779 98.8379 137.855 100.224 135.319C101.61 132.784 103.9 130.94 106.673 130.127C112.396 128.45 118.417 131.742 120.094 137.466C122.195 144.004 122.647 151.475 121.435 159.664C120.449 166.327 118.372 173.455 115.26 180.849C115.057 181.385 114.853 181.915 114.653 182.434C113.688 184.937 112.853 187.105 112.363 189.323C113.948 191.106 114.871 193.28 115.032 195.616C115.184 197.815 114.638 200.091 113.493 202.025C113.457 202.085 113.399 202.129 113.331 202.146C113.264 202.164 113.192 202.153 113.132 202.118C113.071 202.082 113.028 202.024 113.01 201.956C112.993 201.889 113.003 201.817 113.039 201.756C114.987 198.465 115.384 193.423 111.881 189.576C111.853 189.545 111.832 189.508 111.821 189.467C111.811 189.427 111.809 189.384 111.818 189.343C112.312 187.039 113.169 184.817 114.161 182.244C114.36 181.726 114.564 181.197 114.771 180.653C119.596 169.186 124.345 152.422 119.59 137.621C117.993 132.169 112.265 129.037 106.821 130.633C104.184 131.406 102.005 133.161 100.687 135.573C99.3686 137.985 99.0682 140.766 99.8412 143.404C101.203 148.051 101.361 152.941 100.324 158.353C99.573 162.932 97.7157 167.666 95.9192 172.244C92.822 180.137 89.6193 188.299 91.9493 195.993C92.5777 198.044 93.693 200.125 95.0895 201.851C95.1208 201.89 95.1406 201.937 95.1464 201.986C95.1523 202.036 95.144 202.086 95.1225 202.131C95.1011 202.176 95.0674 202.214 95.0252 202.24C94.9831 202.267 94.9343 202.281 94.8845 202.281Z" fill="#4E2A09"/>
<path d="M90.8809 72.6847C89.5254 65.8836 72.3387 56.5474 62.9145 70.3452C57.3869 78.4379 60.4364 86.4267 61.8703 91.6332C64.4368 100.952 54.8158 100.683 56.8911 107.33C58.4762 112.408 71.0321 114.42 76.3806 107.447C81.5354 100.726 75.6051 96.1033 78.5252 84.5118C79.4366 80.8936 90.881 72.6847 90.881 72.6847H90.8809Z" fill="#796959"/>
<path d="M66.2311 112.199C65.2659 112.199 64.3428 112.114 63.5027 111.964C59.9491 111.333 57.3191 109.587 56.6391 107.409C55.6349 104.192 57.2469 102.515 58.9535 100.741C60.9224 98.6932 62.9581 96.5762 61.6159 91.703C61.4927 91.2559 61.3586 90.7913 61.2166 90.2996C59.6799 84.9797 57.5754 77.6939 62.6966 70.196C68.0252 62.3946 75.2326 62.538 79.0547 63.3186C81.951 63.9096 84.8107 65.2324 87.1071 67.043C89.3074 68.7778 90.7773 70.8153 91.1395 72.6328C91.1494 72.6826 91.1447 72.7342 91.1261 72.7813C91.1075 72.8285 91.0757 72.8694 91.0345 72.899C90.9208 72.9805 79.6583 81.0923 78.7809 84.5761C77.4399 89.8994 77.9739 93.6748 78.4452 97.0057C78.9911 100.865 79.4225 103.914 76.5899 107.607C73.9674 111.026 69.8112 112.199 66.2312 112.199H66.2311ZM75.6328 63.4961C71.8749 63.4961 66.9959 64.8371 63.1322 70.4938C58.1511 77.7863 60.2159 84.934 61.7234 90.1532C61.8659 90.6465 62.0006 91.1125 62.1246 91.5628C63.5465 96.7256 61.3085 99.0529 59.3338 101.106C57.6691 102.837 56.2315 104.332 57.1427 107.251C57.7637 109.241 60.2362 110.848 63.5951 111.445C67.4059 112.122 72.9858 111.439 76.1712 107.286C78.869 103.769 78.4513 100.817 77.9227 97.0795C77.4684 93.8678 76.9029 89.8708 78.2692 84.4471C79.1487 80.9554 89.2068 73.5708 90.586 72.5716C89.8067 69.3108 85.019 65.0744 78.9492 63.8355C78.023 63.6464 76.8902 63.4961 75.6326 63.4961H75.6328Z" fill="#796959"/>
<path d="M110.233 151.938C110.324 156.12 111.646 160.897 111.057 165.573C110.461 170.306 107.456 172.108 106.878 174.189C105.987 177.395 103.435 201.993 103.435 201.993H50.5867L54.8111 158.552C52.8578 148.118 52.6183 133.47 57.5121 126.749C63.2524 120.194 75.3394 120.661 82.2285 121.373L98.4065 124.654C98.4065 124.654 111.004 128.293 117.062 134.009" fill="#4E2A09"/>
<path d="M103.435 202.257H50.5866C50.5498 202.257 50.5134 202.25 50.4798 202.235C50.4461 202.22 50.4159 202.198 50.3912 202.171C50.3665 202.144 50.3477 202.112 50.3361 202.077C50.3246 202.042 50.3204 202.005 50.324 201.968L54.5449 158.564C52.459 147.39 52.502 133.182 57.2988 126.595C57.3035 126.588 57.3085 126.582 57.3136 126.576C61.5989 121.682 69.9905 119.844 82.2557 121.111C82.2641 121.112 82.2725 121.113 82.281 121.115L98.459 124.396C98.466 124.398 98.4728 124.399 98.4797 124.402C98.6063 124.438 111.209 128.123 117.243 133.818C117.269 133.841 117.29 133.87 117.305 133.902C117.32 133.934 117.329 133.968 117.33 134.003C117.332 134.038 117.326 134.073 117.314 134.106C117.301 134.139 117.283 134.169 117.258 134.195C117.234 134.221 117.205 134.241 117.173 134.255C117.141 134.269 117.106 134.277 117.071 134.278C117.036 134.278 117.001 134.272 116.969 134.259C116.936 134.246 116.906 134.226 116.881 134.202C111.01 128.662 98.7595 125.033 98.3433 124.911L82.1888 121.635C70.1184 120.389 61.8853 122.166 57.7183 126.915C55.5305 129.926 54.1956 134.89 53.8574 141.273C53.5752 146.598 54.0173 152.879 55.0704 158.504C55.075 158.528 55.0761 158.553 55.0737 158.578L50.8773 201.73H103.197C103.476 199.047 105.773 177.178 106.623 174.119C106.848 173.312 107.398 172.569 108.034 171.709C109.1 170.269 110.425 168.477 110.795 165.541C111.157 162.667 110.789 159.754 110.433 156.937C110.213 155.191 110.004 153.541 109.969 151.945C109.968 151.875 109.994 151.807 110.043 151.757C110.091 151.706 110.157 151.677 110.227 151.675C110.369 151.67 110.494 151.788 110.497 151.934C110.531 153.502 110.738 155.138 110.957 156.871C111.317 159.721 111.689 162.667 111.319 165.607C110.931 168.68 109.56 170.534 108.458 172.023C107.853 172.841 107.33 173.548 107.131 174.261C106.257 177.409 103.722 201.775 103.697 202.021C103.69 202.086 103.659 202.146 103.611 202.19C103.562 202.234 103.5 202.258 103.434 202.258L103.435 202.257Z" fill="#4E2A09"/>
<path d="M101.701 71.8324C109.886 73.8402 118.62 79.8449 119.269 87.6863C119.848 94.6717 115.863 95.7604 115.863 95.7604C106.474 92.1272 89.5096 106.351 85.5138 109.581C73.1307 103.413 75.3613 85.6682 80.0949 79.0416C84.4414 72.957 92.2561 69.5153 101.701 71.8324H101.701Z" fill="#796959"/>
<path d="M85.5137 109.844C85.4737 109.844 85.4335 109.835 85.3962 109.817C81.0223 107.638 78.0359 103.779 76.7598 98.6566C74.9123 91.24 76.9886 82.936 79.8802 78.8881C82.1406 75.7237 85.2582 73.3551 88.8963 72.0381C92.7945 70.627 97.2439 70.4671 101.764 71.5759C106.043 72.6256 110.313 74.7368 113.48 77.3686C117.133 80.4047 119.226 83.965 119.532 87.6644C120.123 94.7864 116.104 95.9681 115.933 96.0148C115.878 96.0297 115.82 96.0268 115.768 96.0064C112.001 94.549 106.517 95.8705 99.4666 99.9344C93.7475 103.231 88.639 107.382 86.1839 109.376C86.016 109.513 85.8479 109.649 85.6796 109.786C85.6327 109.824 85.5742 109.844 85.5138 109.844L85.5137 109.844ZM95.8825 71.3705C89.5301 71.3705 83.9408 74.1112 80.3096 79.1946C77.4866 83.1464 75.4625 91.2656 77.2719 98.5287C78.4945 103.437 81.3313 107.147 85.4803 109.268L85.8513 108.967C88.3169 106.963 93.4474 102.794 99.2032 99.4769C106.345 95.3604 111.952 94.0164 115.871 95.4806C116.419 95.2874 119.521 93.914 119.006 87.7077C118.712 84.1527 116.684 80.7178 113.142 77.7743C110.035 75.1919 105.842 73.1194 101.638 72.0882C99.6749 71.6065 97.7451 71.3706 95.8824 71.3706L95.8825 71.3705Z" fill="#796959"/>
<path d="M99.9975 119.073L98.6322 123.859L100.1 124.291C100.1 124.291 99.868 132.316 92.7362 132.316C85.6044 132.316 80.553 126.184 80.553 120.446L82.2005 120.499L86.6517 105.83" fill="white"/>
<path d="M92.7361 132.582C89.3462 132.582 86.1654 131.209 83.7795 128.717C81.5613 126.399 80.2891 123.385 80.2891 120.447C80.2891 120.412 80.2962 120.377 80.31 120.344C80.3238 120.312 80.344 120.282 80.3694 120.258C80.3948 120.233 80.4249 120.214 80.4579 120.201C80.4909 120.188 80.5261 120.183 80.5615 120.184L82.0068 120.23L86.3993 105.755C86.421 105.689 86.4674 105.635 86.5285 105.604C86.5895 105.572 86.6605 105.566 86.7263 105.586C86.7921 105.606 86.8475 105.65 86.8807 105.711C86.9139 105.771 86.9223 105.842 86.9042 105.908L82.4529 120.577C82.4182 120.691 82.3091 120.765 82.192 120.764L80.8208 120.72C80.9793 126.137 85.8281 132.054 92.7362 132.054C95.5776 132.054 97.6335 130.759 98.8472 128.206C99.5951 126.633 99.7802 125.037 99.8236 124.486L98.5578 124.114C98.491 124.094 98.4347 124.049 98.4011 123.988C98.3675 123.927 98.3594 123.855 98.3785 123.788L99.7439 119.002C99.7631 118.935 99.8082 118.878 99.8694 118.844C99.9305 118.81 100.003 118.801 100.07 118.821C100.137 118.84 100.194 118.885 100.228 118.946C100.262 119.007 100.271 119.079 100.251 119.147L98.9577 123.681L100.174 124.039C100.23 124.055 100.279 124.09 100.313 124.137C100.348 124.184 100.365 124.241 100.364 124.299C100.361 124.384 100.293 126.385 99.331 128.418C98.4322 130.317 96.5585 132.581 92.7363 132.581L92.7361 132.582Z" fill="#4E2A09"/>
<path d="M86.6518 105.831C82.2863 102.538 79.6738 95.4728 80.5776 87.9374C81.5298 79.9989 90.4223 74.8613 99.7234 76.3618C103.112 76.9084 106.129 78.2673 108.535 80.1549C113.271 83.302 116.395 91.3 115.941 100.386C115.371 111.782 109.402 120.313 102.58 120.023C97.1127 119.79 93.8259 114.95 92.6351 113.261" fill="white"/>
<path d="M102.924 120.294C102.806 120.294 102.688 120.291 102.569 120.286C97.0924 120.054 93.7569 115.314 92.5012 113.529L92.4196 113.413C92.3803 113.356 92.3651 113.286 92.3774 113.217C92.3896 113.149 92.4282 113.088 92.4849 113.048C92.5416 113.008 92.6118 112.992 92.6803 113.004C92.7487 113.015 92.8099 113.053 92.8507 113.109L92.9326 113.225C94.1473 114.952 97.374 119.537 102.592 119.759C105.817 119.898 108.939 118.006 111.388 114.437C113.882 110.802 115.405 105.807 115.677 100.373C116.116 91.5992 113.187 83.5626 108.389 80.3746C108.383 80.3708 108.378 80.3667 108.372 80.3625C105.918 78.4369 102.913 77.1435 99.6815 76.6222C94.6579 75.8118 89.4601 76.9852 85.777 79.7611C82.9745 81.8733 81.2209 84.7882 80.8395 87.9689C79.9746 95.1801 82.3741 102.274 86.8106 105.62C86.8383 105.641 86.8616 105.667 86.8792 105.697C86.8967 105.727 86.9083 105.76 86.9131 105.794C86.9179 105.828 86.9159 105.863 86.9072 105.897C86.8985 105.93 86.8833 105.962 86.8625 105.99C86.8416 106.017 86.8155 106.041 86.7857 106.058C86.7558 106.076 86.7228 106.087 86.6885 106.092C86.6542 106.097 86.6192 106.095 86.5857 106.086C86.5522 106.078 86.5207 106.062 86.493 106.041C81.9116 102.586 79.4291 95.2975 80.3157 87.9061C80.7144 84.5814 82.5412 81.5392 85.4595 79.3397C89.3117 76.4365 94.5259 75.256 99.7655 76.1014C103.081 76.6362 106.167 77.964 108.69 79.9411C113.632 83.2324 116.652 91.4521 116.204 100.4C115.641 111.66 109.841 120.293 102.923 120.294L102.924 120.294Z" fill="#4E2A09"/>
<path d="M114.455 87.4483C109.323 94.0422 99.4223 99.4178 89.5204 97.3462C87.5187 96.9274 83.6482 101.149 83.6482 101.149C83.6482 101.149 79.2389 99.9457 78.5468 91.9102C77.619 81.1385 87.5814 73.1495 96.5086 74.1349C104.635 75.0321 112.31 77.7257 114.455 87.4483H114.455Z" fill="#796959"/>
<path d="M83.6482 101.413C83.6251 101.413 83.6017 101.41 83.5788 101.403C83.3916 101.352 78.9841 100.058 78.284 91.9319C77.8598 87.0067 79.6361 82.3316 83.2857 78.7677C86.949 75.1905 91.9032 73.3598 96.5376 73.8718C101.433 74.4122 105.033 75.4881 107.865 77.2574C111.465 79.5064 113.705 82.8211 114.713 87.3907C114.721 87.4286 114.721 87.4678 114.713 87.5057C114.704 87.5436 114.687 87.5791 114.664 87.6097C111.958 91.0861 108.129 94.0259 103.883 95.8877C99.1027 97.9834 94.1175 98.5769 89.4665 97.6037C87.9469 97.2864 84.8914 100.184 83.8427 101.327C83.818 101.354 83.7879 101.376 83.7544 101.39C83.7209 101.405 83.6848 101.413 83.6482 101.413ZM94.9857 74.3149C90.9562 74.3149 86.8134 76.0604 83.6542 79.1455C80.1198 82.5969 78.3993 87.1219 78.8097 91.8866C79.405 98.7973 82.8243 100.541 83.5738 100.842C84.2629 100.113 87.6322 96.6796 89.5745 97.0872C99.5916 99.183 109.32 93.5432 114.171 87.3834C111.895 77.3565 103.526 75.1744 96.4797 74.3964C95.9835 74.3419 95.4847 74.3147 94.9856 74.3149H94.9857Z" fill="#796959"/>
<path d="M87.7754 105.802C85.2056 106.458 82.5908 104.906 81.9351 102.336C81.2795 99.7652 82.8313 97.1498 85.4011 96.494C87.543 95.9474 89.716 96.9347 90.7601 98.7669" fill="white"/>
<path d="M86.5794 106.218C85.6807 106.218 84.7956 105.977 84.0026 105.506C82.8389 104.815 82.0138 103.713 81.6793 102.401C81.3448 101.09 81.541 99.7264 82.2316 98.5624C82.9222 97.3985 84.0246 96.5732 85.3358 96.2386C87.5394 95.6766 89.8643 96.6623 90.9892 98.6364C91.0063 98.6665 91.0174 98.6997 91.0217 98.7341C91.026 98.7685 91.0235 98.8034 91.0144 98.8368C91.0052 98.8703 90.9896 98.9015 90.9683 98.9289C90.9471 98.9563 90.9206 98.9792 90.8905 98.9964C90.8604 99.0135 90.8272 99.0246 90.7929 99.0289C90.7585 99.0332 90.7236 99.0307 90.6902 99.0216C90.6568 99.0124 90.6255 98.9967 90.5981 98.9755C90.5707 98.9542 90.5478 98.9278 90.5307 98.8977C89.523 97.1295 87.4405 96.2459 85.4662 96.75C84.2916 97.0496 83.3039 97.789 82.6852 98.8317C82.0666 99.8744 81.8909 101.096 82.1906 102.27C82.8091 104.696 85.2857 106.166 87.71 105.547C87.777 105.532 87.8473 105.543 87.9059 105.579C87.9645 105.615 88.0069 105.672 88.0239 105.739C88.0409 105.806 88.0312 105.876 87.997 105.936C87.9628 105.995 87.9067 106.039 87.8406 106.058C87.4285 106.164 87.0048 106.217 86.5794 106.218Z" fill="#4E2A09"/>
<path d="M87.191 104.648C87.0728 104.648 86.9552 104.63 86.8425 104.594C86.4301 104.462 86.114 104.082 86.0369 103.626C85.9613 103.18 86.1245 102.756 86.4734 102.493C86.6409 102.366 86.8458 102.256 87.0626 102.14C87.8729 101.704 88.6384 101.293 88.0509 99.9823C87.6561 99.1015 86.6157 98.8959 85.7921 99.1478C84.9966 99.3911 84.1495 100.147 84.3804 101.476C84.3924 101.545 84.3765 101.616 84.3362 101.674C84.296 101.731 84.2346 101.77 84.1657 101.782C84.0968 101.794 84.0259 101.778 83.9687 101.737C83.9114 101.697 83.8726 101.636 83.8606 101.567C83.5893 100.006 84.5577 98.9735 85.6378 98.6431C86.6827 98.3234 88.0124 98.6067 88.5323 99.7664C89.3207 101.526 88.112 102.175 87.3122 102.605C87.1138 102.711 86.9264 102.812 86.7912 102.914C86.5192 103.12 86.5369 103.419 86.557 103.538C86.6016 103.802 86.7771 104.019 87.0041 104.092C87.3151 104.192 87.7063 104.03 88.1047 103.635C88.1292 103.61 88.1584 103.59 88.1906 103.577C88.2229 103.563 88.2575 103.556 88.2925 103.556C88.3275 103.556 88.3622 103.563 88.3946 103.576C88.4269 103.59 88.4562 103.609 88.4809 103.634C88.5055 103.659 88.525 103.689 88.5381 103.721C88.5512 103.754 88.5577 103.788 88.5572 103.823C88.5567 103.858 88.5493 103.893 88.5353 103.925C88.5214 103.957 88.5012 103.986 88.4759 104.01C87.9636 104.518 87.5152 104.648 87.1908 104.648L87.191 104.648ZM108.427 102.011C108.388 102.011 108.349 102.002 108.314 101.985C108.278 101.968 108.247 101.944 108.222 101.913C108.198 101.883 108.18 101.847 108.171 101.809C108.161 101.771 108.16 101.732 108.168 101.693L108.875 98.2621C108.891 98.1952 108.932 98.1371 108.99 98.1001C109.048 98.0631 109.118 98.0502 109.186 98.064C109.253 98.0779 109.312 98.1175 109.351 98.1744C109.389 98.2313 109.404 98.301 109.392 98.3687L108.685 101.8C108.673 101.859 108.641 101.913 108.594 101.951C108.547 101.989 108.488 102.01 108.427 102.011Z" fill="#4E2A09"/>
<path d="M113.214 104.094C118.041 103.054 117.551 106.486 113.656 107.775L113.214 104.094Z" fill="white"/>
<path d="M113.656 108.038C113.593 108.038 113.532 108.016 113.484 107.975C113.437 107.934 113.405 107.878 113.395 107.816C113.385 107.754 113.397 107.691 113.43 107.637C113.463 107.583 113.513 107.543 113.573 107.523C115.531 106.876 116.625 105.624 116.418 104.863C116.276 104.344 115.367 103.899 113.27 104.351C113.236 104.359 113.201 104.36 113.166 104.354C113.132 104.348 113.099 104.335 113.069 104.316C113.04 104.297 113.015 104.273 112.995 104.244C112.975 104.216 112.961 104.183 112.953 104.149C112.946 104.115 112.945 104.08 112.952 104.045C112.958 104.011 112.971 103.978 112.99 103.949C113.01 103.92 113.034 103.895 113.063 103.875C113.092 103.855 113.125 103.842 113.159 103.835C115.245 103.386 116.653 103.718 116.927 104.724C117.202 105.737 116.085 107.248 113.739 108.025C113.711 108.034 113.683 108.038 113.656 108.038L113.656 108.038Z" fill="#4E2A09"/>
<path d="M105.395 112.493C103.367 112.587 101.908 111.439 101.689 109.214C101.398 106.255 97.9898 106.046 98.1173 110.421C98.2084 113.549 101.57 116.993 105.395 115.367C107.863 114.318 107.092 112.414 105.395 112.493V112.493Z" fill="white"/>
<path d="M103.42 116.044C102.461 116.044 101.519 115.765 100.656 115.212C99.0073 114.156 97.9072 112.277 97.8533 110.427C97.7779 107.842 98.87 106.853 99.828 106.792C100.759 106.733 101.789 107.536 101.951 109.187C102.147 111.182 103.431 112.321 105.383 112.228C106.289 112.186 107.037 112.66 107.201 113.382C107.352 114.044 106.984 114.976 105.498 115.608C104.812 115.9 104.112 116.044 103.42 116.044L103.42 116.044ZM99.922 107.317C99.9018 107.317 99.8817 107.318 99.8617 107.319C99.0812 107.369 98.3205 108.344 98.3808 110.411C98.429 112.067 99.4578 113.818 100.941 114.768C102.274 115.623 103.819 115.748 105.292 115.122C106.478 114.618 106.79 113.953 106.687 113.5C106.58 113.031 106.055 112.722 105.407 112.755C105.327 112.759 105.248 112.76 105.169 112.76C103.067 112.761 101.642 111.43 101.426 109.238C101.302 107.974 100.571 107.317 99.922 107.317V107.317ZM78.7163 103.29C78.6677 103.29 78.62 103.276 78.5785 103.251C78.5371 103.226 78.5034 103.189 78.4813 103.146C75.1649 96.6598 75.068 88.5125 78.2287 81.8836C80.8873 76.3076 85.3941 72.5943 90.9192 71.4276C90.9531 71.4204 90.9881 71.42 91.0221 71.4264C91.0562 71.4327 91.0886 71.4457 91.1177 71.4647C91.1467 71.4836 91.1717 71.508 91.1913 71.5366C91.2109 71.5652 91.2246 71.5974 91.2318 71.6313C91.239 71.6652 91.2394 71.7002 91.233 71.7342C91.2266 71.7683 91.2136 71.8008 91.1947 71.8298C91.1758 71.8588 91.1514 71.8839 91.1228 71.9035C91.0942 71.923 91.062 71.9368 91.0281 71.944C85.6676 73.0758 81.2912 76.6865 78.7049 82.1108C75.6133 88.5945 75.7078 96.5627 78.951 102.906C78.9716 102.946 78.9815 102.991 78.9798 103.036C78.9781 103.081 78.9648 103.125 78.9412 103.164C78.9177 103.202 78.8846 103.234 78.8453 103.256C78.8059 103.278 78.7615 103.29 78.7163 103.29Z" fill="#4E2A09"/>
<path d="M110.634 188.076C114.141 186.311 117.714 182.574 121.283 179.253C128.567 172.297 137.632 163.64 149.167 160.599C154.802 159.113 160.576 162.479 162.061 168.116C163.546 173.753 160.182 179.526 154.546 181.012C148.272 182.666 141.96 188.693 135.857 194.522C133.219 197.061 130.486 199.679 127.611 201.995L94.8843 202.019" fill="white"/>
<path d="M94.8845 202.281C94.8145 202.281 94.7474 202.253 94.6979 202.203C94.6484 202.154 94.6206 202.087 94.6206 202.017C94.6206 201.947 94.6484 201.88 94.6978 201.83C94.7473 201.781 94.8144 201.753 94.8844 201.753L127.518 201.729C130.441 199.367 133.22 196.692 135.674 194.33C141.802 188.477 148.139 182.427 154.479 180.755C157.136 180.055 159.362 178.361 160.746 175.986C162.13 173.611 162.506 170.839 161.806 168.181C161.105 165.523 159.412 163.297 157.038 161.913C154.663 160.529 151.892 160.152 149.235 160.853C137.765 163.876 128.727 172.507 121.465 179.443C120.83 180.033 120.187 180.645 119.565 181.237C116.668 183.992 113.672 186.841 110.753 188.31C110.722 188.325 110.688 188.335 110.654 188.337C110.619 188.34 110.584 188.336 110.551 188.325C110.518 188.314 110.488 188.297 110.462 188.274C110.436 188.251 110.414 188.224 110.398 188.193C110.383 188.162 110.374 188.128 110.371 188.094C110.368 188.059 110.373 188.024 110.384 187.991C110.394 187.958 110.412 187.928 110.434 187.902C110.457 187.876 110.485 187.854 110.515 187.838C113.365 186.404 116.332 183.583 119.201 180.854C119.825 180.262 120.469 179.649 121.104 179.058C128.407 172.084 137.499 163.401 149.101 160.342C151.894 159.606 154.807 160.001 157.304 161.457C159.8 162.912 161.58 165.252 162.316 168.047C163.053 170.841 162.657 173.755 161.202 176.252C159.747 178.748 157.407 180.529 154.614 181.265C148.405 182.902 142.119 188.905 136.04 194.711C133.558 197.099 130.744 199.808 127.777 202.198C127.731 202.236 127.672 202.257 127.612 202.257L94.885 202.281H94.8849L94.8845 202.281Z" fill="#4E2A09"/>
<path d="M153.987 172.767C155.433 172.498 162.996 171.802 164.152 173.087C165.297 174.358 165.315 178.5 164.367 179.907C163.581 181.075 156.875 180.933 154.947 181.044C152.093 181.209 151.584 176.741 154.352 176.362C155.852 176.157 160.486 175.721 160.486 175.721" fill="white"/>
<path d="M154.796 181.314C153.294 181.314 152.392 180.107 152.272 178.869C152.157 177.686 152.748 176.316 154.316 176.102C155.805 175.898 160.415 175.464 160.462 175.459C160.531 175.453 160.601 175.474 160.655 175.519C160.709 175.564 160.742 175.628 160.749 175.697C160.756 175.767 160.734 175.837 160.69 175.89C160.645 175.944 160.581 175.978 160.511 175.985C160.465 175.989 155.865 176.423 154.388 176.625C153.158 176.793 152.703 177.848 152.797 178.818C152.894 179.818 153.605 180.859 154.932 180.782C155.319 180.76 155.899 180.748 156.57 180.733C158.85 180.685 163.595 180.584 164.148 179.762C165.003 178.492 165.032 174.461 163.956 173.265C162.952 172.15 155.756 172.707 154.035 173.028C154.001 173.035 153.966 173.034 153.932 173.027C153.898 173.02 153.866 173.006 153.837 172.987C153.809 172.967 153.784 172.942 153.766 172.913C153.747 172.884 153.734 172.851 153.728 172.817C153.721 172.783 153.722 172.748 153.729 172.714C153.736 172.68 153.75 172.648 153.769 172.62C153.789 172.591 153.814 172.567 153.843 172.548C153.872 172.529 153.904 172.516 153.939 172.509C154.667 172.374 162.976 171.387 164.348 172.912C165.594 174.297 165.569 178.596 164.586 180.056C163.934 181.026 160.427 181.179 156.581 181.261C155.915 181.275 155.34 181.287 154.962 181.309C154.906 181.312 154.851 181.314 154.796 181.314V181.314Z" fill="#4E2A09"/>
<path d="M153.856 168.625C155.302 168.355 162.865 167.659 164.021 168.944C165.166 170.216 165.184 174.357 164.237 175.765C163.451 176.932 156.745 176.79 154.816 176.902C151.963 177.067 151.454 172.598 154.221 172.219C155.721 172.014 160.356 171.578 160.356 171.578" fill="white"/>
<path d="M154.665 177.169C153.163 177.169 152.261 175.962 152.141 174.724C152.026 173.542 152.617 172.172 154.185 171.957C155.674 171.754 160.284 171.319 160.331 171.315C160.399 171.31 160.467 171.333 160.52 171.377C160.572 171.422 160.605 171.485 160.611 171.554C160.618 171.622 160.597 171.69 160.554 171.744C160.511 171.798 160.449 171.832 160.38 171.84C160.334 171.845 155.734 172.278 154.257 172.48C153.027 172.648 152.572 173.703 152.666 174.673C152.763 175.673 153.476 176.714 154.801 176.638C155.189 176.615 155.768 176.603 156.439 176.589C158.719 176.54 163.464 176.439 164.017 175.617C164.872 174.348 164.901 170.316 163.825 169.12C162.821 168.005 155.625 168.563 153.904 168.884C153.87 168.89 153.835 168.89 153.801 168.883C153.767 168.876 153.735 168.862 153.707 168.842C153.678 168.823 153.654 168.797 153.635 168.768C153.616 168.739 153.603 168.707 153.597 168.673C153.59 168.639 153.591 168.604 153.598 168.57C153.605 168.536 153.619 168.504 153.638 168.475C153.658 168.446 153.683 168.422 153.712 168.403C153.741 168.384 153.774 168.371 153.808 168.365C154.536 168.229 162.845 167.242 164.217 168.767C165.464 170.152 165.438 174.452 164.455 175.912C163.803 176.881 160.296 177.035 156.45 177.116C155.784 177.13 155.209 177.143 154.832 177.165C154.776 177.168 154.72 177.169 154.665 177.169Z" fill="#4E2A09"/>
<path d="M154.112 164.324C155.558 164.054 163.121 163.358 164.277 164.643C165.422 165.915 165.44 170.056 164.492 171.464C163.707 172.631 157.001 172.489 155.072 172.601C152.218 172.766 151.71 168.297 154.477 167.919C155.977 167.714 160.612 167.277 160.612 167.277" fill="white"/>
<path d="M154.921 172.87C153.419 172.87 152.517 171.663 152.397 170.425C152.282 169.243 152.873 167.873 154.441 167.658C155.93 167.455 160.54 167.02 160.587 167.016C160.621 167.013 160.656 167.016 160.689 167.026C160.722 167.037 160.753 167.053 160.78 167.075C160.807 167.098 160.829 167.125 160.845 167.155C160.861 167.186 160.871 167.219 160.874 167.254C160.878 167.288 160.874 167.323 160.864 167.356C160.854 167.39 160.837 167.42 160.815 167.447C160.793 167.474 160.766 167.496 160.735 167.512C160.704 167.528 160.671 167.538 160.636 167.541C160.59 167.546 155.99 167.979 154.513 168.181C153.283 168.35 152.828 169.404 152.922 170.374C153.019 171.374 153.733 172.415 155.057 172.339C155.445 172.316 156.024 172.304 156.695 172.29C158.975 172.241 163.72 172.14 164.274 171.318C165.128 170.049 165.158 166.017 164.081 164.821C163.078 163.706 155.881 164.264 154.16 164.585C154.126 164.591 154.091 164.591 154.057 164.584C154.024 164.576 153.991 164.563 153.963 164.543C153.934 164.523 153.91 164.498 153.891 164.469C153.872 164.44 153.859 164.408 153.853 164.374C153.846 164.34 153.847 164.305 153.854 164.271C153.861 164.237 153.875 164.205 153.895 164.176C153.914 164.148 153.939 164.123 153.968 164.104C153.997 164.085 154.03 164.072 154.064 164.066C154.792 163.93 163.101 162.943 164.473 164.468C165.72 165.853 165.694 170.153 164.711 171.613C164.059 172.582 160.552 172.736 156.706 172.818C156.04 172.832 155.465 172.844 155.088 172.866C155.032 172.869 154.976 172.871 154.921 172.871V172.87Z" fill="#4E2A09"/>
<path d="M149.167 160.599C155.008 159.005 160.94 158.732 162.277 159.086C165.167 159.851 170.629 160.991 172.558 161.669C176.25 162.966 174.657 168.458 170.647 167.282C167.719 166.423 161.997 165.218 161.997 165.218L153.523 166.644" fill="white"/>
<path d="M171.729 167.71C171.369 167.71 170.984 167.655 170.573 167.535C167.831 166.731 162.556 165.606 161.992 165.486L153.567 166.904C153.499 166.913 153.431 166.896 153.376 166.855C153.321 166.814 153.283 166.754 153.272 166.686C153.261 166.619 153.276 166.55 153.315 166.493C153.353 166.437 153.412 166.398 153.479 166.384L161.954 164.957C161.986 164.952 162.02 164.953 162.052 164.959C162.109 164.971 167.817 166.177 170.722 167.029C172.596 167.578 173.836 166.576 174.234 165.34C174.624 164.127 174.239 162.539 172.47 161.918C171.296 161.505 168.775 160.914 166.338 160.343C164.787 159.979 163.323 159.636 162.209 159.341C160.88 158.989 154.945 159.296 149.237 160.853C149.17 160.872 149.098 160.863 149.037 160.828C148.976 160.793 148.932 160.736 148.913 160.668C148.895 160.601 148.904 160.529 148.939 160.468C148.973 160.407 149.031 160.363 149.098 160.344C155.14 158.696 161.018 158.48 162.344 158.831C163.451 159.124 164.912 159.466 166.458 159.829C168.909 160.403 171.444 160.997 172.645 161.42C174.653 162.125 175.217 164.007 174.736 165.501C174.361 166.667 173.298 167.71 171.728 167.71L171.729 167.71Z" fill="#4E2A09"/>
<path d="M140.391 167.219C141.525 166.242 145.688 164.344 147.335 164.014C148.981 163.683 157.073 163.246 158.722 163.192C162.663 163.061 163.084 168.661 158.9 168.837C156.792 168.926 150.181 169.598 150.181 169.598C150.81 171.952 148.994 175.459 146.333 176.26" fill="white"/>
<path d="M146.333 176.522C146.269 176.522 146.208 176.499 146.16 176.458C146.112 176.416 146.081 176.359 146.071 176.296C146.062 176.234 146.076 176.17 146.11 176.116C146.144 176.063 146.196 176.024 146.257 176.005C148.884 175.215 150.497 171.801 149.926 169.664C149.916 169.627 149.915 169.589 149.921 169.551C149.928 169.514 149.942 169.478 149.964 169.447C149.986 169.415 150.014 169.389 150.047 169.369C150.08 169.35 150.116 169.338 150.154 169.334C150.221 169.327 156.797 168.66 158.889 168.572C160.824 168.49 161.643 167.198 161.596 165.953C161.548 164.665 160.552 163.39 158.731 163.454C156.987 163.512 148.997 163.947 147.387 164.271C145.724 164.604 141.643 166.487 140.563 167.417C140.537 167.44 140.507 167.457 140.474 167.468C140.441 167.479 140.406 167.483 140.372 167.481C140.337 167.478 140.304 167.469 140.273 167.453C140.242 167.438 140.214 167.416 140.191 167.39C140.169 167.364 140.152 167.333 140.141 167.3C140.13 167.267 140.126 167.233 140.128 167.198C140.131 167.164 140.14 167.13 140.156 167.099C140.171 167.068 140.193 167.04 140.219 167.018C141.367 166.028 145.526 164.106 147.283 163.753C148.919 163.425 156.96 162.984 158.713 162.926C160.874 162.854 162.065 164.385 162.124 165.933C162.179 167.39 161.197 169.003 158.911 169.099C157.088 169.176 151.81 169.698 150.503 169.829C150.708 170.976 150.425 172.374 149.721 173.638C148.923 175.07 147.716 176.117 146.409 176.511C146.384 176.518 146.358 176.522 146.332 176.522L146.333 176.522Z" fill="#4E2A09"/>
<path d="M127.055 173.863C127.268 178.505 131.886 188.059 140.395 190.252C142.089 188.652 144.118 186.988 146.25 185.354C137.742 183.162 132.958 173.765 132.744 169.123C130.645 170.789 128.695 172.341 127.055 173.863Z" fill="white"/>
<path d="M140.395 190.516C140.373 190.516 140.351 190.513 140.329 190.507C131.722 188.289 127.011 178.649 126.791 173.875C126.79 173.837 126.796 173.798 126.811 173.763C126.825 173.727 126.847 173.695 126.875 173.669C128.554 172.111 130.601 170.487 132.58 168.917C132.618 168.886 132.664 168.867 132.712 168.861C132.761 168.855 132.809 168.863 132.854 168.883C132.898 168.903 132.936 168.935 132.963 168.975C132.99 169.016 133.006 169.063 133.008 169.111C133.123 171.616 134.534 175.107 136.601 178.004C138.433 180.571 141.605 183.885 146.316 185.099C146.364 185.111 146.407 185.137 146.442 185.173C146.476 185.208 146.499 185.253 146.509 185.302C146.519 185.35 146.515 185.401 146.497 185.447C146.48 185.493 146.45 185.534 146.41 185.564C144.035 187.383 142.127 188.98 140.576 190.444C140.527 190.49 140.462 190.516 140.395 190.516ZM127.325 173.972C127.609 178.62 132.126 187.758 140.32 189.959C141.772 188.598 143.527 187.124 145.67 185.468C141.089 184.114 137.988 180.854 136.172 178.31C134.183 175.524 132.786 172.186 132.519 169.639C130.707 171.078 128.862 172.555 127.325 173.972H127.325Z" fill="#4E2A09"/>
<path d="M82.2005 120.5L86.1229 124.623C86.1229 124.623 81.0351 155.456 79.6115 160.545C78.1877 165.634 75.4865 194.912 76.414 201.994H50.5869L54.1528 158.576C54.1528 158.576 46.8859 137.105 58.6303 124.122C63.6407 119.568 82.2007 120.5 82.2007 120.5H82.2005Z" fill="white"/>
<path d="M76.4139 202.257H50.5868C50.5503 202.257 50.5142 202.25 50.4808 202.235C50.4474 202.221 50.4173 202.199 50.3926 202.172C50.3679 202.146 50.349 202.114 50.3372 202.079C50.3254 202.045 50.3209 202.008 50.3239 201.972L53.8854 158.606C53.6971 158.028 52.052 152.81 51.7239 146.23C51.5202 142.145 51.8554 138.339 52.7203 134.917C53.804 130.63 55.7267 126.938 58.4348 123.944C58.4404 123.938 58.4466 123.932 58.453 123.926C63.4867 119.351 81.4515 120.198 82.2139 120.236C82.2814 120.239 82.3451 120.269 82.3918 120.318L86.3142 124.44C86.3713 124.5 86.3969 124.583 86.3833 124.665C86.3324 124.974 81.277 155.571 79.8657 160.615C78.4429 165.7 75.7392 194.809 76.6757 201.959C76.6805 201.996 76.6773 202.034 76.6664 202.07C76.6555 202.106 76.6371 202.139 76.6123 202.167C76.5876 202.196 76.5571 202.218 76.523 202.234C76.4888 202.249 76.4517 202.257 76.4142 202.257H76.4139ZM50.8732 201.73H76.1169C75.2832 194.066 77.9467 165.516 79.3575 160.473C80.7144 155.623 85.4793 126.897 85.8413 124.709L82.0827 120.759C80.5779 120.694 63.5111 120.065 58.8173 124.308C52.8221 130.943 51.9368 139.869 52.2502 146.19C52.5911 153.066 54.3846 158.437 54.4026 158.49C54.4141 158.524 54.4186 158.56 54.4157 158.596L50.8733 201.73L50.8732 201.73Z" fill="#4E2A09"/>
<path d="M111.315 151.397C111.315 151.397 112.705 160.544 112.328 165.769C112.05 169.622 109.849 173.088 108.996 175.413C107.124 180.515 104.904 201.993 104.904 201.993H91.1934C91.1934 201.993 96.2268 164.9 97.2755 157.258C98.3241 149.616 96.6647 126.112 96.6647 126.112L98.6324 123.859C105.327 126.07 117.612 129.366 119.841 137.541" fill="white"/>
<path d="M104.904 202.258H91.1932C91.1556 202.257 91.1184 202.249 91.0842 202.234C91.0499 202.218 91.0194 202.196 90.9946 202.167C90.9699 202.139 90.9515 202.105 90.9406 202.069C90.9298 202.033 90.9268 201.995 90.9318 201.958C90.9822 201.587 95.9772 164.777 97.0139 157.222C98.0469 149.695 96.4179 126.366 96.4013 126.131C96.3989 126.097 96.4033 126.062 96.4144 126.029C96.4255 125.996 96.4429 125.965 96.4658 125.939L98.4335 123.686C98.4676 123.647 98.5125 123.619 98.5626 123.605C98.6126 123.591 98.6656 123.593 98.7148 123.609C99.2545 123.787 99.8305 123.972 100.435 124.167C107.433 126.418 118.009 129.819 120.096 137.472C120.114 137.539 120.105 137.611 120.07 137.672C120.036 137.733 119.978 137.777 119.911 137.796C119.843 137.814 119.771 137.805 119.71 137.77C119.65 137.736 119.605 137.678 119.587 137.611C117.575 130.234 107.163 126.885 100.273 124.669C99.7293 124.494 99.2083 124.327 98.7158 124.165L96.9353 126.204C97.0562 127.96 98.5402 149.981 97.5366 157.294C96.55 164.485 91.9764 198.185 91.4953 201.73H104.666C104.926 199.253 106.97 180.169 108.748 175.323C108.991 174.661 109.344 173.902 109.718 173.098C110.676 171.039 111.868 168.477 112.065 165.75C112.435 160.614 111.068 151.529 111.054 151.438C111.043 151.368 111.061 151.298 111.102 151.242C111.144 151.185 111.206 151.148 111.275 151.137C111.344 151.127 111.415 151.144 111.471 151.185C111.528 151.227 111.565 151.289 111.576 151.358C111.589 151.45 112.966 160.594 112.591 165.789C112.387 168.612 111.172 171.223 110.196 173.321C109.827 174.114 109.478 174.864 109.243 175.504C107.404 180.518 105.188 201.807 105.166 202.021C105.159 202.086 105.129 202.146 105.08 202.19C105.032 202.234 104.969 202.258 104.904 202.258L104.904 202.258Z" fill="#4E2A09"/>
<path d="M65.5839 147.263C62.3107 151.614 59.3892 156.965 57.2423 162.676C53.8861 171.606 52.7386 180.416 54.1731 186.245C55.8809 192.783 50.6508 199.408 43.9181 199.325C39.1748 199.325 34.8643 196.104 33.6796 191.291C30.927 180.066 33.1676 166.71 37.487 155.248C41.872 143.51 49.2867 131.682 58.63 124.121" fill="white"/>
<path d="M44.0445 199.59C44.0013 199.59 43.9583 199.59 43.9149 199.589C38.9325 199.589 34.6169 196.203 33.4235 191.354C32.1129 186.01 31.8592 179.944 32.6695 173.327C33.3864 167.471 34.967 161.188 37.2402 155.155C42.0256 142.346 49.7615 130.959 58.4642 123.916C58.5186 123.872 58.5883 123.852 58.6578 123.859C58.7274 123.866 58.7913 123.901 58.8353 123.955C58.8793 124.01 58.8999 124.079 58.8925 124.149C58.8852 124.219 58.8505 124.282 58.7961 124.326C50.1645 131.312 42.4879 142.616 37.7344 155.341C34.8838 162.905 30.6003 177.625 33.936 191.228C35.071 195.84 39.176 199.062 43.9182 199.062C47.0607 199.097 50.0124 197.651 52.0188 195.086C54.0154 192.533 54.7075 189.335 53.9179 186.312C52.4702 180.43 53.6211 171.561 56.9954 162.584C59.1295 156.906 62.0265 151.553 65.3731 147.104C65.4159 147.051 65.478 147.016 65.5463 147.007C65.6145 146.998 65.6835 147.016 65.7384 147.058C65.7934 147.099 65.8301 147.16 65.8406 147.228C65.8511 147.296 65.8347 147.366 65.7948 147.422C62.4781 151.831 59.6061 157.138 57.4894 162.77C54.1511 171.651 53.0072 180.403 54.4294 186.182C55.2601 189.362 54.5334 192.727 52.4346 195.411C50.3536 198.072 47.3016 199.59 44.0448 199.59H44.0445Z" fill="#4E2A09"/>
<path d="M83.5893 115.924C83.5893 115.924 83.2331 120.968 86.1228 124.623L80.2848 132.019C78.1001 130.425 76.7599 124.381 77.8127 120.122L83.5893 115.924Z" fill="white"/>
<path d="M80.2846 132.281C80.2288 132.281 80.1744 132.263 80.1294 132.23C77.7873 130.521 76.489 124.377 77.5566 120.056C77.5715 119.996 77.6073 119.943 77.6577 119.906L83.4342 115.708C83.4748 115.679 83.523 115.662 83.5731 115.659C83.6232 115.656 83.6732 115.667 83.7171 115.691C83.761 115.716 83.7971 115.752 83.821 115.796C83.845 115.84 83.8559 115.89 83.8524 115.94C83.849 115.99 83.5397 120.928 86.3298 124.458C86.3666 124.504 86.3867 124.562 86.3867 124.621C86.3867 124.681 86.3666 124.738 86.3298 124.785L80.4917 132.181C80.467 132.212 80.4355 132.237 80.3996 132.255C80.3637 132.272 80.3244 132.281 80.2845 132.281L80.2846 132.281ZM78.0463 120.276C77.1112 124.218 78.2242 129.874 80.2424 131.645L85.788 124.62C83.5174 121.621 83.3036 117.85 83.3095 116.451L78.0463 120.276Z" fill="#4E2A09"/>
<path d="M99.507 120.793L103.814 125.46C103.814 125.46 101.518 133.071 100.1 134.01L96.6646 126.113C97.9913 124.717 98.9178 123.489 99.507 120.793Z" fill="white"/>
<path d="M100.1 134.274C100.048 134.274 99.998 134.259 99.9551 134.231C99.9121 134.203 99.8783 134.162 99.8578 134.115L96.4225 126.218C96.4018 126.171 96.3956 126.118 96.4047 126.067C96.4137 126.016 96.4376 125.969 96.4733 125.931C97.6804 124.662 98.6512 123.473 99.2492 120.737C99.2595 120.69 99.2825 120.646 99.3158 120.611C99.349 120.576 99.3912 120.551 99.4378 120.539C99.4844 120.526 99.5335 120.526 99.5799 120.54C99.6263 120.553 99.6681 120.579 99.7008 120.614L104.008 125.281C104.071 125.35 104.094 125.447 104.067 125.537C103.829 126.325 101.701 133.267 100.245 134.23C100.202 134.259 100.151 134.274 100.1 134.274V134.274ZM96.9759 126.167L100.195 133.569C101.282 132.328 102.895 127.564 103.518 125.528L99.6503 121.338C99.0388 123.78 98.1115 124.961 96.9759 126.167V126.167Z" fill="#4E2A09"/>
<path d="M51.4871 181.84C51.912 183.755 53.0362 185.125 54.1731 186.246C58.6031 190.614 64.8307 191.556 70.3745 190.644C76.6961 189.703 83.8166 186.978 90.966 182.764C95.9871 179.804 102.456 181.477 105.415 186.499C108.374 191.521 106.702 197.991 101.681 200.951C89.3306 208.069 78.3152 211.935 65.5629 212.125C55.6257 212.117 46.1458 209.155 39.595 202.161C36.7105 199.053 34.665 195.294 33.6799 191.292" fill="white"/>
<path d="M65.5668 212.39C60.3608 212.385 55.5347 211.585 51.2187 210.011C46.5499 208.308 42.5745 205.728 39.4025 202.342C36.4866 199.2 34.4194 195.401 33.4237 191.355C33.4069 191.287 33.4179 191.216 33.4541 191.156C33.4903 191.096 33.5488 191.053 33.6167 191.036C33.6847 191.019 33.7565 191.03 33.8163 191.066C33.8762 191.103 33.9193 191.161 33.936 191.229C34.9104 195.188 36.9341 198.906 39.7883 201.982C47.4261 210.136 58.0205 211.855 65.5631 211.862C77.5496 211.683 88.3131 208.352 101.549 200.722C106.435 197.843 108.068 191.522 105.188 186.633C102.308 181.744 95.988 180.111 91.1 182.991C83.9215 187.223 76.7683 189.959 70.4136 190.905C67.4437 191.394 64.4622 191.317 61.7953 190.682C58.7344 189.953 56.1077 188.524 53.9881 186.434C52.9442 185.405 51.6873 183.959 51.2298 181.898C51.2223 181.864 51.2215 181.829 51.2275 181.795C51.2336 181.76 51.2462 181.728 51.2649 181.699C51.2835 181.669 51.3077 181.644 51.3361 181.624C51.3644 181.604 51.3965 181.59 51.4303 181.583C51.4641 181.575 51.4991 181.574 51.5333 181.58C51.5674 181.586 51.6 181.599 51.6293 181.618C51.6585 181.636 51.6838 181.66 51.7037 181.689C51.7235 181.717 51.7376 181.749 51.745 181.783C52.1725 183.71 53.3663 185.08 54.3585 186.058C58.1999 189.846 64.0216 191.422 70.3319 190.384C76.6241 189.447 83.7116 186.734 90.8323 182.537C95.9707 179.508 102.615 181.226 105.642 186.365C108.67 191.504 106.953 198.15 101.815 201.178C88.4935 208.857 77.6537 212.209 65.5669 212.389L65.5668 212.39Z" fill="#4E2A09"/>
<path d="M88.4619 184.18C93.8278 180.859 101.421 177.88 103.435 179.158C105.792 180.654 107.586 183.601 108.618 185.099C109.851 186.888 107.824 189.023 106.006 190.559C104.952 191.449 103.563 191.599 101.891 189.913C100.828 188.842 102.19 187.015 102.19 187.015L101.074 185.819L95.6869 187.764" fill="white"/>
<path d="M104.379 191.478C103.615 191.478 102.716 191.119 101.703 190.098C100.696 189.083 101.516 187.565 101.853 187.04L101 186.126L95.7762 188.011C95.7434 188.024 95.7085 188.029 95.6734 188.028C95.6384 188.027 95.6039 188.019 95.572 188.004C95.5401 187.99 95.5115 187.969 95.4877 187.943C95.464 187.917 95.4456 187.887 95.4337 187.854C95.4218 187.821 95.4166 187.786 95.4184 187.751C95.4202 187.716 95.429 187.682 95.4442 187.65C95.4594 187.618 95.4808 187.59 95.5071 187.567C95.5333 187.544 95.564 187.526 95.5972 187.515L100.985 185.57C101.033 185.553 101.086 185.55 101.136 185.562C101.186 185.574 101.232 185.601 101.267 185.638L102.383 186.834C102.47 186.927 102.478 187.07 102.401 187.172C102.389 187.188 101.189 188.83 102.078 189.727C103.441 191.1 104.705 191.312 105.835 190.357C108.424 188.17 109.263 186.498 108.401 185.247C108.276 185.066 108.139 184.863 107.992 184.644C106.928 183.06 105.319 180.666 103.293 179.38C101.436 178.201 94.0043 181.059 88.6007 184.403C88.5712 184.421 88.5385 184.433 88.5043 184.439C88.4701 184.445 88.4351 184.443 88.4014 184.435C88.3332 184.419 88.2743 184.377 88.2375 184.317C88.2007 184.258 88.189 184.186 88.205 184.118C88.2211 184.05 88.2635 183.991 88.323 183.954C93.24 180.912 101.276 177.475 103.576 178.934C105.695 180.279 107.341 182.729 108.43 184.35C108.564 184.55 108.699 184.749 108.835 184.948C110.388 187.201 107.218 189.879 106.176 190.76C105.713 191.151 105.108 191.478 104.379 191.478Z" fill="#4E2A09"/>
<path d="M93.592 185.546C95.8693 184.548 101.404 182.322 103.418 183.6C105.775 185.097 107.458 188.552 108.341 190.142C109.396 192.041 107.173 193.972 105.215 195.326C104.081 196.11 102.623 196.173 101.181 194.287C100.255 193.074 100.28 191.086 100.28 191.086L95.6697 192.206" fill="white"/>
<path d="M103.692 196.109C102.888 196.109 101.94 195.714 100.972 194.446C100.227 193.471 100.062 192.06 100.026 191.419L95.7321 192.462C95.6985 192.47 95.6635 192.472 95.6293 192.467C95.5951 192.461 95.5622 192.449 95.5326 192.431C95.503 192.413 95.4773 192.389 95.4568 192.362C95.4364 192.334 95.4216 192.302 95.4135 192.268C95.4053 192.234 95.4038 192.2 95.4091 192.165C95.4144 192.131 95.4264 192.098 95.4445 192.069C95.4625 192.039 95.4862 192.013 95.5141 191.993C95.5421 191.972 95.5738 191.958 95.6075 191.949L100.218 190.829C100.257 190.82 100.297 190.819 100.337 190.828C100.376 190.837 100.413 190.854 100.444 190.879C100.476 190.904 100.501 190.936 100.518 190.972C100.535 191.009 100.544 191.048 100.544 191.089C100.543 191.108 100.533 193.002 101.391 194.126C102.543 195.634 103.813 195.974 105.065 195.108C107.852 193.181 108.848 191.598 108.11 190.27C108.015 190.098 107.91 189.904 107.796 189.694C106.871 187.984 105.322 185.121 103.276 183.823C101.953 182.983 98.4621 183.699 93.698 185.787C93.6343 185.813 93.563 185.813 93.4993 185.787C93.4356 185.762 93.3845 185.712 93.3569 185.649C93.3293 185.586 93.3274 185.515 93.3515 185.45C93.3757 185.386 93.424 185.333 93.4862 185.304C96.382 184.035 101.541 182.096 103.559 183.377C105.721 184.749 107.31 187.687 108.26 189.443C108.373 189.651 108.477 189.843 108.572 190.014C109.9 192.406 106.487 194.766 105.365 195.542C104.964 195.819 104.381 196.109 103.692 196.109H103.692Z" fill="#4E2A09"/>
<path d="M93.7197 190.989C95.997 189.991 101.532 187.766 103.545 189.044C105.903 190.54 107.586 193.996 108.469 195.586C109.524 197.485 107.3 199.415 105.343 200.769C104.208 201.554 102.75 201.617 101.309 199.73C100.383 198.518 100.408 196.529 100.408 196.529L95.7974 197.65" fill="white"/>
<path d="M103.82 201.552C103.016 201.552 102.068 201.158 101.099 199.89C100.354 198.914 100.189 197.503 100.153 196.862L95.8597 197.906C95.826 197.914 95.7911 197.915 95.7569 197.91C95.7226 197.905 95.6898 197.893 95.6602 197.875C95.6306 197.857 95.6048 197.833 95.5844 197.805C95.5639 197.777 95.5492 197.745 95.541 197.712C95.5328 197.678 95.5314 197.643 95.5367 197.609C95.542 197.575 95.554 197.542 95.572 197.512C95.5901 197.482 95.6137 197.457 95.6417 197.436C95.6697 197.416 95.7014 197.401 95.7351 197.393L100.345 196.272C100.384 196.263 100.425 196.263 100.464 196.271C100.503 196.28 100.54 196.297 100.572 196.322C100.603 196.348 100.628 196.379 100.646 196.416C100.663 196.452 100.672 196.492 100.671 196.532C100.671 196.551 100.66 198.445 101.519 199.569C102.67 201.077 103.941 201.417 105.193 200.551C107.979 198.624 108.976 197.041 108.238 195.713C108.132 195.522 108.028 195.33 107.924 195.138C106.999 193.427 105.45 190.565 103.404 189.266C102.081 188.427 98.5898 189.143 93.8254 191.231C93.7617 191.257 93.6905 191.257 93.6268 191.231C93.5631 191.205 93.512 191.155 93.4844 191.092C93.4568 191.029 93.4548 190.958 93.479 190.893C93.5031 190.829 93.5514 190.777 93.6136 190.747C96.5096 189.478 101.669 187.54 103.687 188.821C105.848 190.193 107.438 193.131 108.388 194.886C108.491 195.077 108.595 195.267 108.699 195.457C110.027 197.849 106.614 200.21 105.493 200.985C105.092 201.263 104.508 201.552 103.82 201.552L103.82 201.552Z" fill="#4E2A09"/>
<path d="M94.5051 196.503C96.2179 195.795 102.433 193.872 103.865 194.85C105.305 195.834 107.309 202.498 106.782 203.44C106.05 204.747 100.991 206.101 99.9723 206.41C97.7787 207.074 96.675 204.049 97.0588 203.465C98.2968 202.811 99.6188 202.331 101.011 201.995C99.289 202.416 97.7284 202.975 95.9975 204.071" fill="white"/>
<path d="M99.354 206.769C98.625 206.769 97.9592 206.402 97.4324 205.697C97.0214 205.146 96.7613 204.464 96.7246 203.939C96.5268 204.053 96.3314 204.172 96.1387 204.294C96.0796 204.329 96.0093 204.34 95.9425 204.324C95.8758 204.308 95.8179 204.266 95.7812 204.208C95.7445 204.15 95.7318 204.08 95.7458 204.013C95.7598 203.946 95.7994 203.887 95.8562 203.848C97.2715 202.952 98.6586 202.349 100.411 201.876C100.588 201.828 100.768 201.782 100.949 201.738C101.017 201.722 101.088 201.733 101.148 201.769C101.208 201.806 101.251 201.864 101.267 201.932C101.284 202 101.273 202.072 101.236 202.132C101.2 202.192 101.141 202.234 101.073 202.251C101.073 202.251 101.073 202.251 101.072 202.251C100.894 202.295 100.716 202.341 100.538 202.389C99.3638 202.709 98.2634 203.135 97.2595 203.658C97.1954 203.897 97.332 204.68 97.8553 205.381C98.2424 205.9 98.9108 206.455 99.8959 206.157C99.9943 206.127 100.13 206.088 100.296 206.04C101.693 205.634 105.943 204.399 106.552 203.311C106.726 202.999 106.492 201.355 105.81 199.242C105.121 197.104 104.298 195.466 103.716 195.068C102.48 194.224 96.6977 195.882 94.6059 196.747C94.5413 196.773 94.469 196.773 94.4046 196.746C94.3403 196.719 94.2893 196.668 94.2627 196.603C94.236 196.539 94.236 196.466 94.2626 196.402C94.2892 196.337 94.3402 196.286 94.4045 196.259C95.3359 195.874 102.301 193.462 104.013 194.632C105.563 195.691 107.618 202.488 107.013 203.569C106.379 204.7 103.169 205.754 100.443 206.546C100.28 206.594 100.146 206.633 100.049 206.662C99.8127 206.734 99.5802 206.769 99.3541 206.769H99.354Z" fill="#4E2A09"/>
<path d="M74.4355 189.822C72.8973 194.207 73.6893 204.802 80.7601 210.02C83.0423 209.421 85.4478 208.611 87.933 207.663C80.8621 202.446 79.9618 191.865 81.4999 187.48C78.9827 188.476 76.5898 189.308 74.4353 189.822L74.4355 189.822Z" fill="white"/>
<path d="M80.7603 210.283C80.7045 210.283 80.6494 210.266 80.6035 210.232C73.4063 204.921 72.6101 194.229 74.1865 189.735C74.2011 189.693 74.226 189.656 74.2587 189.626C74.2915 189.597 74.3312 189.576 74.3741 189.566C76.3076 189.104 78.6067 188.341 81.4029 187.235C81.4499 187.217 81.5013 187.212 81.551 187.222C81.6006 187.232 81.6463 187.255 81.6828 187.29C81.7193 187.326 81.7449 187.37 81.7566 187.42C81.7683 187.469 81.7656 187.52 81.7489 187.568C80.9171 189.939 80.9154 193.72 81.7447 197.198C82.4798 200.282 84.1773 204.564 88.0897 207.451C88.1277 207.479 88.1575 207.517 88.1759 207.56C88.1943 207.604 88.2006 207.652 88.1942 207.699C88.1878 207.746 88.1689 207.79 88.1395 207.827C88.1101 207.864 88.0712 207.893 88.027 207.91C85.3296 208.939 82.9746 209.712 80.827 210.275C80.8052 210.281 80.7827 210.284 80.7601 210.283L80.7603 210.283ZM74.6384 190.045C73.8469 192.437 73.8396 196.145 74.6266 199.549C75.3344 202.612 76.9826 206.851 80.8159 209.732C82.7931 209.208 84.9511 208.504 87.3953 207.585C83.625 204.613 81.9628 200.389 81.2316 197.321C80.4397 193.999 80.3912 190.395 81.0833 187.928C78.5598 188.909 76.4454 189.604 74.6384 190.045Z" fill="#4E2A09"/>
</g>
<g clip-path="url(#clip3_2061_27151)">
<path d="M184.54 201.809C184.381 197.915 184.087 193.481 183.777 188.818C182.305 166.624 180.636 141.468 188.765 124.889C197.705 108.339 221.837 120.148 214.225 137.381C209.402 146.36 211.091 173.998 212.072 186.94C212.437 192.432 212.763 197.112 212.918 201.809H184.54V201.809Z" fill="white"/>
<path d="M212.918 202.072H184.54C184.472 202.072 184.407 202.046 184.358 201.999C184.309 201.952 184.28 201.887 184.277 201.819C184.117 197.925 183.824 193.51 183.514 188.836C182.04 166.608 180.369 141.415 188.528 124.773C193.225 116.078 201.82 115.289 207.821 118.231C213.819 121.172 218.457 128.453 214.466 137.488C214.463 137.494 214.46 137.5 214.457 137.506C212.389 141.357 211.305 149.152 211.236 160.676C211.192 167.999 211.552 176.584 212.335 186.921L212.429 188.327C212.757 193.251 213.04 197.504 213.182 201.8C213.183 201.835 213.177 201.871 213.164 201.904C213.151 201.937 213.132 201.967 213.108 201.992C213.083 202.018 213.053 202.038 213.021 202.052C212.988 202.065 212.953 202.073 212.918 202.072H212.918ZM184.794 201.545H212.645C212.501 197.35 212.223 193.177 211.903 188.362L211.809 186.958C209.798 160.436 210.531 143.716 213.988 137.265C217.83 128.553 213.366 121.537 207.589 118.705C201.807 115.87 193.523 116.636 188.997 125.015C180.904 141.52 182.57 166.639 184.04 188.8C184.344 193.378 184.631 197.706 184.794 201.545V201.545Z" fill="#4E2A09"/>
<path d="M203.243 146.187C205.358 161.712 203.696 183.008 204.011 194.157C204.12 198 206.643 201.808 206.643 201.808H273.581C273.581 201.808 276.316 197.987 275.539 193.357C272.881 177.529 270.408 156.733 266.143 144.389C272.972 139.141 273.152 114.157 266.636 108.423C256.237 99.1365 238.816 104.769 233.575 107.967L214.847 114.706C206.709 113.845 195.05 112.447 188.765 124.889" fill="white"/>
<path d="M273.581 202.072H206.643C206.6 202.072 206.557 202.062 206.518 202.041C206.48 202.02 206.447 201.991 206.423 201.954C206.319 201.796 203.857 198.039 203.748 194.164C203.645 190.546 203.749 185.965 203.868 180.661C204.109 169.984 204.409 156.697 202.981 146.223C202.977 146.189 202.979 146.154 202.988 146.12C202.997 146.087 203.012 146.056 203.033 146.028C203.054 146 203.08 145.977 203.11 145.96C203.14 145.942 203.173 145.931 203.207 145.926C203.241 145.921 203.276 145.923 203.31 145.932C203.344 145.941 203.375 145.956 203.403 145.977C203.43 145.998 203.453 146.024 203.471 146.054C203.488 146.084 203.5 146.118 203.504 146.152C204.937 156.668 204.637 169.978 204.396 180.673C204.276 185.969 204.173 190.544 204.275 194.149C204.37 197.5 206.372 200.878 206.788 201.545H273.44C273.866 200.892 275.956 197.436 275.279 193.401C274.654 189.683 274.05 185.757 273.411 181.6C271.316 167.981 269.15 153.898 265.894 144.476C265.876 144.423 265.875 144.367 265.89 144.314C265.906 144.261 265.938 144.214 265.982 144.18C268.879 141.954 270.842 135.651 271.105 127.731C271.347 120.465 270.004 111.738 266.462 108.621C260.885 103.64 253.452 103.237 248.199 103.776C242.213 104.39 236.493 106.496 233.712 108.193C233.697 108.202 233.681 108.21 233.664 108.216L214.936 114.954C214.899 114.968 214.859 114.973 214.819 114.969L214.52 114.937C206.336 114.069 195.127 112.881 189.001 125.008C188.969 125.071 188.914 125.118 188.848 125.14C188.781 125.162 188.709 125.156 188.647 125.125C188.584 125.093 188.537 125.038 188.515 124.971C188.493 124.905 188.499 124.833 188.53 124.77C191.315 119.257 195.353 115.929 200.877 114.594C205.576 113.458 210.566 113.987 214.576 114.412L214.815 114.437L233.46 107.728C238.697 104.547 256.245 98.7895 266.812 108.226C270.482 111.456 271.878 120.358 271.632 127.748C271.425 133.988 269.954 141.61 266.453 144.48C269.691 153.946 271.847 167.962 273.932 181.52C274.571 185.674 275.175 189.599 275.799 193.314C276.585 197.998 273.909 201.802 273.795 201.962C273.771 201.996 273.739 202.024 273.701 202.043C273.664 202.062 273.623 202.072 273.581 202.072H273.581Z" fill="#4E2A09"/>
<path d="M226.399 126.828C232.075 123.183 243.224 113.975 243.012 104.35C242.8 94.7263 229.028 95.8025 218.849 100.024C210.487 103.491 205.666 110.078 206.71 115.496C207.812 121.217 212.752 126.016 218.996 127.787" fill="white"/>
<path d="M218.996 128.051C218.972 128.051 218.948 128.048 218.924 128.041C212.455 126.206 207.559 121.301 206.45 115.546C205.348 109.823 210.52 103.192 218.748 99.7798C225.911 96.8094 235.309 95.2283 240.159 98.3917C242.169 99.703 243.217 101.706 243.276 104.345C243.37 108.633 241.296 113.229 237.112 118.005C232.917 122.793 227.96 126.139 226.541 127.05C226.512 127.069 226.479 127.082 226.445 127.088C226.411 127.094 226.376 127.093 226.342 127.086C226.309 127.078 226.277 127.064 226.248 127.045C226.22 127.025 226.195 127 226.177 126.971C226.158 126.941 226.145 126.909 226.139 126.875C226.133 126.841 226.134 126.806 226.141 126.772C226.148 126.738 226.162 126.706 226.182 126.677C226.202 126.649 226.227 126.625 226.256 126.606C227.97 125.505 242.995 115.529 242.748 104.356C242.694 101.902 241.726 100.044 239.87 98.8338C235.182 95.7754 225.985 97.3501 218.95 100.267C210.952 103.584 205.913 109.968 206.968 115.446C208.04 121.008 212.789 125.752 219.068 127.533C219.129 127.551 219.182 127.59 219.217 127.643C219.252 127.696 219.266 127.761 219.257 127.824C219.249 127.887 219.217 127.945 219.169 127.987C219.121 128.028 219.059 128.051 218.996 128.051V128.051Z" fill="#4E2A09"/>
<path d="M266.636 108.424C278.171 119.555 287.132 132.565 292.551 146.049C297.546 158.467 299.845 172.298 295.988 184.361C294.052 190.37 288.486 194.197 282.497 194.197C273.041 194.311 265.967 184.655 268.999 175.659C271.817 164.187 263.033 147.197 253.153 135.413" fill="white"/>
<path d="M282.334 194.462C277.856 194.462 273.567 192.234 270.837 188.48C268.085 184.695 267.304 179.876 268.745 175.586C271.517 164.271 262.811 147.343 252.951 135.582C252.928 135.556 252.912 135.525 252.901 135.492C252.891 135.459 252.887 135.424 252.89 135.39C252.893 135.355 252.903 135.322 252.919 135.291C252.935 135.26 252.957 135.233 252.983 135.211C253.01 135.188 253.04 135.172 253.073 135.161C253.106 135.151 253.141 135.147 253.176 135.15C253.21 135.153 253.244 135.163 253.274 135.179C253.305 135.195 253.332 135.217 253.355 135.243C258.637 141.544 263.156 148.755 266.08 155.549C269.466 163.418 270.564 170.393 269.255 175.722C269.253 175.729 269.251 175.736 269.249 175.743C267.856 179.875 268.61 184.52 271.264 188.17C273.894 191.788 278.024 193.934 282.337 193.934C282.389 193.934 282.441 193.934 282.493 193.933C288.556 193.933 293.877 190.054 295.737 184.28C300.095 170.65 296.277 156.02 292.306 146.148C286.901 132.698 277.961 119.719 266.453 108.614C266.402 108.565 266.373 108.499 266.372 108.429C266.371 108.359 266.397 108.291 266.446 108.241C266.494 108.19 266.561 108.161 266.631 108.16C266.701 108.159 266.769 108.186 266.819 108.234C278.38 119.391 287.363 132.433 292.796 145.951C296.799 155.904 300.645 170.661 296.239 184.441C294.308 190.435 288.785 194.461 282.496 194.461C282.442 194.462 282.388 194.462 282.333 194.462L282.334 194.462Z" fill="#4E2A09"/>
<path d="M295.988 184.361C293.234 192.93 286.256 198.495 277.557 201.656C267.238 205.406 253.761 206.298 242.922 209.221C241.709 209.551 240.458 209.719 239.201 209.719C232.958 209.719 227.239 205.563 225.526 199.246C223.475 191.687 227.94 183.895 235.497 181.845C241.278 180.276 247.091 179.28 252.712 178.316C258.548 177.258 265.231 176.643 269.519 174.287C270.953 173.499 271.966 172.151 272.511 170.477" fill="white"/>
<path d="M239.201 209.982C232.703 209.982 226.975 205.595 225.271 199.314C224.261 195.59 224.761 191.695 226.68 188.347C228.598 184.999 231.705 182.599 235.428 181.589C241.22 180.017 247.038 179.019 252.665 178.055C253.915 177.829 255.228 177.618 256.498 177.415C261.199 176.663 266.061 175.884 269.392 174.054C270.729 173.32 271.72 172.054 272.26 170.394C272.283 170.329 272.33 170.275 272.392 170.244C272.454 170.214 272.525 170.208 272.591 170.23C272.656 170.251 272.711 170.297 272.743 170.358C272.775 170.42 272.782 170.491 272.762 170.557C272.179 172.348 271.102 173.717 269.646 174.517C266.235 176.391 261.327 177.177 256.581 177.936C255.314 178.139 254.004 178.349 252.759 178.575C247.14 179.538 241.334 180.533 235.566 182.098C231.979 183.072 228.986 185.384 227.138 188.61C225.289 191.835 224.808 195.588 225.781 199.176C227.422 205.228 232.941 209.454 239.201 209.454C240.429 209.454 241.658 209.29 242.853 208.965C247.441 207.728 252.593 206.838 257.577 205.977C264.434 204.791 271.526 203.566 277.467 201.407C286.922 197.971 293.24 192.048 295.737 184.279C295.759 184.212 295.806 184.157 295.868 184.125C295.93 184.093 296.003 184.087 296.069 184.108C296.136 184.13 296.191 184.177 296.223 184.239C296.255 184.301 296.261 184.374 296.24 184.44C293.691 192.37 287.262 198.409 277.647 201.903C271.662 204.078 264.547 205.308 257.666 206.497C252.695 207.356 247.554 208.244 242.991 209.474C241.756 209.811 240.481 209.981 239.201 209.982H239.201Z" fill="#4E2A09"/>
<path d="M235.497 181.844C229.946 183.473 221.375 188.202 220.007 190.05C218.966 191.457 214.834 198.88 214.135 200.145C213.436 201.41 214.263 203.358 215.95 204.352C217.626 205.34 219.461 204.822 220.26 203.569C221.006 202.396 225.642 195.435 225.642 195.435L233.702 191.234" fill="white"/>
<path d="M217.762 205.133C217.137 205.133 216.47 204.965 215.816 204.58C214.003 203.511 213.128 201.422 213.904 200.017C213.951 199.932 218.653 191.437 219.795 189.893C221.182 188.019 229.806 183.239 235.423 181.59C235.457 181.58 235.492 181.576 235.527 181.579C235.562 181.582 235.596 181.593 235.627 181.609C235.658 181.626 235.685 181.648 235.707 181.675C235.729 181.703 235.746 181.734 235.756 181.768C235.766 181.801 235.769 181.837 235.765 181.872C235.761 181.906 235.75 181.94 235.733 181.971C235.716 182.002 235.693 182.028 235.665 182.05C235.637 182.072 235.606 182.088 235.572 182.097C230.033 183.722 221.564 188.389 220.219 190.207C219.277 191.479 215.585 198.065 214.366 200.272C213.735 201.414 214.538 203.214 216.084 204.125C217.681 205.066 219.348 204.509 220.037 203.427C220.777 202.265 225.376 195.358 225.422 195.289C225.447 195.252 225.481 195.221 225.52 195.201L233.58 191C233.709 190.932 233.869 190.983 233.936 191.112C234.003 191.241 233.953 191.401 233.824 191.468L225.824 195.637C225.38 196.304 221.183 202.609 220.482 203.71C219.946 204.552 218.925 205.133 217.762 205.133L217.762 205.133Z" fill="#4E2A09"/>
<path d="M233.928 189.559C233.928 189.559 224.511 194.243 223.154 195.549C221.797 196.854 217.981 204.378 217.282 205.644C216.583 206.909 217.41 208.857 219.097 209.851C220.773 210.839 222.608 210.321 223.407 209.067C224.154 207.895 228.789 200.934 228.789 200.934L235.422 197.477" fill="white"/>
<path d="M220.909 210.632C220.284 210.632 219.617 210.464 218.963 210.079C217.151 209.01 216.275 206.921 217.051 205.516C217.176 205.29 217.407 204.851 217.7 204.296C219.142 201.557 221.829 196.458 222.971 195.359C224.342 194.041 233.425 189.515 233.811 189.322C233.873 189.291 233.946 189.286 234.012 189.309C234.079 189.331 234.133 189.379 234.165 189.441C234.196 189.504 234.201 189.576 234.178 189.643C234.156 189.709 234.108 189.764 234.046 189.795C233.952 189.842 224.65 194.476 223.337 195.739C222.256 196.779 219.494 202.023 218.167 204.542C217.873 205.1 217.641 205.541 217.513 205.771C216.883 206.913 217.686 208.713 219.231 209.624C220.828 210.565 222.495 210.008 223.185 208.926C223.924 207.764 228.523 200.857 228.57 200.788C228.595 200.751 228.628 200.72 228.668 200.7L235.301 197.243C235.331 197.227 235.365 197.217 235.399 197.214C235.434 197.211 235.469 197.214 235.502 197.225C235.535 197.235 235.566 197.252 235.592 197.274C235.619 197.297 235.64 197.324 235.656 197.355C235.724 197.484 235.674 197.643 235.544 197.711L228.971 201.137C228.528 201.803 224.331 208.108 223.629 209.209C223.093 210.051 222.072 210.632 220.909 210.632L220.909 210.632Z" fill="#4E2A09"/>
<path d="M236.058 196.162C236.058 196.162 229.164 199.637 228.053 200.642C226.941 201.647 223.14 208.32 222.413 209.569C221.686 210.818 222.468 212.785 224.132 213.817C225.786 214.842 227.632 214.366 228.459 213.131C229.232 211.976 233.708 206.005 233.708 206.005L240.112 202.797" fill="white"/>
<path d="M226.005 214.639C225.357 214.639 224.666 214.458 223.993 214.041C222.205 212.932 221.377 210.823 222.185 209.436C222.253 209.32 222.347 209.156 222.464 208.954C224.341 205.705 226.945 201.288 227.876 200.446C229.001 199.429 235.656 196.069 235.939 195.927C235.97 195.911 236.004 195.902 236.038 195.899C236.073 195.897 236.108 195.901 236.14 195.912C236.173 195.923 236.204 195.94 236.23 195.962C236.256 195.985 236.278 196.013 236.293 196.044C236.309 196.075 236.318 196.108 236.321 196.143C236.324 196.177 236.319 196.212 236.308 196.245C236.298 196.278 236.28 196.308 236.258 196.335C236.235 196.361 236.208 196.382 236.177 196.398C236.108 196.433 229.302 199.868 228.23 200.838C227.253 201.721 223.992 207.364 222.921 209.218C222.804 209.421 222.709 209.585 222.641 209.702C221.985 210.829 222.746 212.647 224.271 213.592C225.846 214.569 227.526 214.05 228.239 212.984C229.007 211.836 233.314 206.091 233.497 205.847C233.522 205.814 233.554 205.788 233.59 205.769L239.994 202.561C240.025 202.545 240.059 202.536 240.093 202.534C240.128 202.531 240.162 202.535 240.195 202.546C240.228 202.557 240.259 202.575 240.285 202.597C240.311 202.62 240.332 202.648 240.348 202.679C240.363 202.71 240.373 202.743 240.375 202.778C240.378 202.813 240.373 202.847 240.362 202.88C240.351 202.913 240.334 202.944 240.311 202.97C240.289 202.996 240.261 203.017 240.23 203.033L233.882 206.213C233.448 206.792 229.401 212.197 228.678 213.278C228.136 214.088 227.136 214.639 226.005 214.639L226.005 214.639Z" fill="#4E2A09"/>
<path d="M242.922 209.221L237.971 210.841C237.971 210.841 236.517 215.447 235.925 216.617C235.332 217.788 234.031 218.443 232.146 217.829C230.43 217.27 229.06 215.931 229.571 214.362C230.082 212.793 231.687 206.306 232.843 205.374C233.998 204.441 240.997 201.074 240.997 201.074" fill="white"/>
<path d="M233.512 218.327C233.06 218.327 232.574 218.246 232.065 218.08C230.331 217.516 228.733 216.086 229.32 214.281C229.427 213.953 229.581 213.413 229.775 212.729C230.75 209.302 231.777 205.896 232.677 205.169C233.843 204.228 240.596 200.975 240.883 200.837C240.946 200.806 241.019 200.802 241.085 200.825C241.151 200.849 241.205 200.897 241.235 200.96C241.265 201.023 241.269 201.096 241.246 201.162C241.223 201.228 241.175 201.282 241.112 201.312C241.042 201.346 234.127 204.677 233.008 205.58C232.163 206.262 230.939 210.563 230.282 212.874C230.086 213.563 229.932 214.107 229.822 214.444C229.346 215.904 230.736 217.092 232.228 217.578C233.818 218.096 235.08 217.703 235.689 216.499C236.265 215.361 237.705 210.808 237.72 210.762C237.732 210.722 237.754 210.686 237.784 210.656C237.813 210.626 237.849 210.604 237.889 210.591L242.84 208.971C242.873 208.96 242.908 208.956 242.942 208.958C242.977 208.961 243.01 208.97 243.041 208.986C243.072 209.002 243.1 209.023 243.122 209.05C243.145 209.076 243.162 209.106 243.173 209.139C243.184 209.172 243.188 209.207 243.185 209.242C243.183 209.276 243.173 209.31 243.157 209.341C243.142 209.372 243.12 209.399 243.094 209.422C243.068 209.444 243.037 209.461 243.004 209.472L238.182 211.05C237.937 211.821 236.707 215.658 236.16 216.737C235.634 217.777 234.689 218.327 233.512 218.327H233.512Z" fill="#4E2A09"/>
<path d="M262.587 205.387C263.841 192.951 259.484 180.53 253.175 178.236L245.74 179.55C252.049 181.844 256.706 194.191 255.452 206.627L262.587 205.387Z" fill="white"/>
<path d="M255.452 206.891C255.415 206.891 255.378 206.883 255.345 206.868C255.311 206.853 255.281 206.831 255.256 206.804C255.231 206.776 255.213 206.744 255.201 206.709C255.19 206.674 255.186 206.637 255.189 206.6C255.786 200.679 255.074 194.562 253.184 189.376C251.358 184.366 248.612 180.875 245.65 179.798C245.595 179.778 245.549 179.741 245.518 179.692C245.486 179.643 245.472 179.585 245.477 179.527C245.482 179.469 245.506 179.415 245.546 179.372C245.585 179.329 245.637 179.3 245.694 179.29L253.129 177.976C253.175 177.968 253.222 177.972 253.265 177.988C259.723 180.336 264.112 192.895 262.85 205.413C262.844 205.47 262.82 205.524 262.78 205.566C262.741 205.608 262.689 205.637 262.633 205.646L255.497 206.887C255.482 206.889 255.467 206.891 255.452 206.891ZM246.646 179.658C249.436 181.08 251.966 184.493 253.68 189.195C255.56 194.353 256.291 200.417 255.748 206.308L262.345 205.161C262.912 199.259 262.247 193.207 260.468 188.095C258.727 183.093 256.063 179.605 253.15 178.509L246.646 179.658H246.646ZM221.163 143.808C221.109 143.808 221.057 143.792 221.013 143.761C220.968 143.731 220.935 143.687 220.916 143.637C220.234 141.831 219.799 131.848 220.06 129.397C220.067 129.327 220.102 129.264 220.156 129.22C220.211 129.176 220.28 129.155 220.35 129.162C220.384 129.166 220.418 129.176 220.448 129.193C220.479 129.209 220.505 129.232 220.527 129.259C220.549 129.286 220.565 129.317 220.575 129.35C220.585 129.383 220.588 129.418 220.584 129.452C220.334 131.807 220.765 141.743 221.409 143.451C221.424 143.491 221.43 143.534 221.424 143.576C221.419 143.619 221.404 143.659 221.379 143.694C221.355 143.729 221.323 143.758 221.285 143.778C221.247 143.798 221.205 143.808 221.163 143.808ZM226.577 147.875C226.541 147.875 226.505 147.868 226.471 147.853C226.438 147.839 226.408 147.817 226.383 147.79C226.358 147.763 226.339 147.732 226.327 147.697C226.316 147.662 226.311 147.626 226.314 147.589C226.557 144.739 226.441 131.956 225.423 128.86C225.411 128.827 225.406 128.791 225.408 128.756C225.409 128.721 225.418 128.686 225.434 128.655C225.449 128.623 225.471 128.595 225.497 128.571C225.524 128.548 225.555 128.531 225.588 128.52C225.622 128.509 225.657 128.504 225.693 128.507C225.728 128.51 225.762 128.52 225.793 128.536C225.824 128.553 225.852 128.575 225.874 128.602C225.897 128.63 225.914 128.661 225.924 128.695C226.983 131.915 227.092 144.673 226.84 147.634C226.834 147.7 226.804 147.761 226.755 147.806C226.707 147.851 226.643 147.875 226.577 147.876L226.577 147.875ZM233.574 108.231C233.532 108.231 233.49 108.221 233.453 108.201C233.415 108.182 233.383 108.153 233.358 108.119C233.334 108.084 233.319 108.044 233.313 108.002C233.307 107.96 233.312 107.917 233.327 107.877C234.227 105.392 233.767 104.132 233.762 104.12C233.737 104.055 233.739 103.982 233.767 103.918C233.795 103.855 233.847 103.805 233.912 103.779C233.977 103.754 234.049 103.755 234.113 103.782C234.177 103.81 234.227 103.862 234.253 103.926C234.276 103.984 234.8 105.36 233.822 108.057C233.804 108.108 233.77 108.152 233.726 108.183C233.682 108.214 233.629 108.231 233.574 108.231V108.231ZM225.145 87.7538L206.127 83.5404C203.554 86.4827 197.328 85.9035 191.854 82.11C186.143 78.1524 183.416 72.198 185.762 68.8104C188.008 65.5667 194.092 65.8548 199.618 69.3593C201.763 66.1176 205.105 63.6594 209.189 62.7126C217.659 60.7496 226.117 66.0266 228.079 74.4994C228.242 75.2052 228.357 75.9213 228.423 76.6428C228.995 76.097 229.705 75.615 230.523 75.2493C233.261 74.0253 236.165 74.563 237.008 76.4502C237.633 77.8499 236.948 79.5986 235.436 80.908C239.122 81.2437 242.341 83.8947 243.222 87.6983C244.321 92.442 241.367 97.1785 236.625 98.2777C231.883 99.3768 227.148 96.4223 226.049 91.6785C225.238 88.1757 225.302 86.6909 225.302 86.6909" fill="#4E2A09"/>
<path d="M234.635 98.771C230.506 98.7713 226.762 95.9303 225.792 91.739C225.402 90.0569 225.212 88.8373 225.121 88.0173C225.11 88.0162 225.099 88.0145 225.088 88.0122L206.219 83.8319C204.9 85.2436 202.718 85.8759 200.052 85.6145C197.344 85.3489 194.379 84.1817 191.704 82.3276C185.883 78.2934 183.12 72.1624 185.545 68.6607C186.681 67.02 188.788 66.1784 191.471 66.2913C194.026 66.3986 196.883 67.3591 199.541 69.001C201.812 65.6854 205.207 63.3655 209.13 62.4563C213.295 61.4908 217.587 62.2059 221.214 64.4694C224.842 66.7329 227.371 70.2742 228.336 74.4406C228.463 74.9905 228.562 75.5467 228.63 76.1069C229.159 75.6714 229.757 75.3032 230.415 75.0091C233.282 73.7279 236.347 74.3263 237.248 76.3434C237.844 77.6778 237.364 79.3481 236.026 80.7155C237.818 80.991 239.487 81.7982 240.815 83.0326C242.144 84.267 243.072 85.8718 243.479 87.6395C244.608 92.5174 241.56 97.4053 236.684 98.5355C236.012 98.6917 235.324 98.7706 234.634 98.7709L234.635 98.771ZM225.302 86.428C225.337 86.428 225.373 86.4352 225.405 86.4491C225.438 86.4631 225.468 86.4836 225.493 86.5093C225.517 86.535 225.536 86.5655 225.549 86.5989C225.561 86.6322 225.567 86.6678 225.566 86.7034C225.565 86.7176 225.515 88.208 226.306 91.6198C227.37 96.2144 231.972 99.0859 236.565 98.0215C241.158 96.9569 244.029 92.353 242.965 87.7586C242.561 86.0042 241.613 84.4224 240.256 83.2394C238.9 82.0563 237.204 81.3326 235.411 81.1716C235.36 81.1668 235.311 81.1471 235.27 81.1147C235.23 81.0824 235.2 81.0388 235.184 80.9896C235.168 80.9403 235.167 80.8874 235.181 80.8376C235.195 80.7878 235.224 80.7431 235.263 80.7093C236.733 79.4357 237.324 77.8064 236.766 76.5585C235.984 74.8072 233.232 74.328 230.63 75.4909C229.86 75.8353 229.178 76.2874 228.605 76.8344C228.569 76.8686 228.524 76.892 228.475 76.9019C228.427 76.9118 228.376 76.9078 228.33 76.8903C228.283 76.8729 228.243 76.8427 228.213 76.8033C228.183 76.7639 228.164 76.7168 228.16 76.6674C228.095 75.9579 227.982 75.2537 227.822 74.5596C226.889 70.5304 224.443 67.106 220.935 64.917C217.427 62.7281 213.277 62.0369 209.249 62.9703C205.375 63.8683 202.033 66.1892 199.838 69.5056C199.8 69.5633 199.741 69.6036 199.673 69.6181C199.605 69.6325 199.535 69.6198 199.477 69.5828C194.05 66.1414 188.121 65.8683 185.979 68.9614C183.719 72.2239 186.422 78.0254 192.004 81.8938C197.316 85.5748 203.432 86.2221 205.928 83.3674C205.959 83.3318 206 83.3052 206.045 83.2904C206.09 83.2757 206.138 83.2733 206.184 83.2835L225.068 87.4671C225.028 86.9556 225.038 86.7049 225.039 86.6803C225.042 86.6124 225.071 86.5483 225.12 86.5013C225.169 86.4542 225.234 86.428 225.302 86.4279L225.302 86.428Z" fill="#4E2A09"/>
<path d="M227.9 90.2012L233.575 107.967C233.575 107.967 229.886 121.698 223.379 123.568C218.355 125.011 214.847 114.706 214.847 114.706L213.363 110.131" fill="white"/>
<path d="M222.402 123.972C217.78 123.973 214.734 115.192 214.597 114.791L213.112 110.212C213.101 110.179 213.097 110.145 213.1 110.11C213.103 110.076 213.112 110.042 213.128 110.011C213.144 109.98 213.165 109.953 213.192 109.93C213.218 109.908 213.249 109.891 213.281 109.88C213.314 109.869 213.349 109.865 213.384 109.868C213.418 109.871 213.452 109.88 213.483 109.896C213.514 109.912 213.541 109.933 213.564 109.96C213.586 109.986 213.603 110.017 213.614 110.049L215.098 114.624C215.131 114.721 218.58 124.672 223.307 123.314C229.353 121.577 232.995 109.057 233.299 107.972L227.648 90.2818C227.627 90.2151 227.633 90.1427 227.665 90.0805C227.697 90.0183 227.753 89.9713 227.819 89.95C227.886 89.9287 227.959 89.9348 228.021 89.9668C228.083 89.9989 228.13 90.0544 228.151 90.1211L233.826 107.887C233.841 107.935 233.843 107.987 233.829 108.036C233.82 108.07 232.881 111.534 231.156 115.179C228.819 120.117 226.227 123.024 223.452 123.821C223.094 123.924 222.744 123.972 222.402 123.972Z" fill="#4E2A09"/>
<path d="M227.728 101.68C225.406 107.403 219.057 110.146 215.886 111.329C208.099 114.33 200.009 110.942 199.407 105.334C198.883 100.449 200.993 90.1 201.565 85.0267C202.182 79.547 205.785 74.5361 211.38 72.8817C218.204 70.864 225.522 75.3005 227.981 81.8526C229.765 86.6065 228.729 91.2119 228.729 91.2119" fill="white"/>
<path d="M209.949 112.709C207.394 112.709 204.951 112.094 202.967 110.883C200.738 109.522 199.381 107.561 199.145 105.361C198.768 101.85 199.743 95.5194 200.526 90.4326C200.841 88.3861 201.138 86.4533 201.303 84.9955C201.968 79.0816 205.895 74.2266 211.305 72.627C214.611 71.6494 218.213 72.1093 221.446 73.9217C224.537 75.6543 227.009 78.5106 228.228 81.7582C230.019 86.5311 229.03 91.077 228.987 91.2681C228.979 91.302 228.965 91.3341 228.945 91.3625C228.925 91.3908 228.9 91.415 228.87 91.4336C228.841 91.4521 228.808 91.4647 228.774 91.4705C228.74 91.4764 228.705 91.4754 228.671 91.4676C228.603 91.4523 228.544 91.4105 228.506 91.3514C228.469 91.2923 228.456 91.2207 228.472 91.1524C228.482 91.107 229.468 86.564 227.734 81.9437C225.196 75.1819 217.893 71.2297 211.454 73.1332C206.248 74.6724 202.469 79.352 201.827 85.0546C201.661 86.5229 201.363 88.4609 201.047 90.5129C200.269 95.5694 199.3 101.862 199.67 105.304C199.888 107.337 201.156 109.158 203.242 110.432C206.639 112.507 211.448 112.755 215.791 111.081C221.92 108.795 225.853 105.598 227.483 101.579C227.496 101.547 227.515 101.518 227.54 101.493C227.564 101.468 227.593 101.449 227.625 101.435C227.657 101.422 227.691 101.415 227.726 101.415C227.76 101.414 227.795 101.421 227.827 101.434C227.859 101.447 227.888 101.466 227.913 101.49C227.938 101.515 227.957 101.544 227.971 101.576C227.984 101.608 227.991 101.642 227.992 101.676C227.992 101.711 227.985 101.746 227.972 101.778C226.284 105.939 222.249 109.235 215.978 111.575C214.009 112.334 211.944 112.709 209.949 112.709H209.949Z" fill="#4E2A09"/>
<path d="M200.593 85.3913C203.468 85.6167 207.475 84.9206 209.69 83.2193C211.248 82.0226 212.576 80.8977 213.363 78.6344C213.363 78.6344 215.732 84.6062 221.168 84.9813C221.168 84.9813 222.358 90.3119 223.469 90.5581C224.58 90.8043 224.163 88.3773 224.705 87.3514C225.184 86.4462 227.694 85.0104 229.272 84.9284C229.272 84.9284 228.807 72.0695 215.377 71.7828C200.351 71.4621 200.593 85.3912 200.593 85.3912V85.3913Z" fill="#4E2A09"/>
<path d="M223.619 90.8396C223.553 90.8396 223.484 90.8316 223.412 90.8157C222.281 90.5655 221.291 86.6975 220.954 85.2285C216.565 84.8142 214.15 80.8216 213.386 79.3086C212.575 81.2253 211.346 82.2797 209.85 83.4285C207.56 85.1876 203.449 85.8807 200.572 85.6544C200.507 85.6493 200.446 85.62 200.401 85.5722C200.356 85.5244 200.33 85.4616 200.329 85.3959C200.325 85.1513 200.272 79.3604 204.351 75.2966C206.967 72.6896 210.678 71.4188 215.382 71.5192C222.446 71.67 225.92 75.3093 227.592 78.3357C229.397 81.6038 229.531 84.7851 229.536 84.919C229.538 84.9882 229.514 85.0557 229.467 85.1067C229.42 85.1578 229.355 85.1884 229.286 85.192C227.82 85.2682 225.37 86.659 224.938 87.4749C224.756 87.8199 224.691 88.3844 224.628 88.9304C224.541 89.6913 224.459 90.4098 224.042 90.7068C223.918 90.7952 223.776 90.8396 223.619 90.8396H223.619ZM213.363 78.3706C213.416 78.3706 213.467 78.3865 213.511 78.4162C213.555 78.4458 213.588 78.4879 213.608 78.537C213.631 78.5952 215.983 84.3591 221.186 84.7182C221.243 84.7221 221.297 84.7443 221.34 84.7814C221.383 84.8185 221.413 84.8685 221.425 84.924C221.98 87.4089 222.941 90.1711 223.526 90.3007C223.647 90.3277 223.704 90.3003 223.736 90.2772C223.961 90.1165 224.037 89.4544 224.104 88.8702C224.173 88.2757 224.243 87.6609 224.472 87.2281C224.965 86.2954 227.299 84.9046 228.991 84.6893C228.921 83.8797 228.588 81.2215 227.121 78.5737C224.786 74.3594 220.832 72.1634 215.371 72.0468C210.819 71.9485 207.234 73.1688 204.723 75.6706C201.26 79.1207 200.897 84.0097 200.861 85.1453C203.619 85.3062 207.408 84.6393 209.529 83.01C211.1 81.8033 212.362 80.7087 213.114 78.5478C213.131 78.497 213.164 78.4528 213.208 78.4212C213.251 78.3895 213.303 78.3719 213.357 78.3708H213.363L213.363 78.3706Z" fill="#4E2A09"/>
<path d="M207.093 77.6734C207.038 77.6734 206.985 77.6566 206.941 77.6254C206.897 77.5942 206.863 77.5501 206.844 77.4991C205.908 74.9078 201.6 70.7376 199.492 69.5914C199.462 69.5748 199.435 69.5524 199.413 69.5255C199.391 69.4986 199.375 69.4676 199.365 69.4344C199.355 69.4011 199.352 69.3663 199.356 69.3318C199.359 69.2974 199.37 69.264 199.386 69.2335C199.42 69.1721 199.476 69.1264 199.543 69.1065C199.576 69.0967 199.611 69.0935 199.646 69.0972C199.68 69.1008 199.714 69.1112 199.744 69.1277C201.97 70.3384 206.35 74.5788 207.341 77.3198C207.355 77.3596 207.36 77.4024 207.354 77.4444C207.348 77.4864 207.333 77.5265 207.309 77.5612C207.284 77.5959 207.252 77.6242 207.214 77.6437C207.177 77.6633 207.135 77.6734 207.093 77.6734Z" fill="white"/>
<path d="M214.213 94.2653C214.147 94.2652 214.083 94.2402 214.034 94.1952C213.986 94.1502 213.956 94.0886 213.951 94.0225L213.675 90.5799C213.672 90.5454 213.676 90.5106 213.686 90.4776C213.697 90.4447 213.714 90.4141 213.737 90.3877C213.759 90.3613 213.787 90.3396 213.817 90.3239C213.848 90.3081 213.882 90.2986 213.916 90.2958C213.951 90.2929 213.986 90.2969 214.019 90.3075C214.052 90.3182 214.082 90.3352 214.109 90.3577C214.135 90.3802 214.157 90.4077 214.173 90.4386C214.188 90.4695 214.198 90.5032 214.2 90.5378L214.476 93.9804C214.479 94.0167 214.475 94.0533 214.463 94.0877C214.451 94.1222 214.432 94.1538 214.407 94.1806C214.382 94.2073 214.352 94.2287 214.319 94.2432C214.286 94.2578 214.25 94.2653 214.213 94.2653ZM205.46 94.2653C205.394 94.2652 205.33 94.2402 205.281 94.1952C205.232 94.1502 205.202 94.0886 205.197 94.0225L204.921 90.5799C204.916 90.5102 204.938 90.4411 204.983 90.3878C205.029 90.3345 205.093 90.3015 205.163 90.2959C205.233 90.2903 205.302 90.3127 205.355 90.358C205.408 90.4034 205.441 90.4681 205.447 90.5378L205.723 93.9804C205.726 94.0167 205.721 94.0533 205.709 94.0877C205.697 94.1222 205.679 94.1538 205.654 94.1806C205.629 94.2073 205.599 94.2287 205.566 94.2432C205.532 94.2578 205.496 94.2653 205.46 94.2653Z" fill="#4E2A09"/>
<path d="M210.728 104.053C209.346 104.223 208.398 105.962 210.838 107.74C212.62 109.039 216.146 108.286 217.627 107.128C218.985 106.066 220.893 104.105 220.614 101.39C220.296 98.3078 218.139 98.2773 216.872 100.237C215.453 102.432 212.691 103.813 210.728 104.053H210.728Z" fill="white"/>
<path d="M213.356 108.684C212.353 108.684 211.394 108.471 210.682 107.953C209.452 107.057 208.883 106.013 209.123 105.091C209.303 104.397 209.92 103.887 210.696 103.792C212.62 103.556 215.283 102.21 216.651 100.094C217.352 99.0094 218.332 98.4659 219.209 98.6771C220.115 98.8947 220.723 99.8735 220.876 101.363C221.156 104.085 219.352 106.114 217.789 107.336C216.824 108.092 215.029 108.684 213.356 108.684ZM210.76 104.316C210.201 104.384 209.759 104.74 209.633 105.223C209.451 105.925 209.947 106.764 210.993 107.527C212.675 108.753 216.079 108.004 217.464 106.921C218.923 105.78 220.607 103.9 220.351 101.417C220.222 100.164 219.761 99.3525 219.086 99.1903C218.443 99.0362 217.661 99.503 217.094 100.381C215.639 102.632 212.806 104.065 210.76 104.316V104.316ZM208.356 100.925C208.334 100.925 208.311 100.922 208.288 100.916C208.159 100.881 205.111 100.051 204.356 98.5115C204.146 98.0834 204.133 97.6451 204.316 97.2087C204.505 96.7599 204.837 96.4429 205.302 96.2665C206.841 95.6835 209.363 96.8609 209.645 96.997C209.677 97.0121 209.704 97.0331 209.728 97.059C209.751 97.0848 209.768 97.1149 209.78 97.1476C209.791 97.1804 209.796 97.215 209.794 97.2496C209.792 97.2842 209.784 97.3181 209.769 97.3493C209.753 97.3805 209.732 97.4085 209.707 97.4316C209.681 97.4547 209.651 97.4724 209.618 97.4839C209.585 97.4953 209.551 97.5002 209.516 97.4983C209.481 97.4963 209.448 97.4876 209.416 97.4725C208.467 97.0151 206.571 96.3503 205.489 96.7601C205.16 96.885 204.935 97.0986 204.803 97.4132C204.679 97.7068 204.688 97.9901 204.83 98.2792C205.369 99.3799 207.607 100.188 208.424 100.406C208.486 100.423 208.54 100.461 208.575 100.514C208.611 100.567 208.626 100.632 208.617 100.695C208.609 100.759 208.578 100.817 208.53 100.859C208.482 100.901 208.42 100.925 208.356 100.925Z" fill="#4E2A09"/>
<path d="M224.79 88.7405C224.931 86.7536 226.392 85.0334 228.441 84.6497C230.877 84.1935 233.221 85.799 233.677 88.2358C234.133 90.6725 232.528 93.0176 230.093 93.4737C229.069 93.6671 228.01 93.4966 227.098 92.9917" fill="white"/>
<path d="M229.269 93.8146C228.465 93.8148 227.675 93.6114 226.971 93.2233C226.941 93.2065 226.914 93.1839 226.892 93.1568C226.871 93.1297 226.855 93.0986 226.845 93.0653C226.835 93.032 226.833 92.9971 226.836 92.9627C226.84 92.9283 226.851 92.8949 226.868 92.8646C226.884 92.8343 226.907 92.8075 226.934 92.7859C226.961 92.7643 226.992 92.7483 227.026 92.7387C227.059 92.7291 227.094 92.7262 227.128 92.7301C227.163 92.7339 227.196 92.7446 227.226 92.7613C228.085 93.2347 229.081 93.395 230.044 93.2149C232.333 92.7862 233.847 90.5746 233.418 88.2849C233.211 87.1757 232.584 86.2138 231.653 85.5762C230.722 84.9387 229.598 84.7022 228.49 84.9097C226.602 85.2632 225.189 86.8464 225.053 88.7599C225.048 88.8295 225.015 88.8943 224.962 88.9401C224.91 88.9858 224.841 89.009 224.771 89.0045C224.702 88.9995 224.637 88.967 224.591 88.9141C224.545 88.8613 224.522 88.7923 224.527 88.7225C224.68 86.5699 226.269 84.7887 228.393 84.3911C229.64 84.1575 230.903 84.4238 231.951 85.1409C232.998 85.8581 233.703 86.9401 233.937 88.1879C234.419 90.7637 232.716 93.2516 230.141 93.7338C229.853 93.7879 229.56 93.8147 229.269 93.8147L229.269 93.8146Z" fill="#4E2A09"/>
<path d="M228.976 91.9007C228.671 91.9007 228.266 91.7876 227.787 91.3834C227.733 91.3382 227.7 91.2737 227.694 91.204C227.688 91.1342 227.71 91.065 227.755 91.0116C227.778 90.985 227.805 90.9632 227.836 90.9473C227.867 90.9313 227.9 90.9216 227.935 90.9187C227.969 90.9158 228.004 90.9197 228.037 90.9302C228.07 90.9407 228.101 90.9577 228.127 90.98C228.535 91.324 228.916 91.4481 229.202 91.3304C229.41 91.2448 229.558 91.0274 229.581 90.7764C229.591 90.6629 229.585 90.3801 229.314 90.2078C229.178 90.1211 228.992 90.0393 228.794 89.9526C227.993 89.6013 226.783 89.0704 227.406 87.3196C227.816 86.1657 229.071 85.7914 230.099 86.018C231.161 86.2524 232.169 87.1688 232.029 88.6882C232.022 88.7577 231.988 88.8218 231.934 88.8665C231.881 88.9112 231.811 88.9327 231.742 88.9266C231.707 88.9234 231.674 88.9134 231.643 88.8973C231.612 88.8811 231.585 88.8591 231.563 88.8324C231.541 88.8057 231.524 88.775 231.514 88.7419C231.504 88.7088 231.5 88.674 231.503 88.6395C231.622 87.3584 230.76 86.7042 229.985 86.5334C229.183 86.3563 228.211 86.6305 227.903 87.4964C227.445 88.7843 228.203 89.1171 229.006 89.4692C229.223 89.5642 229.427 89.6539 229.597 89.7625C229.954 89.9898 230.144 90.3862 230.106 90.8226C230.067 91.2676 229.791 91.6583 229.403 91.8181C229.267 91.8732 229.122 91.9011 228.975 91.9003L228.976 91.9007Z" fill="#4E2A09"/>
</g>
<g clip-path="url(#clip4_2061_27151)">
<path d="M218.165 108.227C221.905 106.057 223.77 102.264 222.329 99.7559C220.888 97.2476 216.687 96.9738 212.947 99.1442C209.206 101.315 207.342 105.108 208.783 107.616C210.224 110.124 214.424 110.398 218.165 108.227Z" fill="white"/>
<path d="M212.566 105.137C212.177 105.137 211.789 105.093 211.412 105.002C211.343 104.984 211.285 104.94 211.249 104.88C211.212 104.819 211.201 104.746 211.218 104.678C211.234 104.609 211.277 104.549 211.336 104.512C211.396 104.474 211.468 104.462 211.537 104.477C212.854 104.794 214.325 104.476 215.374 103.645C216.259 102.944 216.746 101.957 216.746 100.866C216.746 100.794 216.775 100.725 216.825 100.675C216.875 100.624 216.944 100.596 217.015 100.596C217.086 100.596 217.155 100.624 217.205 100.675C217.256 100.725 217.284 100.794 217.284 100.866C217.284 102.126 216.724 103.263 215.707 104.069C214.832 104.762 213.697 105.137 212.566 105.137Z" fill="#4E2A09"/>
</g>
<g clip-path="url(#clip5_2061_27151)">
<path d="M163.47 201.72H120.888L122.951 198.174H165.533L163.47 201.72Z" fill="#796959"/>
<path d="M163.47 201.959H120.888C120.846 201.959 120.804 201.948 120.768 201.927C120.731 201.906 120.701 201.876 120.68 201.839C120.659 201.802 120.648 201.761 120.648 201.719C120.648 201.677 120.659 201.635 120.681 201.599L122.744 198.053C122.765 198.017 122.796 197.986 122.832 197.966C122.868 197.945 122.91 197.934 122.952 197.934H165.533C165.576 197.934 165.617 197.945 165.654 197.966C165.69 197.987 165.72 198.017 165.741 198.054C165.762 198.09 165.773 198.132 165.773 198.174C165.773 198.216 165.762 198.257 165.741 198.294L163.677 201.84C163.656 201.876 163.626 201.906 163.589 201.927C163.553 201.948 163.512 201.959 163.47 201.959ZM121.305 201.48H163.332L165.117 198.413H123.089L121.305 201.48Z" fill="#796959"/>
<path d="M163.47 201.72H229.415L258.48 151.775H192.535L163.47 201.72Z" fill="#796959"/>
<path d="M229.414 201.959H163.47C163.427 201.959 163.386 201.948 163.349 201.927C163.313 201.906 163.283 201.876 163.262 201.839C163.241 201.802 163.23 201.761 163.23 201.719C163.23 201.677 163.241 201.635 163.262 201.599L192.328 151.654C192.349 151.618 192.379 151.588 192.416 151.567C192.452 151.546 192.493 151.535 192.535 151.535H258.48C258.522 151.535 258.564 151.546 258.6 151.567C258.637 151.588 258.667 151.619 258.688 151.655C258.709 151.692 258.72 151.733 258.72 151.775C258.72 151.817 258.709 151.859 258.687 151.895L229.622 201.84C229.601 201.876 229.57 201.906 229.534 201.927C229.498 201.948 229.456 201.959 229.414 201.959ZM163.886 201.48H229.276L258.063 152.014H192.673L163.886 201.48Z" fill="#796959"/>
<path d="M163.469 201.96C163.427 201.96 163.386 201.949 163.349 201.928C163.313 201.907 163.283 201.876 163.262 201.84C163.241 201.803 163.23 201.762 163.23 201.72C163.23 201.678 163.241 201.636 163.262 201.6L165.326 198.054C165.359 198 165.411 197.962 165.472 197.947C165.532 197.931 165.597 197.94 165.651 197.972C165.705 198.003 165.745 198.055 165.761 198.115C165.778 198.175 165.771 198.24 165.74 198.295L163.677 201.841C163.656 201.877 163.625 201.907 163.589 201.928C163.553 201.949 163.511 201.96 163.469 201.96Z" fill="white"/>
</g>
<g clip-path="url(#clip6_2061_27151)">
<path d="M295.944 184.408C293.189 192.965 286.211 198.522 277.513 201.679C267.193 205.424 253.716 206.315 242.877 209.234C241.664 209.563 240.413 209.731 239.156 209.731C232.912 209.731 227.193 205.581 225.48 199.273C223.429 191.724 227.894 183.943 235.452 181.895C241.233 180.328 247.045 179.334 252.667 178.372C258.503 177.315 265.186 176.7 269.475 174.348C270.908 173.561 271.922 172.215 272.466 170.543" fill="white"/>
<path d="M239.156 209.995C232.657 209.995 226.929 205.615 225.225 199.342C224.215 195.623 224.716 191.734 226.634 188.391C228.552 185.047 231.66 182.65 235.383 181.641C241.175 180.072 246.993 179.076 252.619 178.113C253.87 177.887 255.183 177.677 256.453 177.474C261.154 176.722 266.016 175.945 269.348 174.117C270.684 173.384 271.675 172.12 272.215 170.462C272.238 170.397 272.285 170.343 272.347 170.313C272.409 170.282 272.48 170.277 272.546 170.298C272.611 170.319 272.666 170.365 272.698 170.427C272.73 170.488 272.737 170.559 272.717 170.625C272.135 172.413 271.058 173.78 269.602 174.579C266.19 176.451 261.282 177.235 256.536 177.994C255.269 178.197 253.959 178.406 252.714 178.631C247.094 179.593 241.289 180.587 235.521 182.15C231.934 183.122 228.94 185.432 227.092 188.653C225.244 191.874 224.762 195.621 225.735 199.204C227.376 205.248 232.895 209.468 239.156 209.468C240.384 209.468 241.612 209.304 242.808 208.98C247.395 207.745 252.548 206.855 257.531 205.995C264.389 204.812 271.481 203.588 277.423 201.432C286.878 198 293.196 192.086 295.693 184.328C295.715 184.261 295.762 184.206 295.824 184.174C295.886 184.142 295.959 184.136 296.025 184.157C296.092 184.179 296.147 184.226 296.179 184.288C296.211 184.35 296.217 184.422 296.196 184.489C293.646 192.408 287.217 198.438 277.603 201.927C271.617 204.099 264.502 205.327 257.621 206.515C252.65 207.373 247.509 208.26 242.946 209.488C241.71 209.824 240.436 209.994 239.156 209.995H239.156Z" fill="#4E2A09"/>
<path d="M235.451 181.895C229.9 183.522 221.329 188.244 219.96 190.09C218.92 191.494 214.787 198.907 214.088 200.17C213.389 201.434 214.217 203.379 215.903 204.372C217.58 205.358 219.415 204.841 220.213 203.589C220.96 202.418 225.596 195.467 225.596 195.467L233.656 191.272" fill="white"/>
<path d="M217.715 205.152C217.09 205.152 216.424 204.984 215.77 204.599C213.957 203.532 213.081 201.446 213.858 200.043C213.905 199.958 218.607 191.474 219.749 189.933C221.136 188.061 229.76 183.288 235.377 181.642C235.41 181.632 235.445 181.629 235.48 181.632C235.514 181.636 235.548 181.646 235.578 181.663C235.608 181.68 235.635 181.702 235.657 181.729C235.679 181.756 235.695 181.787 235.705 181.82C235.714 181.853 235.718 181.888 235.714 181.923C235.71 181.957 235.7 181.99 235.683 182.021C235.667 182.051 235.644 182.078 235.617 182.1C235.59 182.121 235.559 182.137 235.526 182.147C229.987 183.77 221.518 188.431 220.173 190.246C219.231 191.516 215.539 198.094 214.319 200.298C213.689 201.437 214.492 203.235 216.038 204.145C217.635 205.085 219.302 204.528 219.991 203.448C220.731 202.288 225.33 195.39 225.376 195.321C225.401 195.284 225.435 195.253 225.474 195.233L233.534 191.038C233.565 191.022 233.599 191.012 233.633 191.009C233.668 191.006 233.702 191.01 233.735 191.02C233.768 191.03 233.799 191.047 233.826 191.07C233.852 191.092 233.874 191.119 233.89 191.15C233.957 191.279 233.907 191.438 233.778 191.505L225.778 195.669C225.334 196.334 221.137 202.631 220.436 203.731C219.9 204.571 218.879 205.151 217.715 205.151L217.715 205.152Z" fill="#4E2A09"/>
<path d="M233.882 189.598C233.882 189.598 224.465 194.276 223.108 195.58C221.751 196.883 217.935 204.397 217.236 205.66C216.537 206.924 217.364 208.869 219.051 209.862C220.727 210.848 222.562 210.331 223.361 209.079C224.108 207.909 228.743 200.957 228.743 200.957L235.377 197.505" fill="white"/>
<path d="M220.863 210.641C220.237 210.641 219.571 210.474 218.917 210.089C217.104 209.022 216.229 206.936 217.005 205.533C217.13 205.307 217.361 204.869 217.653 204.315C219.096 201.579 221.782 196.487 222.925 195.39C224.295 194.073 233.379 189.553 233.765 189.362C233.828 189.33 233.9 189.325 233.966 189.348C234.033 189.37 234.088 189.418 234.119 189.48C234.15 189.543 234.155 189.615 234.133 189.681C234.11 189.748 234.063 189.802 234 189.834C233.906 189.88 224.604 194.508 223.291 195.77C222.21 196.808 219.447 202.044 218.12 204.56C217.826 205.117 217.594 205.557 217.467 205.788C216.836 206.927 217.639 208.725 219.185 209.635C220.782 210.575 222.449 210.018 223.138 208.938C223.878 207.778 228.478 200.88 228.524 200.811C228.549 200.774 228.582 200.744 228.622 200.723L235.255 197.271C235.285 197.255 235.319 197.245 235.354 197.242C235.388 197.239 235.423 197.243 235.456 197.253C235.489 197.263 235.52 197.28 235.546 197.303C235.573 197.325 235.595 197.352 235.61 197.383C235.678 197.512 235.628 197.671 235.498 197.738L228.925 201.159C228.482 201.825 224.284 208.121 223.583 209.221C223.047 210.061 222.026 210.641 220.863 210.641L220.863 210.641Z" fill="#4E2A09"/>
<path d="M236.012 196.193C236.012 196.193 229.118 199.663 228.007 200.667C226.895 201.67 223.094 208.334 222.367 209.582C221.639 210.829 222.422 212.793 224.086 213.823C225.74 214.848 227.586 214.372 228.413 213.138C229.186 211.985 233.663 206.023 233.663 206.023L240.066 202.819" fill="white"/>
<path d="M225.959 214.645C225.311 214.645 224.62 214.464 223.947 214.047C222.159 212.94 221.331 210.834 222.139 209.449C222.207 209.332 222.302 209.168 222.42 208.965C224.297 205.721 226.9 201.311 227.83 200.471C228.955 199.455 235.611 196.1 235.893 195.958C235.924 195.942 235.958 195.933 235.993 195.93C236.027 195.928 236.062 195.932 236.095 195.943C236.128 195.954 236.158 195.971 236.184 195.994C236.211 196.016 236.232 196.044 236.248 196.075C236.263 196.106 236.273 196.139 236.275 196.174C236.278 196.208 236.274 196.243 236.263 196.276C236.252 196.309 236.235 196.339 236.212 196.365C236.189 196.392 236.162 196.413 236.131 196.429C236.062 196.463 229.256 199.894 228.184 200.862C227.207 201.744 223.948 207.377 222.877 209.228C222.759 209.432 222.663 209.597 222.595 209.714C221.939 210.84 222.701 212.655 224.225 213.599C225.801 214.575 227.48 214.056 228.194 212.992C228.962 211.845 233.269 206.108 233.452 205.865C233.476 205.832 233.508 205.805 233.544 205.787L239.948 202.583C240.078 202.517 240.237 202.57 240.302 202.701C240.368 202.831 240.315 202.989 240.184 203.054L233.836 206.231C233.403 206.808 229.355 212.206 228.632 213.285C228.09 214.094 227.09 214.645 225.959 214.645Z" fill="#4E2A09"/>
<path d="M242.877 209.233L237.925 210.851C237.925 210.851 236.472 215.451 235.879 216.619C235.287 217.788 233.985 218.442 232.1 217.829C230.384 217.271 229.014 215.934 229.525 214.367C230.036 212.8 231.641 206.323 232.797 205.391C233.952 204.46 240.952 201.098 240.952 201.098" fill="white"/>
<path d="M233.466 218.326C233.014 218.326 232.528 218.245 232.019 218.079C231.082 217.775 230.285 217.265 229.774 216.643C229.18 215.921 229.007 215.105 229.274 214.285C229.381 213.958 229.535 213.419 229.729 212.736C230.704 209.314 231.731 205.912 232.631 205.186C233.798 204.247 240.551 200.998 240.837 200.86C240.901 200.83 240.973 200.826 241.039 200.849C241.105 200.872 241.159 200.92 241.19 200.983C241.22 201.046 241.224 201.119 241.201 201.185C241.178 201.251 241.129 201.305 241.066 201.335C240.996 201.369 234.082 204.695 232.963 205.597C232.117 206.278 230.894 210.573 230.237 212.88C230.041 213.568 229.886 214.112 229.776 214.449C229.512 215.258 229.851 215.907 230.182 216.309C230.629 216.854 231.34 217.304 232.182 217.579C233.773 218.096 235.034 217.703 235.644 216.5C236.22 215.364 237.66 210.817 237.674 210.772C237.687 210.732 237.709 210.695 237.738 210.666C237.768 210.636 237.804 210.613 237.844 210.6L242.795 208.983C242.861 208.961 242.934 208.967 242.996 208.998C243.058 209.03 243.106 209.085 243.127 209.151C243.149 209.218 243.144 209.29 243.112 209.352C243.08 209.415 243.025 209.462 242.959 209.484L238.136 211.059C237.891 211.829 236.661 215.661 236.115 216.738C235.588 217.777 234.643 218.326 233.466 218.326Z" fill="#4E2A09"/>
<path d="M262.542 205.405C263.796 192.987 259.439 180.583 253.13 178.293L245.695 179.605C252.004 181.896 256.661 194.226 255.407 206.644L262.542 205.405Z" fill="white"/>
<path d="M255.407 206.908C255.37 206.908 255.334 206.9 255.3 206.885C255.266 206.87 255.236 206.848 255.211 206.821C255.187 206.794 255.168 206.761 255.156 206.726C255.145 206.691 255.141 206.654 255.144 206.618C255.742 200.705 255.029 194.596 253.139 189.417C251.313 184.414 248.567 180.928 245.605 179.853C245.55 179.833 245.504 179.796 245.473 179.747C245.441 179.698 245.427 179.64 245.432 179.582C245.437 179.524 245.461 179.47 245.5 179.427C245.54 179.384 245.592 179.356 245.649 179.346L253.084 178.033C253.13 178.025 253.177 178.029 253.22 178.045C259.678 180.39 264.067 192.932 262.805 205.432C262.799 205.489 262.775 205.543 262.736 205.585C262.696 205.627 262.644 205.655 262.588 205.665L255.452 206.904C255.437 206.906 255.422 206.908 255.407 206.908ZM246.601 179.713C249.391 181.133 251.921 184.541 253.635 189.237C255.515 194.388 256.246 200.443 255.703 206.325L262.3 205.18C262.867 199.287 262.202 193.243 260.423 188.138C258.683 183.143 256.018 179.66 253.106 178.565L246.601 179.713Z" fill="#4E2A09"/>
</g>
</g>
<defs>
<clipPath id="clip0_2061_27151">
<rect width="330" height="264" fill="white"/>
</clipPath>
<clipPath id="clip1_2061_27151">
<rect width="225.588" height="5.94" fill="white" transform="translate(67.584 201.695)"/>
</clipPath>
<clipPath id="clip2_2061_27151">
<rect width="142.692" height="149.424" fill="white" transform="translate(32.208 62.9648)"/>
</clipPath>
<clipPath id="clip3_2061_27151">
<rect width="115.896" height="156.288" fill="white" transform="translate(182.292 62.0391)"/>
</clipPath>
<clipPath id="clip4_2061_27151">
<rect width="14.52" height="12.012" fill="white" transform="translate(208.296 97.6797)"/>
</clipPath>
<clipPath id="clip5_2061_27151">
<rect width="138.072" height="50.424" fill="white" transform="translate(120.648 151.535)"/>
</clipPath>
<clipPath id="clip6_2061_27151">
<rect width="82.632" height="48.048" fill="white" transform="translate(213.576 170.279)"/>
</clipPath>
</defs>
</svg>
