<svg width="402" height="402" viewBox="0 0 402 402" fill="none" xmlns="http://www.w3.org/2000/svg">
<path d="M242.79 10.0508L242.37 48.3935L266.429 90.097L266.849 51.7543L242.79 10.0508Z" fill="#E8D9BF"/>
<path d="M252.345 65.8321L239.743 78.3584L236.267 120.482L266.476 90.2717L252.345 65.8321Z" fill="#E8D9BF"/>
<path fill-rule="evenodd" clip-rule="evenodd" d="M252.255 181.677C277.838 158.697 302.091 134.279 324.898 108.541C318.635 97.687 310.692 90.049 300.648 86.3145C271.335 119.509 239.532 150.419 205.516 178.774C199.808 190.386 195.661 195.914 182.263 196.466C181.995 204.15 181.037 211.793 179.398 219.304C179.398 219.304 185.121 229.342 200.857 230.846C215.864 232.281 259.212 214.462 259.212 214.462C280.055 219.931 300.276 227.543 319.552 237.175C326.54 228.62 332.116 219.646 332.498 208.303C311.91 197.285 290.161 188.589 267.652 182.374C262.648 180.922 257.37 180.683 252.255 181.677ZM199.1 217.461C199.101 217.707 199.052 217.95 198.959 218.177C198.865 218.405 198.727 218.611 198.553 218.785C198.379 218.959 198.173 219.096 197.946 219.19C197.718 219.284 197.475 219.332 197.229 219.332C196.859 219.333 196.497 219.224 196.188 219.018C195.88 218.813 195.64 218.52 195.498 218.178C195.357 217.836 195.32 217.459 195.393 217.096C195.465 216.733 195.644 216.4 195.907 216.138C196.168 215.876 196.501 215.697 196.864 215.624C197.228 215.552 197.604 215.589 197.946 215.73C198.289 215.872 198.581 216.112 198.786 216.42C198.992 216.728 199.101 217.091 199.1 217.461ZM226.469 198.125C226.642 197.951 226.78 197.745 226.874 197.518C226.969 197.291 227.017 197.048 227.017 196.802C227.017 196.556 226.969 196.313 226.875 196.086C226.781 195.859 226.643 195.652 226.47 195.479C226.296 195.305 226.09 195.167 225.863 195.073C225.636 194.979 225.392 194.93 225.147 194.93C224.901 194.93 224.658 194.978 224.431 195.072C224.204 195.166 223.997 195.304 223.823 195.478C223.65 195.651 223.512 195.857 223.418 196.084C223.324 196.311 223.276 196.555 223.276 196.8C223.276 197.046 223.324 197.289 223.418 197.516C223.512 197.743 223.65 197.949 223.823 198.123C223.997 198.296 224.203 198.434 224.43 198.528C224.657 198.622 224.9 198.671 225.146 198.671C225.392 198.671 225.635 198.622 225.862 198.528C226.089 198.434 226.295 198.298 226.469 198.125ZM260.357 208.601C260.357 208.847 260.309 209.09 260.215 209.317C260.121 209.544 259.983 209.75 259.808 209.923C259.635 210.098 259.429 210.236 259.202 210.33C258.975 210.425 258.732 210.473 258.486 210.473C258.24 210.473 257.997 210.425 257.77 210.33C257.543 210.236 257.337 210.098 257.163 209.923C256.989 209.75 256.851 209.544 256.756 209.317C256.662 209.09 256.613 208.847 256.613 208.601C256.613 208.355 256.662 208.112 256.756 207.885C256.851 207.658 256.989 207.452 257.163 207.278C257.337 207.104 257.543 206.966 257.77 206.871C257.997 206.777 258.24 206.728 258.486 206.728C258.732 206.728 258.975 206.777 259.202 206.871C259.429 206.966 259.635 207.104 259.808 207.278C259.983 207.452 260.121 207.658 260.215 207.885C260.309 208.112 260.357 208.355 260.357 208.601ZM295.211 199.994C295.384 199.82 295.522 199.614 295.616 199.387C295.71 199.16 295.758 198.917 295.758 198.671C295.758 198.426 295.71 198.183 295.616 197.956C295.522 197.729 295.384 197.523 295.211 197.349C295.037 197.175 294.831 197.037 294.604 196.943C294.377 196.849 294.134 196.801 293.888 196.801C293.642 196.801 293.399 196.849 293.172 196.943C292.945 197.037 292.739 197.175 292.565 197.349C292.392 197.523 292.254 197.729 292.16 197.956C292.066 198.183 292.018 198.426 292.018 198.671C292.018 198.917 292.066 199.16 292.16 199.387C292.254 199.614 292.392 199.82 292.565 199.994C292.739 200.168 292.945 200.305 293.172 200.399C293.399 200.493 293.642 200.542 293.888 200.542C294.134 200.542 294.377 200.493 294.604 200.399C294.831 200.305 295.037 200.168 295.211 199.994ZM315.465 226.092C315.466 226.338 315.417 226.581 315.323 226.808C315.229 227.035 315.091 227.241 314.917 227.414C314.743 227.589 314.537 227.727 314.31 227.821C314.083 227.916 313.84 227.964 313.594 227.964C313.348 227.964 313.105 227.916 312.878 227.821C312.651 227.727 312.445 227.589 312.271 227.414C312.097 227.241 311.959 227.035 311.864 226.808C311.77 226.581 311.722 226.338 311.722 226.092C311.722 225.846 311.77 225.603 311.864 225.376C311.959 225.149 312.097 224.943 312.271 224.769C312.445 224.595 312.651 224.457 312.878 224.362C313.105 224.268 313.348 224.219 313.594 224.219C313.84 224.219 314.083 224.268 314.31 224.362C314.537 224.457 314.743 224.595 314.917 224.769C315.091 224.943 315.229 225.149 315.323 225.376C315.417 225.603 315.466 225.846 315.465 226.092ZM218.754 179.641C218.928 179.467 219.066 179.261 219.16 179.034C219.254 178.807 219.303 178.564 219.303 178.318C219.303 178.072 219.255 177.829 219.161 177.602C219.067 177.375 218.929 177.168 218.755 176.995C218.582 176.821 218.375 176.683 218.148 176.589C217.921 176.495 217.678 176.446 217.432 176.446C217.187 176.446 216.943 176.494 216.716 176.588C216.489 176.682 216.283 176.82 216.109 176.994C215.935 177.167 215.798 177.373 215.704 177.6C215.61 177.827 215.561 178.071 215.561 178.316C215.561 178.562 215.61 178.805 215.704 179.032C215.798 179.259 215.935 179.465 216.109 179.639C216.283 179.812 216.489 179.95 216.716 180.044C216.943 180.138 217.186 180.187 217.432 180.187C217.677 180.187 217.921 180.138 218.147 180.044C218.374 179.95 218.581 179.814 218.754 179.641ZM253.292 170.373C253.293 170.743 253.183 171.105 252.978 171.413C252.773 171.721 252.48 171.962 252.138 172.103C251.796 172.245 251.419 172.282 251.056 172.209C250.693 172.137 250.36 171.958 250.098 171.695C249.925 171.522 249.787 171.315 249.693 171.088C249.599 170.862 249.55 170.618 249.55 170.373C249.55 170.127 249.599 169.884 249.693 169.657C249.787 169.43 249.925 169.224 250.098 169.05C250.272 168.876 250.478 168.739 250.705 168.645C250.932 168.551 251.175 168.502 251.421 168.502C251.666 168.502 251.91 168.551 252.137 168.645C252.363 168.739 252.57 168.876 252.743 169.05C252.917 169.224 253.055 169.43 253.149 169.657C253.244 169.884 253.292 170.127 253.292 170.373ZM259.808 140.876C259.982 140.702 260.12 140.496 260.214 140.269C260.308 140.042 260.356 139.799 260.356 139.553C260.356 139.308 260.308 139.064 260.214 138.838C260.12 138.611 259.982 138.404 259.808 138.231C259.635 138.057 259.429 137.919 259.202 137.825C258.975 137.731 258.732 137.683 258.486 137.683C258.24 137.683 257.997 137.731 257.77 137.825C257.543 137.919 257.337 138.057 257.163 138.231C256.99 138.404 256.852 138.611 256.758 138.838C256.664 139.064 256.616 139.308 256.616 139.553C256.616 139.799 256.664 140.042 256.758 140.269C256.852 140.496 256.99 140.702 257.163 140.876C257.337 141.05 257.543 141.187 257.77 141.281C257.997 141.375 258.24 141.424 258.486 141.424C258.732 141.424 258.975 141.375 259.202 141.281C259.429 141.187 259.635 141.05 259.808 140.876ZM295.759 129.929C295.76 130.3 295.651 130.662 295.445 130.97C295.24 131.278 294.947 131.518 294.605 131.66C294.263 131.802 293.886 131.839 293.523 131.766C293.16 131.693 292.827 131.514 292.565 131.252C292.392 131.078 292.254 130.872 292.16 130.645C292.066 130.418 292.018 130.175 292.018 129.929C292.018 129.684 292.066 129.441 292.16 129.214C292.254 128.987 292.392 128.781 292.565 128.607C292.739 128.433 292.945 128.295 293.172 128.201C293.399 128.107 293.642 128.059 293.888 128.059C294.134 128.059 294.377 128.107 294.604 128.201C294.831 128.295 295.037 128.433 295.211 128.607C295.385 128.78 295.522 128.987 295.617 129.214C295.711 129.44 295.759 129.684 295.759 129.929ZM303.966 98.6076C304.317 98.2568 304.514 97.7811 304.514 97.285C304.514 96.789 304.317 96.3132 303.966 95.9625C303.793 95.7888 303.586 95.651 303.359 95.557C303.132 95.463 302.889 95.4146 302.644 95.4146C302.148 95.4146 301.672 95.6117 301.321 95.9625C300.97 96.3132 300.773 96.789 300.773 97.285C300.773 97.7811 300.97 98.2568 301.321 98.6076C301.672 98.9584 302.148 99.1554 302.644 99.1554C303.14 99.1554 303.615 98.9584 303.966 98.6076Z" fill="#E8D9BF"/>
<path d="M200.847 145.548C200.504 146.197 199.024 148.833 197.535 151.578C193.678 147.801 195.386 145.014 200.847 145.548Z" fill="#796959"/>
<path d="M213.498 151.201L211.251 157.655C213.261 157.77 215.812 157.338 215.92 155.362C215.817 154.541 215.55 153.749 215.134 153.034C214.718 152.319 214.161 151.696 213.498 151.201Z" fill="#796959"/>
<path d="M189.668 119.693C190.24 122.443 190.773 124.811 191.075 126.109C192.755 125.231 193.816 124.162 193.786 123.016C193.764 121.524 192.228 120.381 189.668 119.693Z" fill="#796959"/>
<path d="M176.607 127.522C170.42 126.033 170.229 122.328 176.225 120.189C176.52 122.622 176.647 125.074 176.607 127.522Z" fill="#796959"/>
<path d="M371.758 233.233C371.605 231.858 365.304 229.071 357.971 226.283C351.097 223.648 338.914 217.841 331.811 214.291C330.376 220.626 327.617 226.585 323.715 231.778C329.29 234.451 334.637 237.621 337.883 237.888C340.03 238.015 342.182 237.73 344.223 237.048C352.854 234.303 372.252 238.16 371.758 233.233Z" fill="#796959"/>
<path d="M336.273 53.2433C334.898 53.0905 330.846 58.7044 326.573 65.2731C322.83 71.0398 313.932 82.4968 307.936 89.9439C313.086 93.2908 317.546 97.595 321.073 102.623C325.351 96.6653 332.569 91.2041 333.714 87.347C334.277 85.2706 334.444 83.1059 334.211 80.9692C333.377 71.9584 341.206 53.7779 336.273 53.2433Z" fill="#796959"/>
<path d="M148.231 143.449C149.313 142.733 150.124 141.675 150.534 140.445C150.945 139.215 150.931 137.882 150.496 136.66C150.061 135.439 149.229 134.398 148.133 133.704C147.038 133.01 145.741 132.703 144.451 132.832C145.166 131.78 145.513 130.521 145.44 129.251C145.366 127.982 144.876 126.772 144.044 125.809C143.212 124.847 142.086 124.186 140.84 123.929C139.594 123.673 138.299 123.835 137.154 124.39C139.05 118.721 131.199 114.235 127.074 119.234C127.042 117.832 126.52 116.486 125.598 115.429C124.677 114.372 123.414 113.671 122.029 113.449C120.645 113.227 119.226 113.496 118.02 114.211C116.813 114.926 115.896 116.041 115.426 117.363C113.155 111.391 104.237 113.015 104.237 119.119C103.326 118.224 102.144 117.655 100.876 117.503C99.6082 117.351 98.3254 117.624 97.229 118.279C96.1326 118.934 95.2845 119.934 94.8176 121.123C94.3506 122.312 94.2913 123.622 94.6489 124.848C93.468 124.32 92.1443 124.203 90.8892 124.516C89.634 124.828 88.5197 125.552 87.7242 126.572C86.9287 127.592 86.4979 128.849 86.5005 130.143C86.503 131.436 86.9389 132.691 87.7385 133.708C86.3807 133.554 85.0122 133.885 83.8753 134.643C82.7384 135.402 81.9065 136.538 81.5269 137.85C81.1472 139.163 81.2444 140.568 81.8011 141.816C82.3579 143.064 83.3383 144.074 84.5687 144.669C83.2162 144.854 81.9732 145.513 81.0604 146.528C80.1476 147.543 79.6242 148.849 79.583 150.214C79.5417 151.578 79.9855 152.913 80.8353 153.981C81.6852 155.05 82.8861 155.782 84.225 156.049C79.0513 159.45 82.4281 167.522 88.044 166.59C87.3374 167.651 86.9996 168.914 87.0825 170.186C87.1654 171.458 87.6645 172.668 88.5028 173.628C89.3411 174.588 90.4721 175.246 91.7212 175.499C92.9703 175.753 94.2682 175.589 95.4147 175.032C93.5052 180.75 101.575 185.134 105.497 180.111C105.504 181.481 105.997 182.805 106.89 183.845C107.782 184.885 109.015 185.575 110.368 185.79C111.721 186.006 113.107 185.734 114.279 185.022C115.45 184.311 116.33 183.206 116.763 181.906C117.081 182.787 117.609 183.578 118.302 184.208C118.995 184.839 119.831 185.29 120.739 185.524C121.646 185.757 122.597 185.765 123.508 185.547C124.419 185.33 125.263 184.892 125.967 184.274C124.113 178.653 122.596 172.927 121.422 167.126C117.897 151.754 118.755 157.374 117.068 150.628C112.256 149.597 113.746 143.907 117.107 145.702C118.715 146.58 119.283 146.466 119.283 145.434C119.742 136.956 126.081 134.321 130.779 142.685C134.445 149.215 136.889 161.054 130.206 162.734C129.51 162.929 128.789 163.019 128.067 163.002C128.067 164.769 131.979 170.31 132.726 171.243C135.022 170.866 137.368 170.931 139.639 171.434L145.327 169.715C145.515 169.043 145.541 168.335 145.401 167.651C145.261 166.967 144.96 166.326 144.523 165.782C145.878 165.945 147.248 165.623 148.388 164.872C149.528 164.121 150.366 162.991 150.751 161.681C151.137 160.371 151.046 158.967 150.494 157.718C149.943 156.47 148.967 155.457 147.739 154.859C149.092 154.683 150.34 154.035 151.263 153.029C152.185 152.023 152.723 150.724 152.782 149.361C152.841 147.997 152.417 146.657 151.584 145.575C150.752 144.494 149.565 143.741 148.231 143.449Z" fill="#796959"/>
<path d="M128.218 163.039C126.511 162.911 124.835 162.511 123.253 161.855L129.824 166.744C129.048 165.628 128.5 164.369 128.218 163.039Z" fill="#796959"/>
<path d="M182.259 196.531C174.79 197.148 167.292 197.327 159.803 197.066L182.068 201.992C182.227 200.177 182.289 198.354 182.259 196.531Z" fill="#796959"/>
<path d="M111.569 65.2346C111.567 67.9304 110.698 70.554 109.091 72.7181C107.483 74.8822 105.222 76.4719 102.642 77.2527C100.062 78.0334 97.2989 77.9637 94.7613 77.0539C92.2237 76.1441 90.046 74.4423 88.5496 72.2C87.0533 69.9576 86.3177 67.2935 86.4515 64.6011C86.5853 61.9086 87.5814 59.3306 89.2926 57.2476C91.0039 55.1646 93.3396 53.6872 95.9549 53.0334C98.5702 52.3796 101.326 52.5841 103.817 53.6168C106.114 54.5677 108.078 56.1795 109.458 58.2479C110.838 60.3163 111.573 62.748 111.569 65.2346Z" fill="#796959"/>
<path d="M191.653 251.717C191.13 244.246 192.144 236.746 194.632 229.682" stroke="#4E2A09" stroke-width="0.75" stroke-linecap="round" stroke-linejoin="round"/>
<path d="M195.205 148.147L193.792 123.018" stroke="#4E2A09" stroke-width="0.75" stroke-linecap="round" stroke-linejoin="round"/>
<path d="M174.277 166.171L171.833 124.162" stroke="#4E2A09" stroke-width="0.75" stroke-linecap="round" stroke-linejoin="round"/>
<path d="M129.9 166.897L123.102 161.779" stroke="#4E2A09" stroke-width="0.75" stroke-linecap="round" stroke-linejoin="round"/>
<path d="M123.102 161.779C138.226 167.622 135.51 150.935 130.893 142.722C126.192 134.36 119.856 136.993 119.398 145.472C119.398 146.503 118.829 146.609 117.221 145.739C113.87 143.93 112.371 149.634 117.183 150.665C117.832 153.301 118.375 154.75 119.016 156.852C119.713 159.142 121.026 164.836 121.537 167.163C123.928 178.136 126.192 187.177 130.783 194.24C143.337 213.572 159.349 220.057 179.398 219.365C181.037 211.854 181.995 204.211 182.263 196.528C196.469 195.344 199.987 192.274 211.745 165.25C212.925 162.536 214.157 159.636 215.526 156.428" stroke="#4E2A09" stroke-width="0.75" stroke-linecap="round" stroke-linejoin="round"/>
<path d="M132.879 171.29C130.822 168.86 129.242 166.064 128.22 163.049" stroke="#4E2A09" stroke-width="0.75" stroke-linecap="round" stroke-linejoin="round"/>
<path d="M195.205 148.139C192.379 155.013 185.911 169.276 180.349 173.077C173.344 177.865 141.93 171.855 141.93 171.855C136.812 170.785 132.268 170.212 128.22 173.344" stroke="#4E2A09" stroke-width="0.75" stroke-linecap="round" stroke-linejoin="round"/>
<path d="M139.755 171.441L173.971 161.016" stroke="#4E2A09" stroke-width="0.75" stroke-linecap="round" stroke-linejoin="round"/>
<path d="M208.419 124.849C211.13 122.405 216.861 115.654 220.105 112.018C221.599 110.341 222.316 114.844 213.46 125.269" stroke="#4E2A09" stroke-width="0.75" stroke-linecap="round" stroke-linejoin="round"/>
<path d="M211.251 126.832C214.344 124.77 218.334 121.498 222.059 118.621C223.805 117.273 225.152 119.844 216.029 128.398" stroke="#4E2A09" stroke-width="0.75" stroke-linecap="round" stroke-linejoin="round"/>
<path d="M213.498 151.201C216.513 154.015 216.027 155.593 215.522 156.427C212.728 160.154 198.045 154.952 195.688 149.036C194.733 146.644 196.725 145.143 200.847 145.543" stroke="#4E2A09" stroke-width="0.75" stroke-linecap="round" stroke-linejoin="round"/>
<path d="M211.251 157.655L213.504 151.201C215.49 145.129 215.948 143.639 214.879 139.858C214.039 136.88 213.203 135.473 215.07 134.359C225.208 128.317 225.46 125.541 223.472 126.224C219.235 127.684 216.598 128.249 213.772 128.974" stroke="#4E2A09" stroke-width="0.75" stroke-linecap="round" stroke-linejoin="round"/>
<path d="M201.583 138.102C200.434 134.228 198.669 130.563 196.357 127.248C194.982 125.339 196.357 123.468 202.238 129.922" stroke="#4E2A09" stroke-width="0.75" stroke-linecap="round" stroke-linejoin="round"/>
<path d="M176.225 120.199C170.241 122.308 170.366 126.079 176.607 127.532C181.457 128.619 186.528 128.127 191.079 126.125C195.36 123.888 194.295 121.011 189.672 119.709" stroke="#4E2A09" stroke-width="0.75" stroke-linecap="round" stroke-linejoin="round"/>
<path d="M182.447 113.89C181.877 112.515 181.418 111.369 180.96 110.338C178.388 104.841 175.184 99.6636 171.413 94.9093C166.818 89.7657 165.845 91.2752 168.699 96.9334C173.362 106.179 177 117.22 176.606 127.524" stroke="#4E2A09" stroke-width="0.75" stroke-linecap="round" stroke-linejoin="round"/>
<path d="M172.749 96.5123C172.477 93.965 172.58 91.3916 173.055 88.8743C173.246 88.1868 174.233 87.5396 175.117 91.8149C175.306 92.7315 176.188 96.665 176.568 98.0459C177.219 100.871 178.048 103.651 179.051 106.371" stroke="#4E2A09" stroke-width="0.75" stroke-linecap="round" stroke-linejoin="round"/>
<path d="M180.96 110.338C182.832 112.935 184.464 106.057 185.505 103.235C186.452 100.672 188.52 98.1956 188.064 105.679C187.746 110.949 189.722 120.332 191.079 126.11" stroke="#4E2A09" stroke-width="0.75" stroke-linecap="round" stroke-linejoin="round"/>
<path d="M205.936 193.21L250.58 182.107C256.196 180.699 262.083 180.792 267.651 182.374C290.161 188.589 311.91 197.285 332.498 208.303C332.116 219.646 326.54 228.621 319.552 237.175C300.276 227.543 280.054 219.931 259.211 214.462C259.211 214.462 215.864 232.281 200.857 230.846C185.121 229.342 179.35 219.274 179.35 219.274" stroke="#4E2A09" stroke-width="0.75" stroke-linecap="round" stroke-linejoin="round"/>
<path d="M252.255 181.677C277.838 158.697 302.091 134.279 324.898 108.541C318.635 97.687 310.692 90.049 300.648 86.3145C271.335 119.509 239.532 150.419 205.516 178.774" stroke="#4E2A09" stroke-width="0.75" stroke-linecap="round" stroke-linejoin="round"/>
<path d="M371.757 233.233C371.605 231.858 365.303 229.071 357.971 226.283C351.097 223.648 338.914 217.841 331.811 214.291C330.376 220.626 327.616 226.585 323.714 231.778C329.29 234.451 334.637 237.621 337.883 237.888C340.03 238.015 342.182 237.73 344.222 237.048C352.853 234.303 372.252 238.16 371.757 233.233Z" stroke="#4E2A09" stroke-width="0.75" stroke-linecap="round" stroke-linejoin="round"/>
<path d="M336.273 53.2433C334.898 53.0905 330.846 58.7044 326.573 65.2731C322.83 71.0398 313.932 82.4968 307.936 89.9439C313.086 93.2908 317.546 97.595 321.073 102.623C325.351 96.6653 332.569 91.2041 333.714 87.347C334.277 85.2706 334.444 83.1059 334.211 80.9692C333.377 71.9584 341.206 53.7779 336.273 53.2433Z" stroke="#4E2A09" stroke-width="0.75" stroke-linecap="round" stroke-linejoin="round"/>
<path d="M145.444 169.723C145.568 168.726 145.504 167.717 145.253 166.744C145.088 166.404 144.886 166.084 144.65 165.789C146.007 165.959 147.381 165.64 148.526 164.89C149.671 164.14 150.511 163.007 150.898 161.694C151.284 160.381 151.192 158.974 150.636 157.723C150.081 156.473 149.099 155.46 147.866 154.867C149.231 154.696 150.491 154.043 151.419 153.026C152.347 152.01 152.882 150.696 152.928 149.32C152.974 147.945 152.528 146.598 151.67 145.522C150.812 144.445 149.599 143.71 148.247 143.448C149.235 142.802 150.002 141.87 150.445 140.776C150.888 139.682 150.987 138.479 150.727 137.328C150.468 136.176 149.864 135.132 148.994 134.334C148.125 133.535 147.033 133.022 145.864 132.861C145.398 132.795 144.926 132.782 144.457 132.823C144.965 132.096 145.292 131.258 145.411 130.379C145.516 129.627 145.471 128.861 145.28 128.126C145.089 127.391 144.755 126.701 144.296 126.096C143.838 125.49 143.265 124.98 142.61 124.596C141.955 124.212 141.231 123.961 140.479 123.856C139.343 123.695 138.184 123.882 137.156 124.391C137.503 123.11 137.398 121.749 136.86 120.536C136.323 119.324 135.384 118.332 134.203 117.729C133.021 117.126 131.668 116.947 130.37 117.223C129.072 117.498 127.908 118.212 127.074 119.244C127.081 117.845 126.582 116.492 125.67 115.432C124.758 114.372 123.493 113.678 122.109 113.477L121.728 113.4C120.378 113.217 119.007 113.515 117.855 114.241C116.703 114.967 115.843 116.076 115.426 117.372C114.976 116.167 114.137 115.145 113.041 114.47C111.945 113.795 110.656 113.504 109.377 113.644C108.097 113.784 106.901 114.346 105.977 115.242C105.053 116.138 104.454 117.316 104.275 118.59C104.243 118.767 104.23 118.946 104.237 119.125C103.358 118.25 102.219 117.686 100.99 117.517C100.238 117.41 99.4728 117.453 98.7375 117.643C98.0022 117.833 97.3118 118.167 96.7058 118.624C96.0999 119.082 95.5904 119.655 95.2067 120.311C94.8229 120.966 94.5726 121.691 94.4699 122.443C94.3594 123.251 94.4297 124.076 94.6709 124.855C94.1751 124.625 93.6472 124.47 93.1051 124.397C92.1578 124.264 91.1921 124.368 90.2949 124.7C89.3977 125.032 88.597 125.582 87.9646 126.3C87.3322 127.018 86.8879 127.881 86.6716 128.813C86.4554 129.745 86.4738 130.716 86.7254 131.639C86.9264 132.393 87.2802 133.098 87.7585 133.716C86.397 133.552 85.0218 133.879 83.8785 134.636C82.7353 135.393 81.8985 136.532 81.5175 137.849C81.1366 139.167 81.2363 140.576 81.7989 141.827C82.3615 143.077 83.3503 144.087 84.5888 144.676C83.2303 144.854 81.9794 145.509 81.0601 146.525C80.1409 147.541 79.6133 148.851 79.572 150.22C79.5306 151.589 79.9781 152.929 80.8344 153.998C81.6907 155.068 82.8998 155.797 84.245 156.057C83.5606 156.506 82.9811 157.098 82.5461 157.792C82.1112 158.485 81.8309 159.265 81.7245 160.077C81.5189 161.59 81.919 163.123 82.8378 164.343C83.7565 165.563 85.1197 166.371 86.6309 166.591C87.0972 166.665 87.5716 166.665 88.0379 166.591C87.5577 167.329 87.2448 168.163 87.1214 169.035C86.9773 170.077 87.1195 171.138 87.5326 172.105C87.9457 173.072 88.6142 173.909 89.4664 174.525C90.3187 175.141 91.3225 175.514 92.3704 175.603C93.4182 175.692 94.4706 175.494 95.4146 175.031C95.3447 175.256 95.2936 175.486 95.2619 175.718C95.1528 176.471 95.1939 177.238 95.383 177.975C95.5721 178.712 95.9053 179.404 96.3634 180.011C96.8215 180.618 97.3954 181.129 98.0519 181.513C98.7084 181.897 99.4346 182.147 100.188 182.249C101.183 182.395 102.199 182.273 103.132 181.898C104.065 181.522 104.881 180.905 105.497 180.11C105.495 181.486 105.984 182.817 106.876 183.864C107.768 184.911 109.005 185.605 110.363 185.821C111.721 186.038 113.112 185.762 114.285 185.044C115.459 184.326 116.337 183.213 116.763 181.905C117.081 182.787 117.609 183.577 118.302 184.208C118.995 184.838 119.831 185.29 120.739 185.523C121.646 185.757 122.597 185.765 123.508 185.547C124.419 185.329 125.263 184.892 125.967 184.273" stroke="#4E2A09" stroke-width="0.75" stroke-linecap="round" stroke-linejoin="round"/>
<path d="M121.804 168.31L129.9 166.896" stroke="#4E2A09" stroke-width="0.75" stroke-linecap="round" stroke-linejoin="round"/>
<path d="M341.358 342.037C338.466 341.051 335.816 339.462 333.585 337.375C331.353 335.288 329.59 332.75 328.412 329.931L323.562 318.397L342.198 310.912L343.955 315.037C345.84 319.532 349.381 323.131 353.846 325.087L374.622 334.252C374.903 334.372 375.157 334.546 375.37 334.766C375.582 334.985 375.749 335.245 375.859 335.53C375.969 335.815 376.021 336.119 376.012 336.424C376.003 336.729 375.933 337.03 375.806 337.307C374.04 341.243 370.868 344.376 366.912 346.093C362.955 347.81 358.499 347.987 354.419 346.588L341.358 342.037Z" stroke="#4E2A09" stroke-width="0.75" stroke-linecap="round" stroke-linejoin="round"/>
<path d="M323.562 318.397L342.198 310.912L336.241 296.858C336.07 296.47 335.757 296.162 335.366 295.999C334.975 295.836 334.536 295.828 334.14 295.979L318.559 302.21C318.26 302.335 318.005 302.545 317.826 302.814C317.646 303.084 317.551 303.4 317.552 303.724C317.553 303.939 317.597 304.151 317.68 304.349L323.562 318.397Z" stroke="#4E2A09" stroke-width="0.75" stroke-linecap="round" stroke-linejoin="round"/>
<path d="M191.539 156.395C194.039 159.275 197.149 161.562 200.644 163.089C204.138 164.616 207.93 165.345 211.741 165.222" stroke="#4E2A09" stroke-width="0.75" stroke-linecap="round" stroke-linejoin="round"/>
<path d="M172.329 132.565C175.83 134.02 179.604 134.703 183.392 134.568C187.181 134.433 190.896 133.483 194.285 131.783" stroke="#4E2A09" stroke-width="0.75" stroke-linecap="round" stroke-linejoin="round"/>
<path d="M71.0876 259.355L243.363 343.068" stroke="#4E2A09" stroke-width="0.75" stroke-linecap="round" stroke-linejoin="round"/>
<path d="M278.765 346.199C279.779 344.107 279.922 341.698 279.163 339.501C278.404 337.303 276.805 335.496 274.717 334.475L260.586 327.641C258.494 326.627 256.085 326.484 253.888 327.243C251.69 328.002 249.883 329.6 248.862 331.689L229.041 372.476C228.028 374.568 227.884 376.977 228.643 379.175C229.402 381.372 231.001 383.179 233.09 384.2L247.22 391.075C249.312 392.088 251.721 392.232 253.918 391.473C256.116 390.714 257.923 389.115 258.944 387.026L278.765 346.199Z" stroke="#4E2A09" stroke-width="0.75" stroke-linecap="round" stroke-linejoin="round"/>
<path d="M65.4736 232.813L71.3167 220.822C74.1871 214.92 79.2821 210.399 85.4828 208.251C91.6836 206.103 98.4834 206.504 104.389 209.365L262.038 285.946C267.939 288.816 272.46 293.911 274.608 300.112C276.756 306.313 276.355 313.112 273.495 319.018L267.651 331.048" stroke="#4E2A09" stroke-width="0.75" stroke-linecap="round" stroke-linejoin="round"/>
<path d="M45.0439 292.848L233.128 384.198" stroke="#4E2A09" stroke-width="0.75" stroke-linecap="round" stroke-linejoin="round"/>
<path d="M339.716 135.314L342.771 154.868" stroke="#4E2A09" stroke-width="0.75" stroke-linecap="round" stroke-linejoin="round"/>
<path d="M351.02 143.562L331.467 146.618" stroke="#4E2A09" stroke-width="0.75" stroke-linecap="round" stroke-linejoin="round"/>
<path d="M111.569 65.2346C111.567 67.9304 110.698 70.554 109.091 72.7181C107.483 74.8822 105.222 76.4719 102.642 77.2527C100.062 78.0334 97.2989 77.9637 94.7613 77.0539C92.2237 76.1441 90.046 74.4423 88.5496 72.2C87.0533 69.9576 86.3177 67.2935 86.4515 64.6011C86.5853 61.9086 87.5814 59.3306 89.2926 57.2476C91.0039 55.1646 93.3396 53.6872 95.9549 53.0334C98.5702 52.3796 101.326 52.5841 103.817 53.6168C106.114 54.5677 108.078 56.1795 109.458 58.2479C110.838 60.3163 111.573 62.748 111.569 65.2346Z" stroke="#4E2A09" stroke-width="0.75" stroke-linecap="round" stroke-linejoin="round"/>
<path d="M96.6808 43.7726C98.2733 46.4596 99.0785 49.5402 99.0044 52.6628C96.1522 51.4161 93.7051 49.3972 91.9392 46.8338C90.3432 44.145 89.5359 41.0615 89.6096 37.9355C92.465 39.1835 94.9144 41.2054 96.6808 43.7726Z" stroke="#4E2A09" stroke-width="0.75" stroke-linecap="round" stroke-linejoin="round"/>
<path d="M182.038 201.988L159.803 197.029" stroke="#4E2A09" stroke-width="0.75" stroke-linecap="round" stroke-linejoin="round"/>
<path d="M182.259 196.533C168.815 197.734 155.276 197.324 141.93 195.311" stroke="#4E2A09" stroke-width="0.75" stroke-linecap="round" stroke-linejoin="round"/>
<path d="M43.2471 176.369L44.1254 181.257" stroke="#4E2A09" stroke-width="0.75" stroke-linecap="round" stroke-linejoin="round"/>
<path d="M40.3065 186.68L35.4182 187.558" stroke="#4E2A09" stroke-width="0.75" stroke-linecap="round" stroke-linejoin="round"/>
<path d="M54.4367 184.236L49.5483 185.077" stroke="#4E2A09" stroke-width="0.75" stroke-linecap="round" stroke-linejoin="round"/>
<path d="M46.5697 195.386L45.7295 190.498" stroke="#4E2A09" stroke-width="0.75" stroke-linecap="round" stroke-linejoin="round"/>
<path d="M49.5485 185.075C48.9412 185.182 48.3187 185.168 47.7167 185.034C47.1148 184.9 46.5453 184.649 46.0409 184.294C45.5366 183.939 45.1074 183.488 44.7779 182.966C44.4485 182.445 44.2255 181.864 44.1215 181.256C44.2289 181.863 44.2151 182.486 44.0811 183.088C43.947 183.69 43.6953 184.259 43.3404 184.763C42.9855 185.268 42.5344 185.697 42.0131 186.026C41.4917 186.356 40.9104 186.579 40.3025 186.683C40.9098 186.575 41.5323 186.589 42.1342 186.723C42.7362 186.857 43.3057 187.109 43.8101 187.464C44.3144 187.819 44.7436 188.27 45.073 188.791C45.4024 189.313 45.6255 189.894 45.7295 190.502C45.6221 189.895 45.6358 189.272 45.7699 188.67C45.9039 188.068 46.1556 187.499 46.5106 186.994C46.8655 186.49 47.3166 186.061 47.8379 185.731C48.3593 185.402 48.9406 185.179 49.5485 185.075Z" stroke="#4E2A09" stroke-width="0.75" stroke-linecap="round" stroke-linejoin="round"/>
<path d="M312.028 233.539C315.385 247.69 313.559 262.575 306.881 275.495C300.204 288.415 289.118 298.514 275.633 303.961" stroke="#4E2A09" stroke-width="0.75" stroke-linecap="round" stroke-linejoin="round"/>
<path d="M197.535 151.584C199.024 148.834 200.819 145.588 200.819 145.588C201.659 143.869 201.458 130.231 202.767 127.297C203.108 126.533 209.494 119.056 212.505 115.42C215.068 112.33 217.432 111.983 211.054 122.179" stroke="#4E2A09" stroke-width="0.75" stroke-linecap="round" stroke-linejoin="round"/>
<path d="M76.5809 247.975C77.5953 245.883 77.7387 243.474 76.9799 241.277C76.2211 239.079 74.6219 237.272 72.5328 236.251L58.4407 229.417C56.3485 228.403 53.9396 228.259 51.7419 229.018C49.5441 229.777 47.7369 231.376 46.7163 233.465L26.8575 274.252C25.8432 276.344 25.6997 278.753 26.4585 280.951C27.2173 283.149 28.8166 284.956 30.9057 285.976L45.036 292.851C47.1281 293.865 49.537 294.009 51.7348 293.25C53.9325 292.491 55.7397 290.892 56.7603 288.803L76.5809 247.975Z" stroke="#4E2A09" stroke-width="0.75" stroke-linecap="round" stroke-linejoin="round"/>
<path d="M242.79 10.0508L242.37 48.3935L266.429 90.097L266.849 51.7543L242.79 10.0508Z" stroke="#4E2A09" stroke-width="0.75" stroke-linejoin="round"/>
<path d="M252.345 65.8321L239.743 78.3584L236.267 120.482L266.476 90.2717L252.345 65.8321Z" stroke="#4E2A09" stroke-width="0.75" stroke-linejoin="round"/>
</svg>
