<svg width="330" height="292" viewBox="0 0 330 292" fill="none" xmlns="http://www.w3.org/2000/svg">
<g clip-path="url(#clip0_2061_26933)">
<path d="M0 0H330V292H0V0Z" fill="white"/>
<g clip-path="url(#clip1_2061_26933)">
<path d="M26.8384 217.346H301.44V223.851H26.8384V217.346Z" fill="#FEFEFE"/>
<path d="M301.44 224.144H26.8383C26.7601 224.144 26.6851 224.113 26.6298 224.058C26.5745 224.003 26.5435 223.929 26.5435 223.851V217.346C26.5435 217.268 26.5745 217.193 26.6298 217.139C26.6851 217.084 26.7601 217.053 26.8383 217.053H301.44C301.518 217.053 301.593 217.084 301.648 217.139C301.704 217.193 301.735 217.268 301.735 217.346V223.851C301.735 223.89 301.727 223.928 301.712 223.963C301.698 223.999 301.676 224.031 301.648 224.058C301.621 224.086 301.589 224.107 301.553 224.122C301.517 224.137 301.479 224.144 301.44 224.144ZM27.1332 223.558H301.145V217.639H27.1332V223.558Z" fill="#4E2A09"/>
</g>
<g clip-path="url(#clip2_2061_26933)">
<path d="M115.95 63.3481C125.214 65.8165 134.097 73.0691 134.094 83.4688C134.092 91.2029 129.618 92.1134 129.618 92.1134C129.618 92.1134 118.005 92.8091 112.714 99.3344C107.645 105.585 102.966 140.966 92.1823 147.105C83.8315 151.859 65.2686 153.789 57.3013 148.718C49.3339 143.647 50.0732 132.16 53.5667 125.396C59.3423 114.215 73.9228 114.116 78.8815 97.4173C80.7087 91.2639 80.3141 80.2225 89.7142 70.1459C95.9872 63.4217 105.826 60.6506 115.95 63.3481Z" fill="#796959"/>
<path d="M71.1442 152.022C65.2261 152.022 60.2308 150.953 57.1253 148.977C52.4565 146.005 51.1179 141.214 50.8169 137.717C50.4617 133.589 51.3827 128.931 53.2803 125.257C55.7683 120.441 59.8097 117.69 64.0883 114.776C69.8221 110.873 75.7513 106.836 78.5737 97.3312C79.0016 95.8906 79.3019 94.203 79.6498 92.2489C80.743 86.1068 82.2401 77.6951 89.4764 69.9379C92.6281 66.5594 96.7178 64.1308 101.303 62.9144C105.968 61.6773 111.062 61.7236 116.035 63.0488C125.185 65.487 134.417 72.7464 134.414 83.4684C134.413 85.7281 134.01 88.8515 132.092 90.899C130.917 92.1536 129.733 92.4061 129.683 92.4162C129.668 92.4193 129.653 92.4213 129.637 92.4222C129.522 92.4291 118.105 93.1869 112.965 99.5253C111.098 101.827 109.256 108.269 107.122 115.727C103.585 128.091 99.1837 143.478 92.3445 147.372C88.2267 149.716 81.435 151.453 74.6196 151.905C73.4328 151.983 72.2714 152.022 71.1442 152.022ZM108.291 62.6392C105.96 62.6392 103.667 62.9301 101.473 63.5122C97.0051 64.6972 93.0213 67.0628 89.9517 70.3533C82.8396 77.9773 81.3607 86.2869 80.2808 92.3541C79.9297 94.3262 79.6267 96.0291 79.1892 97.5026C76.3043 107.218 70.2812 111.318 64.4566 115.283C60.246 118.15 56.2687 120.858 53.8531 125.535C52.0055 129.111 51.1092 133.646 51.4552 137.666C51.7443 141.025 53.0237 145.624 57.4772 148.459C61.0593 150.739 67.2918 151.769 74.5761 151.286C81.2984 150.841 87.9825 149.136 92.02 146.837C98.6357 143.071 102.999 127.818 106.505 115.561C108.657 108.039 110.516 101.542 112.462 99.1426C115.248 95.7066 119.764 93.894 123.061 92.9785C126.436 92.0417 129.264 91.8264 129.57 91.8054C129.913 91.7245 133.772 90.6528 133.774 83.4683C133.777 73.0726 124.781 66.022 115.865 63.6463C113.347 62.9752 110.797 62.6392 108.291 62.6392Z" fill="#796959"/>
<path d="M150.703 217.289C119.218 216.506 123.689 171.291 114.17 148.203C101.403 143.14 105.73 124.79 119.74 124.287C128.858 123.982 138.056 130.848 141.796 141.766C146.302 153.87 148.809 172.484 152.947 185.197C154.496 189.979 155.804 192.44 156.588 193.632C174.577 194.16 170.045 217.714 150.703 217.289Z" fill="#FEFEFE"/>
<path d="M151.23 217.606C151.054 217.606 150.876 217.604 150.696 217.6H150.695C140.569 217.348 133.228 212.503 128.252 202.789C123.883 194.259 121.823 183.118 119.832 172.345C118.193 163.477 116.644 155.097 113.922 148.44C108.321 146.158 105.398 140.936 106.47 135.097C107.449 129.765 111.928 124.259 119.729 123.979C129.223 123.662 138.423 130.936 142.1 141.67C144.536 148.212 146.412 156.761 148.227 165.028C149.763 172.027 151.351 179.265 153.252 185.106C154.717 189.627 155.959 192.062 156.769 193.329C165.425 193.653 168.356 199.1 168.23 203.692C168.135 207.185 166.418 210.673 163.521 213.261C161.283 215.261 157.351 217.606 151.23 217.606ZM150.711 216.981C156.927 217.117 160.871 214.785 163.087 212.806C165.858 210.33 167.499 207.003 167.59 203.676C167.661 201.094 166.755 198.735 165.039 197.036C163.102 195.118 160.177 194.049 156.579 193.943C156.527 193.942 156.476 193.928 156.43 193.903C156.385 193.878 156.347 193.843 156.319 193.8C155.492 192.543 154.182 190.047 152.641 185.292C150.731 179.423 149.14 172.171 147.6 165.157C145.79 156.91 143.919 148.382 141.496 141.873C137.979 131.61 129.335 124.589 120.329 124.589C120.136 124.589 119.945 124.592 119.752 124.598C112.309 124.866 108.035 130.118 107.101 135.206C106.631 137.765 106.989 140.372 108.111 142.545C109.35 144.948 111.487 146.805 114.292 147.917C114.372 147.949 114.435 148.011 114.467 148.089C117.244 154.824 118.807 163.282 120.462 172.236C122.446 182.966 124.497 194.063 128.826 202.514C131.152 207.055 133.909 210.42 137.253 212.801C141.018 215.482 145.421 216.849 150.711 216.981Z" fill="#4E2A09"/>
<path d="M127.357 125.457C122.678 123.865 118.037 122.716 109.626 121.741L90.6856 118.905C81.0156 118.557 66.247 119.48 59.4216 125.948C50.0289 134.849 53.6618 160.487 56.9851 167.397C55.5625 187.629 53.7761 199.155 50.0588 217.289H125.35C125.35 217.289 123.544 192.732 125.628 182.607C126.696 177.414 129.926 171.837 129.906 166.518C129.891 162.364 126.904 151.711 126.904 151.711" fill="#FEFEFE"/>
<path d="M125.35 217.601H50.0587C50.0113 217.601 49.9646 217.591 49.9219 217.571C49.8791 217.551 49.8414 217.523 49.8113 217.487C49.7813 217.452 49.7598 217.411 49.7482 217.366C49.7367 217.322 49.7354 217.275 49.7446 217.231C53.3351 199.716 55.1874 188.361 56.66 167.457C55.8141 165.666 54.9658 162.706 54.3279 159.314C53.6042 155.468 53.1847 151.357 53.1146 147.426C53.032 142.794 53.4306 138.66 54.2994 135.138C55.3179 131.009 56.9659 127.843 59.1975 125.728C62.2912 122.797 67.2482 120.724 73.9304 119.567C80.1515 118.491 86.4821 118.445 90.6973 118.597C90.7098 118.597 90.7221 118.598 90.7342 118.6L109.674 121.436C118.296 122.436 122.874 123.604 127.463 125.166C127.543 125.193 127.608 125.25 127.645 125.324C127.682 125.398 127.687 125.483 127.658 125.561C127.63 125.638 127.571 125.702 127.495 125.738C127.418 125.773 127.33 125.778 127.25 125.751C122.703 124.203 118.162 123.044 109.587 122.05L90.655 119.216C70.0711 118.479 62.1119 123.834 59.6455 126.171C50.4134 134.92 53.9757 160.407 57.2753 167.268C57.2982 167.315 57.3082 167.368 57.3046 167.42C55.8484 188.13 53.9283 199.971 50.4486 216.981H125.007C124.803 214.007 123.377 191.958 125.314 182.548C125.735 180.498 126.502 178.356 127.244 176.284C128.402 173.052 129.598 169.709 129.586 166.521C129.571 162.456 126.624 151.901 126.595 151.794C126.572 151.715 126.584 151.63 126.626 151.559C126.668 151.488 126.738 151.436 126.82 151.414C126.902 151.393 126.989 151.404 127.063 151.445C127.136 151.486 127.19 151.553 127.213 151.632C127.335 152.069 130.21 162.372 130.226 166.519C130.239 169.812 129.024 173.205 127.849 176.487C127.08 178.633 126.354 180.661 125.941 182.669C123.89 192.638 125.651 217.023 125.669 217.269C125.672 217.311 125.666 217.354 125.652 217.394C125.637 217.434 125.614 217.471 125.584 217.502C125.554 217.533 125.518 217.558 125.478 217.575C125.437 217.592 125.394 217.601 125.35 217.601Z" fill="#4E2A09"/>
<path d="M110.834 117.511L109.625 121.742L114.305 122.317C111.874 127.926 107.148 130.089 100.531 129.837C93.2104 129.559 86.0992 125.592 84.7036 118.878L90.6854 118.906L96.5128 99.3574" fill="#FEFEFE"/>
<path d="M101.533 130.165C101.2 130.165 100.863 130.159 100.518 130.146C96.7456 130.002 93.0871 128.894 90.2168 127.027C87.0805 124.986 85.0655 122.189 84.3898 118.938C84.3805 118.893 84.3816 118.847 84.393 118.802C84.4045 118.758 84.426 118.716 84.456 118.681C84.486 118.645 84.5238 118.617 84.5666 118.597C84.6094 118.577 84.6562 118.567 84.7036 118.567H84.7052L90.4448 118.594L96.205 99.27C96.2292 99.1917 96.2843 99.1258 96.3584 99.0867C96.4325 99.0476 96.5195 99.0383 96.6006 99.061C96.6816 99.0836 96.7502 99.1363 96.7913 99.2077C96.8325 99.279 96.8429 99.3631 96.8202 99.4418L90.9929 118.991C90.9737 119.055 90.9332 119.112 90.8778 119.152C90.8223 119.193 90.7548 119.214 90.6854 119.215H90.6838L85.1017 119.188C85.8166 122.117 87.7018 124.643 90.574 126.512C93.3471 128.316 96.8875 129.387 100.543 129.526C107.188 129.779 111.543 127.503 113.841 122.571L109.585 122.048C109.539 122.042 109.496 122.028 109.457 122.004C109.417 121.981 109.384 121.949 109.359 121.913C109.333 121.876 109.316 121.834 109.309 121.79C109.302 121.746 109.304 121.701 109.317 121.658L110.525 117.427C110.536 117.387 110.554 117.35 110.58 117.317C110.606 117.284 110.638 117.257 110.675 117.236C110.712 117.215 110.752 117.202 110.794 117.197C110.837 117.192 110.879 117.195 110.92 117.206C110.961 117.217 111 117.235 111.033 117.261C111.066 117.286 111.094 117.318 111.115 117.354C111.136 117.39 111.149 117.429 111.153 117.47C111.158 117.511 111.154 117.553 111.142 117.592L110.032 121.478L114.345 122.008C114.394 122.014 114.44 122.031 114.482 122.057C114.523 122.084 114.557 122.119 114.581 122.16C114.606 122.202 114.621 122.248 114.624 122.296C114.627 122.343 114.619 122.391 114.6 122.435C112.349 127.63 108.068 130.165 101.533 130.165Z" fill="#4E2A09"/>
<path d="M96.0934 98.4227C91.3716 94.4824 88.7329 86.5387 90.0539 80.9573C92.0894 72.3578 102.228 67.269 112.698 69.591C116.513 70.4368 119.845 72.1505 122.441 74.4021C127.596 78.2084 130.555 87.2396 129.362 97.2113C127.866 109.717 120.441 118.681 112.701 117.87C106.497 117.22 103.117 111.653 101.888 109.709" fill="#FEFEFE"/>
<path d="M113.688 118.232C113.348 118.232 113.008 118.214 112.666 118.178C106.442 117.527 102.997 112.061 101.699 110.004L101.615 109.871C101.593 109.836 101.579 109.797 101.572 109.757C101.565 109.717 101.567 109.676 101.577 109.636C101.587 109.597 101.605 109.56 101.629 109.527C101.654 109.494 101.685 109.466 101.721 109.445C101.757 109.423 101.797 109.409 101.838 109.403C101.88 109.397 101.922 109.398 101.963 109.408C102.004 109.417 102.043 109.434 102.077 109.458C102.111 109.482 102.139 109.512 102.161 109.547L102.246 109.681C103.498 111.667 106.825 116.943 112.735 117.562C116.385 117.944 120.073 116.091 123.121 112.343C126.227 108.523 128.331 103.136 129.044 97.1762C130.195 87.5539 127.464 78.5009 122.247 74.649C122.24 74.6441 122.234 74.6389 122.228 74.6334C119.581 72.3385 116.261 70.6994 112.627 69.8935C107.636 68.7867 102.57 69.3409 98.3601 71.454C94.168 73.5583 91.3289 76.958 90.3659 81.0269C89.058 86.5527 91.7765 94.4116 96.3022 98.1885C96.3665 98.2422 96.4061 98.3184 96.4124 98.4004C96.4186 98.4824 96.391 98.5634 96.3355 98.6256C96.28 98.6879 96.2013 98.7262 96.1166 98.7323C96.0319 98.7383 95.9482 98.7115 95.8839 98.6578C91.1191 94.6816 88.3635 86.7103 89.7415 80.8884C90.7473 76.6391 93.7034 73.0931 98.0652 70.9038C102.41 68.7231 107.632 68.1498 112.769 69.2893C116.505 70.1177 119.92 71.8033 122.645 74.1637C128.029 78.1476 130.855 87.4218 129.679 97.2476C128.239 109.291 121.326 118.232 113.688 118.232Z" fill="#4E2A09"/>
<path d="M124.235 80.8872C118.512 88.0717 111.153 93.4741 100.247 92.3588C97.9282 92.1215 94.1294 96.4172 94.1294 96.4172C94.1294 96.4172 87.2646 94.1316 87.5723 82.9026C87.8992 70.9773 100.696 63.8871 110.78 65.6153C118.707 66.9739 131.424 76.4607 130.208 89.1577C129.187 85.4486 127.513 83.3938 124.235 80.8872Z" fill="#796959"/>
<path d="M94.1294 96.7284C94.0947 96.7284 94.0595 96.7228 94.0254 96.7115C93.9519 96.687 92.2038 96.0884 90.4882 94.0689C87.6522 90.7304 87.1631 86.1502 87.2523 82.8957C87.3914 77.8219 89.8181 73.1709 94.0856 69.7998C98.8071 66.0699 105.225 64.3497 110.836 65.3115C115.146 66.0502 120.375 69.038 124.156 72.9235C128.811 77.7064 131.073 83.4825 130.527 89.1877C130.52 89.2602 130.486 89.3279 130.433 89.3792C130.38 89.4304 130.309 89.4619 130.235 89.468C130.16 89.4737 130.085 89.454 130.024 89.4121C129.962 89.3703 129.918 89.309 129.898 89.2389C128.977 85.8914 127.548 83.8629 124.289 81.3266C117.272 90.0245 109.614 93.6304 100.214 92.6683C98.4488 92.4889 95.3994 95.4598 94.3728 96.6201C94.3427 96.654 94.3053 96.6813 94.2634 96.7C94.2214 96.7187 94.1757 96.7284 94.1294 96.7284ZM107.675 65.6681C103.068 65.6681 98.2325 67.3238 94.4904 70.28C90.3697 73.5354 88.0266 78.0216 87.8925 82.9123C87.6234 92.7255 92.9482 95.5692 94.0401 96.0475C94.3597 95.7012 95.1426 94.8804 96.1084 94.0667C97.8232 92.6221 99.2278 91.9447 100.28 92.0522C101.235 92.1498 102.172 92.1989 103.091 92.1989C111.076 92.1991 117.773 88.4935 123.981 80.6997C124.034 80.6341 124.111 80.5915 124.196 80.5813C124.28 80.5711 124.366 80.5943 124.433 80.6457C127.397 82.9115 128.957 84.7649 129.965 87.3851C129.929 82.4362 127.74 77.5109 123.69 73.3488C119.997 69.5543 114.907 66.6392 110.724 65.9222C109.729 65.7513 108.708 65.6681 107.675 65.6681Z" fill="#796959"/>
<path d="M97.0217 100.935C94.0491 101.472 91.1896 99.5742 90.6349 96.6969C90.0802 93.8196 92.0404 91.0516 95.013 90.5147C97.4906 90.0672 99.8896 91.3107 100.941 93.4032" fill="#FEFEFE"/>
<path d="M96.0151 101.335C93.2801 101.335 90.8397 99.4483 90.3201 96.7536C90.0363 95.2806 90.3619 93.7887 91.2372 92.5528C92.1126 91.3169 93.4326 90.4848 94.9544 90.2099C97.512 89.7486 100.092 91.0053 101.229 93.2676C101.248 93.3043 101.259 93.3443 101.262 93.3852C101.265 93.4261 101.26 93.4672 101.246 93.5061C101.232 93.5449 101.211 93.5808 101.183 93.6116C101.155 93.6424 101.121 93.6675 101.083 93.6854C101.045 93.7033 101.003 93.7138 100.961 93.7161C100.919 93.7184 100.876 93.7126 100.836 93.6989C100.796 93.6853 100.76 93.6641 100.728 93.6366C100.697 93.6091 100.671 93.5758 100.653 93.5386C99.6422 91.5266 97.347 90.4086 95.0717 90.8192C93.718 91.0637 92.5438 91.8038 91.7653 92.9032C90.9867 94.0026 90.6971 95.3296 90.9496 96.6399C91.4711 99.3446 94.1684 101.135 96.9629 100.63C97.0464 100.615 97.1327 100.633 97.2027 100.679C97.2728 100.725 97.3209 100.797 97.3365 100.878C97.352 100.959 97.3338 101.042 97.2858 101.11C97.2378 101.178 97.1639 101.224 97.0804 101.239C96.7291 101.303 96.3725 101.335 96.0151 101.335Z" fill="#4E2A09"/>
<path d="M96.5351 99.6426C96.3669 99.6435 96.2001 99.6136 96.0433 99.5546C95.5773 99.3762 95.2411 98.929 95.1866 98.4154C95.1331 97.9114 95.3534 97.45 95.7761 97.1811C95.9774 97.0532 96.2193 96.9464 96.4754 96.8334C97.4213 96.416 98.3149 96.0218 97.7503 94.5527C97.3706 93.5647 96.2127 93.2667 95.265 93.4829C94.3493 93.6917 93.3379 94.4566 93.5006 95.9248C93.5054 95.9654 93.5019 96.0066 93.4903 96.0459C93.4786 96.0853 93.459 96.122 93.4326 96.1539C93.4063 96.1859 93.3736 96.2125 93.3365 96.2322C93.2995 96.2519 93.2587 96.2642 93.2167 96.2686C93.1747 96.273 93.1322 96.2692 93.0916 96.2576C93.0511 96.246 93.0133 96.2267 92.9805 96.2009C92.9478 96.1751 92.9206 96.1433 92.9005 96.1072C92.8805 96.0712 92.8681 96.0317 92.8639 95.991C92.6702 94.2411 93.8566 93.1674 95.1184 92.8795C96.3395 92.601 97.8417 93.0118 98.3506 94.3365C99.123 96.3466 97.6896 96.9789 96.7411 97.3973C96.508 97.5002 96.2881 97.5972 96.128 97.699C95.8123 97.8998 95.8101 98.2224 95.8238 98.3518C95.8543 98.6379 96.0329 98.8836 96.2791 98.978C96.6187 99.108 97.0685 98.9589 97.5454 98.5581C97.5771 98.5314 97.614 98.511 97.6538 98.4981C97.6937 98.4852 97.7358 98.48 97.7777 98.4829C97.8197 98.4857 97.8606 98.4965 97.8982 98.5147C97.9358 98.5329 97.9694 98.558 97.997 98.5887C98.0245 98.6195 98.0456 98.6551 98.0589 98.6937C98.0723 98.7323 98.0776 98.7731 98.0746 98.8137C98.0717 98.8543 98.0605 98.8939 98.0418 98.9303C98.023 98.9667 97.997 98.9992 97.9653 99.0259C97.3901 99.5093 96.9002 99.6426 96.5351 99.6426ZM117.089 98.6441C117.044 98.6441 116.999 98.6348 116.957 98.6167C116.916 98.5986 116.879 98.5721 116.849 98.539C116.818 98.506 116.796 98.4671 116.783 98.425C116.769 98.3829 116.765 98.3385 116.771 98.2948L117.279 94.4608C117.291 94.3803 117.335 94.3075 117.402 94.2583C117.469 94.209 117.553 94.1872 117.636 94.1976C117.72 94.2079 117.796 94.2496 117.848 94.3136C117.899 94.3776 117.923 94.4588 117.914 94.5397L117.406 98.3737C117.396 98.4483 117.359 98.517 117.3 98.5667C117.242 98.6165 117.167 98.644 117.089 98.6441ZM125.901 99.943C125.856 99.9431 125.811 99.9337 125.769 99.9156C125.728 99.8975 125.691 99.8711 125.661 99.838C125.631 99.805 125.608 99.7661 125.595 99.724C125.582 99.6819 125.578 99.6375 125.583 99.5938L126.091 95.7598C126.102 95.6783 126.146 95.6044 126.213 95.5542C126.28 95.504 126.365 95.4816 126.449 95.4918C126.533 95.5023 126.61 95.5447 126.662 95.6098C126.714 95.6748 126.737 95.7571 126.726 95.8386L126.218 99.6726C126.209 99.7473 126.171 99.8159 126.113 99.8657C126.054 99.9154 125.979 99.9429 125.901 99.943ZM121.99 104.637C121.919 104.637 121.851 104.615 121.795 104.574C121.739 104.533 121.699 104.475 121.68 104.409C121.662 104.344 121.666 104.274 121.692 104.211C121.718 104.148 121.765 104.095 121.825 104.061C123.771 102.938 124.149 101.539 123.791 100.948C123.508 100.479 122.605 100.25 120.993 101.145C120.92 101.186 120.832 101.197 120.75 101.175C120.668 101.154 120.599 101.102 120.556 101.031C120.514 100.959 120.503 100.875 120.525 100.795C120.547 100.716 120.601 100.648 120.675 100.607C121.936 99.9065 123.654 99.4932 124.344 100.635C125.1 101.885 123.824 103.629 122.153 104.593C122.104 104.622 122.047 104.637 121.99 104.637ZM116.034 110.966C116.027 110.966 116.021 110.966 116.014 110.965C114.812 110.893 113.778 110.398 113.025 109.533C112.147 108.525 111.697 107.05 111.851 105.682C111.855 105.641 111.867 105.601 111.887 105.564C111.907 105.528 111.934 105.496 111.967 105.47C112 105.444 112.038 105.424 112.079 105.413C112.119 105.401 112.162 105.397 112.204 105.402C112.247 105.406 112.287 105.419 112.325 105.439C112.362 105.458 112.395 105.485 112.421 105.518C112.447 105.55 112.467 105.587 112.478 105.627C112.49 105.666 112.493 105.708 112.487 105.749C112.352 106.954 112.746 108.251 113.514 109.134C114.161 109.877 115.015 110.284 116.054 110.347C116.136 110.352 116.213 110.389 116.269 110.448C116.324 110.507 116.354 110.585 116.351 110.665C116.349 110.745 116.314 110.821 116.255 110.877C116.196 110.933 116.117 110.965 116.034 110.966ZM99.9846 122.229L101.822 128.467L106.621 121.99L111.616 119.226L111.575 121.981L114.305 122.316C114.305 122.316 112.139 130.24 100.531 129.837C88.9227 129.434 85.64 122.939 84.7039 118.878L90.6857 118.906L91.9831 114.244L99.9846 122.229Z" fill="#4E2A09"/>
<path d="M101.364 130.16C101.088 130.16 100.807 130.155 100.519 130.145C95.3227 129.965 91.2436 128.555 88.3956 125.954C85.8948 123.67 84.8378 120.881 84.3914 118.944C84.381 118.899 84.3812 118.852 84.3921 118.807C84.403 118.761 84.4242 118.719 84.4542 118.683C84.4842 118.647 84.5222 118.617 84.5655 118.597C84.6087 118.577 84.6561 118.567 84.7041 118.567H84.7057L90.441 118.593L91.6743 114.163C91.689 114.11 91.718 114.062 91.7582 114.023C91.7984 113.985 91.8484 113.957 91.9032 113.944C91.9579 113.93 92.0154 113.93 92.0699 113.945C92.1243 113.96 92.1738 113.988 92.2133 114.027L100.215 122.012C100.251 122.049 100.278 122.094 100.293 122.143L101.949 127.764L106.361 121.808C106.387 121.772 106.422 121.741 106.462 121.719L111.458 118.955C111.507 118.928 111.562 118.914 111.619 118.914C111.675 118.915 111.731 118.93 111.779 118.957C111.828 118.985 111.868 119.025 111.896 119.073C111.924 119.12 111.938 119.174 111.937 119.229L111.9 121.707L114.346 122.007C114.391 122.013 114.434 122.028 114.473 122.051C114.512 122.074 114.545 122.105 114.571 122.142C114.596 122.178 114.613 122.22 114.621 122.263C114.629 122.307 114.627 122.351 114.615 122.394C114.592 122.478 114.028 124.478 111.998 126.445C110.222 128.166 106.957 130.16 101.364 130.16ZM85.1094 119.189C85.5834 121.013 86.6107 123.471 88.835 125.503C91.5665 127.998 95.5055 129.351 100.542 129.526C105.181 129.688 108.978 128.479 111.52 126.032C112.962 124.643 113.631 123.211 113.877 122.575L111.534 122.287C111.456 122.278 111.385 122.241 111.333 122.183C111.281 122.126 111.253 122.052 111.255 121.975L111.288 119.764L106.84 122.224L102.082 128.647C102.047 128.694 101.999 128.731 101.943 128.753C101.888 128.775 101.827 128.782 101.767 128.772C101.708 128.762 101.653 128.736 101.608 128.697C101.563 128.658 101.531 128.607 101.514 128.551L99.6986 122.388L92.1455 114.851L90.9947 118.985C90.9764 119.051 90.9362 119.109 90.8803 119.151C90.8244 119.192 90.756 119.215 90.6856 119.215H90.684L85.1094 119.189Z" fill="#4E2A09"/>
<path d="M81.2207 119.044C82.2311 128.969 91.5859 133.3 100.653 133.645C108.849 133.957 115.475 130.52 118.067 122.995L114.305 122.316C114.305 122.316 112.403 130.067 100.531 129.836C87.6607 129.585 85.3295 121.283 84.7039 118.877L81.2207 119.044Z" fill="#FEFEFE"/>
<path d="M101.687 133.976C101.342 133.976 100.993 133.969 100.64 133.956C95.7218 133.769 91.1388 132.433 87.7354 130.194C83.7378 127.565 81.3748 123.72 80.902 119.075C80.8977 119.033 80.9022 118.991 80.9153 118.951C80.9284 118.911 80.9497 118.874 80.9781 118.842C81.0064 118.811 81.0411 118.785 81.0801 118.766C81.1191 118.748 81.1615 118.737 81.2048 118.735L84.6881 118.569C84.7619 118.566 84.8346 118.587 84.894 118.63C84.9533 118.672 84.9958 118.733 85.0143 118.802C85.2804 119.826 85.9873 122.544 88.2621 124.957C91.0222 127.885 95.1522 129.423 100.537 129.527C103.194 129.58 105.552 129.227 107.551 128.48C109.142 127.886 110.509 127.042 111.617 125.971C113.504 124.145 113.989 122.264 113.994 122.245C114.013 122.167 114.062 122.1 114.131 122.057C114.2 122.014 114.283 121.998 114.364 122.012L118.126 122.692C118.171 122.7 118.213 122.717 118.251 122.742C118.288 122.768 118.32 122.801 118.343 122.839C118.366 122.877 118.38 122.92 118.385 122.964C118.39 123.008 118.385 123.052 118.371 123.094C117.088 126.818 114.819 129.654 111.627 131.525C108.848 133.153 105.508 133.976 101.687 133.976ZM81.5751 119.338C82.1059 123.706 84.2983 127.184 88.0951 129.682C91.4008 131.856 95.8649 133.154 100.665 133.337C104.798 133.493 108.375 132.706 111.295 130.995C114.257 129.259 116.391 126.649 117.643 123.235L114.53 122.672C114.319 123.296 113.676 124.844 112.097 126.382C108.778 129.615 103.971 130.213 100.524 130.147C94.9567 130.038 90.672 128.433 87.7889 125.375C85.5709 123.022 84.7801 120.409 84.4579 119.2L81.5751 119.338Z" fill="#4E2A09"/>
<path d="M106.621 121.991L111.616 119.227L115.464 122.526L112.312 135.348L106.621 121.991Z" fill="#4E2A09"/>
<path d="M112.312 135.657C112.248 135.657 112.187 135.638 112.134 135.604C112.081 135.57 112.04 135.522 112.016 135.465L106.325 122.108C106.295 122.038 106.293 121.96 106.318 121.889C106.343 121.818 106.394 121.758 106.462 121.72L111.457 118.956C111.516 118.924 111.583 118.911 111.649 118.917C111.716 118.924 111.779 118.951 111.829 118.993L115.676 122.293C115.765 122.369 115.803 122.486 115.776 122.597L112.624 135.419C112.607 135.486 112.567 135.547 112.51 135.59C112.454 135.633 112.384 135.657 112.312 135.657ZM107.024 122.123L112.23 134.342L115.108 122.634L111.576 119.605L107.024 122.123ZM99.9845 122.229L91.9831 114.244L83.804 118.92L91.8899 136.681L99.9845 122.229Z" fill="#4E2A09"/>
<path d="M91.8901 136.992L91.8769 136.992C91.8171 136.989 91.7591 136.971 91.7096 136.938C91.6601 136.906 91.6211 136.86 91.597 136.807L83.5109 119.047C83.4792 118.977 83.475 118.899 83.499 118.827C83.523 118.755 83.5735 118.693 83.641 118.655L91.8203 113.979C91.8822 113.943 91.9545 113.929 92.0258 113.938C92.097 113.948 92.1629 113.98 92.213 114.03L100.214 122.014C100.312 122.111 100.333 122.259 100.266 122.378L92.1715 136.83C92.144 136.879 92.1033 136.92 92.0538 136.948C92.0043 136.977 91.9477 136.992 91.8901 136.992ZM84.2115 119.048L91.9197 135.979L99.591 122.282L91.929 114.636L84.2115 119.048Z" fill="#4E2A09"/>
<path d="M149.986 194.762C151.529 182.134 145.198 164.718 139.705 152.43C149.935 150.158 158.107 147.252 161.653 139.254C170.333 157.851 179.559 182.642 174.475 202.196C171.087 213.021 164.954 217.455 150.704 217.29" fill="#FEFEFE"/>
<path d="M151.478 217.604C151.22 217.604 150.962 217.602 150.699 217.599C150.615 217.598 150.534 217.564 150.474 217.506C150.415 217.447 150.382 217.368 150.383 217.286C150.385 217.114 150.527 216.974 150.707 216.979C157.82 217.063 162.834 215.99 166.483 213.607C169.987 211.319 172.429 207.665 174.168 202.105C176.429 193.41 176.009 182.751 172.914 170.439C170.646 161.411 166.96 151.451 161.653 140.008C158.114 147.25 150.77 150.259 140.15 152.648C145.665 165.044 151.832 182.294 150.304 194.798C150.299 194.839 150.287 194.879 150.266 194.915C150.246 194.95 150.218 194.982 150.185 195.008C150.152 195.033 150.114 195.052 150.073 195.064C150.033 195.075 149.99 195.078 149.948 195.073C149.906 195.068 149.865 195.056 149.828 195.035C149.791 195.015 149.759 194.988 149.733 194.956C149.707 194.924 149.688 194.887 149.677 194.847C149.665 194.807 149.663 194.766 149.668 194.725C151.193 182.242 144.932 164.901 139.411 152.552C139.392 152.51 139.383 152.465 139.384 152.42C139.386 152.374 139.398 152.33 139.419 152.289C139.44 152.249 139.47 152.213 139.507 152.185C139.544 152.157 139.587 152.137 139.633 152.127C150.564 149.7 158.012 146.679 161.359 139.131C161.383 139.076 161.424 139.029 161.475 138.995C161.527 138.962 161.588 138.944 161.65 138.943C161.779 138.948 161.892 139.014 161.945 139.126C167.425 150.868 171.217 161.063 173.537 170.292C176.656 182.703 177.076 193.462 174.785 202.271C171.304 213.398 164.952 217.603 151.478 217.604Z" fill="#4E2A09"/>
<path d="M149.009 195.143C149.946 187.664 141.181 168.391 140.474 164.416C139.888 161.124 140.9 158.374 141.363 156.236L139.704 152.431C146.267 152.556 159.396 146.144 162.287 140.635L163.784 143.838C167.486 143.956 169.545 145.872 170.978 150.136C172.521 154.73 177.443 177.535 175.612 195.553" fill="#FEFEFE"/>
<path d="M175.613 195.862C175.568 195.862 175.524 195.853 175.483 195.835C175.442 195.818 175.405 195.792 175.375 195.76C175.345 195.728 175.322 195.69 175.308 195.649C175.294 195.608 175.289 195.565 175.294 195.521C177.139 177.359 172.173 154.693 170.673 150.231C169.259 146.021 167.259 144.258 163.773 144.147C163.713 144.145 163.655 144.127 163.606 144.095C163.556 144.063 163.517 144.018 163.492 143.965L162.256 141.319C160.69 143.777 157.117 146.576 152.522 148.919C148.018 151.215 143.358 152.651 140.186 152.737L141.659 156.114C141.684 156.172 141.69 156.236 141.677 156.298C141.59 156.7 141.485 157.119 141.374 157.562C140.906 159.425 140.324 161.745 140.79 164.362C141.006 165.575 141.995 168.262 143.247 171.664C146.089 179.384 149.981 189.958 149.327 195.18C149.317 195.261 149.273 195.335 149.207 195.386C149.14 195.436 149.055 195.46 148.971 195.45C148.887 195.44 148.81 195.398 148.757 195.333C148.705 195.269 148.681 195.186 148.692 195.105C149.327 190.029 145.305 179.102 142.644 171.872C141.381 168.441 140.384 165.732 140.159 164.467C139.671 161.723 140.27 159.335 140.752 157.415C140.853 157.012 140.949 156.63 141.03 156.265L139.41 152.55C139.389 152.502 139.381 152.451 139.386 152.399C139.391 152.348 139.41 152.299 139.44 152.256C139.47 152.213 139.51 152.179 139.558 152.155C139.605 152.131 139.658 152.119 139.711 152.12C142.78 152.185 147.572 150.742 152.224 148.371C157.049 145.91 160.705 142.965 162.002 140.493C162.03 140.441 162.072 140.398 162.123 140.368C162.175 140.338 162.235 140.323 162.295 140.324C162.355 140.326 162.414 140.343 162.464 140.376C162.515 140.408 162.554 140.453 162.579 140.506L163.994 143.536C167.629 143.718 169.816 145.674 171.282 150.039C172.791 154.527 177.786 177.323 175.931 195.582C175.923 195.659 175.886 195.73 175.828 195.781C175.769 195.833 175.692 195.862 175.613 195.862Z" fill="#4E2A09"/>
<path d="M139.704 152.431C136.381 145.144 133.012 139.706 130.649 137.348C125.724 132.435 125.847 124.587 130.923 119.819C136 115.052 144.107 115.171 149.033 120.085C152.938 123.981 157.66 130.607 161.653 139.255" fill="#FEFEFE"/>
<path d="M139.705 152.74C139.582 152.74 139.464 152.671 139.412 152.555C136.256 145.637 132.895 140.033 130.42 137.564C125.38 132.535 125.506 124.475 130.7 119.596C135.896 114.718 144.222 114.84 149.263 119.868C153.729 124.324 158.351 131.344 161.945 139.128C161.962 139.165 161.972 139.205 161.973 139.246C161.974 139.286 161.967 139.327 161.952 139.365C161.937 139.403 161.914 139.438 161.885 139.467C161.857 139.497 161.822 139.521 161.784 139.537C161.745 139.554 161.704 139.563 161.662 139.564C161.62 139.565 161.578 139.558 161.539 139.544C161.499 139.529 161.463 139.507 161.433 139.479C161.402 139.451 161.378 139.418 161.361 139.381C157.796 131.66 153.219 124.706 148.803 120.3C144.009 115.516 136.088 115.401 131.146 120.041C126.205 124.682 126.085 132.349 130.879 137.132C133.404 139.651 136.813 145.323 139.997 152.305C140.019 152.352 140.028 152.404 140.024 152.455C140.019 152.507 140.002 152.556 139.973 152.599C139.944 152.643 139.904 152.678 139.857 152.703C139.81 152.727 139.758 152.74 139.705 152.74Z" fill="#4E2A09"/>
<path d="M149.033 120.084C145.946 116.981 141.175 112.711 137.359 111.734C135.598 111.283 129.244 116.256 128.701 117.831C127.97 119.95 131.852 125.328 132.651 126.657C134.733 130.121 140.748 126.612 139.083 123.687C138.379 122.451 136.591 119.82 136.591 119.82L140.37 123.118" fill="#FEFEFE"/>
<path d="M135.226 128.402C134.127 128.402 133.059 127.952 132.374 126.813C132.256 126.616 132.069 126.329 131.832 125.966C130.398 123.766 127.729 119.67 128.397 117.732C128.721 116.792 130.688 115.022 132.379 113.776C133.48 112.964 136.177 111.111 137.441 111.434C141.247 112.408 145.971 116.559 149.263 119.869C149.292 119.898 149.315 119.933 149.331 119.971C149.346 120.009 149.354 120.049 149.353 120.09C149.352 120.13 149.343 120.171 149.326 120.208C149.309 120.245 149.285 120.279 149.255 120.307C149.224 120.335 149.189 120.357 149.149 120.372C149.11 120.387 149.069 120.394 149.027 120.394C148.984 120.393 148.943 120.384 148.904 120.368C148.866 120.351 148.831 120.328 148.802 120.299C145.566 117.045 140.94 112.971 137.277 112.033C135.804 111.656 129.535 116.39 129.004 117.929C128.432 119.588 131.194 123.826 132.373 125.635C132.614 126.004 132.803 126.295 132.927 126.501C133.893 128.108 135.774 128.034 137.209 127.247C138.548 126.513 139.525 125.106 138.802 123.836C138.112 122.625 136.341 120.015 136.323 119.989C136.281 119.926 136.263 119.85 136.274 119.776C136.285 119.702 136.324 119.633 136.383 119.584C136.441 119.535 136.517 119.509 136.595 119.51C136.672 119.51 136.747 119.539 136.805 119.589L140.584 122.887C140.647 122.943 140.685 123.02 140.689 123.102C140.694 123.184 140.664 123.264 140.607 123.325C140.551 123.386 140.471 123.423 140.386 123.427C140.301 123.431 140.218 123.403 140.155 123.348L138.159 121.605C138.609 122.297 139.073 123.029 139.363 123.537C140.286 125.159 139.137 126.902 137.524 127.786C136.831 128.167 136.02 128.402 135.226 128.402Z" fill="#4E2A09"/>
<path d="M143.403 122.906C140.316 119.803 136.715 116.613 132.899 115.636C131.137 115.185 124.784 120.158 124.241 121.733C123.51 123.852 127.391 129.231 128.191 130.56C130.273 134.024 136.288 130.514 134.623 127.59C133.919 126.353 132.131 123.722 132.131 123.722L137.565 127.893" fill="#FEFEFE"/>
<path d="M130.766 132.305C129.666 132.305 128.599 131.854 127.914 130.715C127.796 130.519 127.609 130.232 127.372 129.869C125.938 127.668 123.269 123.573 123.937 121.635C124.261 120.694 126.228 118.925 127.919 117.678C129.02 116.866 131.717 115.013 132.981 115.336C136.927 116.346 140.58 119.621 143.634 122.691C143.693 122.75 143.725 122.829 143.723 122.911C143.722 122.994 143.686 123.072 143.625 123.129C143.564 123.186 143.482 123.217 143.397 123.215C143.312 123.214 143.231 123.18 143.172 123.12C140.18 120.112 136.61 116.906 132.817 115.935C131.343 115.558 125.075 120.292 124.544 121.831C123.972 123.49 126.734 127.728 127.913 129.538C128.153 129.906 128.343 130.197 128.467 130.403C129.433 132.011 131.314 131.936 132.749 131.149C134.088 130.415 135.065 129.008 134.342 127.739C133.652 126.527 131.881 123.918 131.863 123.891C131.821 123.83 131.803 123.756 131.813 123.683C131.822 123.61 131.858 123.542 131.914 123.492C131.97 123.443 132.043 123.414 132.119 123.411C132.195 123.409 132.27 123.433 132.329 123.478L137.764 127.65C137.797 127.675 137.824 127.706 137.845 127.742C137.865 127.777 137.878 127.817 137.883 127.857C137.888 127.897 137.884 127.938 137.873 127.978C137.861 128.017 137.842 128.053 137.816 128.085C137.79 128.117 137.757 128.144 137.72 128.164C137.684 128.183 137.643 128.196 137.602 128.201C137.56 128.205 137.517 128.202 137.477 128.191C137.437 128.179 137.399 128.161 137.366 128.135L133.453 125.132C133.973 125.923 134.561 126.838 134.903 127.439C135.826 129.061 134.677 130.804 133.065 131.689C132.371 132.069 131.56 132.305 130.766 132.305Z" fill="#4E2A09"/>
<path d="M140.533 128.072C137.446 124.969 133.845 121.779 130.029 120.802C128.267 120.351 121.914 125.324 121.37 126.899C120.64 129.018 124.521 134.397 125.32 135.726C127.403 139.19 133.418 135.68 131.752 132.756C131.048 131.519 129.26 128.888 129.26 128.888L133.419 132.517" fill="#FEFEFE"/>
<path d="M127.896 137.473C126.796 137.473 125.728 137.022 125.044 135.883C124.926 135.687 124.739 135.4 124.502 135.036C123.068 132.836 120.399 128.741 121.067 126.803C121.391 125.862 123.358 124.093 125.049 122.846C126.15 122.034 128.848 120.181 130.111 120.504C134.057 121.514 137.71 124.789 140.764 127.858C140.823 127.918 140.855 127.997 140.853 128.079C140.852 128.162 140.816 128.24 140.755 128.297C140.694 128.354 140.612 128.385 140.527 128.383C140.442 128.382 140.361 128.348 140.302 128.288C137.31 125.28 133.74 122.074 129.947 121.103C128.473 120.725 122.205 125.46 121.674 126.999C121.102 128.658 123.864 132.896 125.043 134.706C125.283 135.074 125.473 135.365 125.597 135.571C126.563 137.179 128.444 137.104 129.879 136.317C131.218 135.583 132.195 134.176 131.472 132.907C130.782 131.695 129.011 129.086 128.993 129.06C128.95 128.997 128.933 128.921 128.944 128.846C128.955 128.772 128.993 128.704 129.052 128.655C129.111 128.606 129.187 128.579 129.264 128.58C129.342 128.581 129.417 128.609 129.475 128.659L133.633 132.289C133.696 132.344 133.734 132.421 133.738 132.503C133.743 132.585 133.713 132.665 133.656 132.726C133.628 132.757 133.594 132.781 133.556 132.799C133.518 132.816 133.477 132.826 133.435 132.828C133.35 132.833 133.267 132.804 133.204 132.749L130.829 130.675C131.279 131.367 131.743 132.099 132.033 132.607C132.956 134.229 131.807 135.972 130.194 136.857C129.5 137.237 128.69 137.473 127.896 137.473Z" fill="#4E2A09"/>
<path d="M137.376 133.307C135.475 131.693 131.338 127.704 129.33 128.31C127.308 128.921 122.471 134.453 122.026 135.644C121.448 137.194 125.858 142.437 126.484 142.96C129.049 145.101 133.873 140.511 131.189 137.977L129.974 136.62C131.189 137.977 131.712 138.465 133.168 140.483" fill="#FEFEFE"/>
<path d="M128.082 143.818C127.381 143.818 126.748 143.588 126.276 143.194C125.781 142.781 121.049 137.351 121.726 135.538C122.175 134.334 127.035 128.678 129.235 128.014C131.006 127.478 133.913 129.855 136.737 132.335C137.018 132.583 137.302 132.83 137.587 133.074C137.618 133.101 137.644 133.133 137.663 133.17C137.681 133.206 137.692 133.246 137.695 133.286C137.698 133.327 137.692 133.368 137.679 133.406C137.665 133.445 137.644 133.481 137.616 133.511C137.589 133.542 137.555 133.567 137.517 133.585C137.479 133.603 137.438 133.613 137.396 133.616C137.354 133.619 137.312 133.613 137.273 133.6C137.233 133.587 137.196 133.566 137.164 133.54C136.877 133.293 136.591 133.045 136.307 132.794C134.451 131.164 130.996 128.132 129.425 128.605C127.554 129.171 122.775 134.549 122.328 135.749C121.847 137.038 125.962 142.113 126.694 142.724C127.582 143.466 129.227 143.43 130.653 141.926C131.557 140.971 132.041 139.604 131.261 138.531C131.175 138.431 131.091 138.334 131.006 138.238C130.993 138.224 130.979 138.211 130.965 138.198C130.959 138.192 130.953 138.186 130.947 138.179L129.733 136.823C129.677 136.761 129.649 136.68 129.655 136.598C129.661 136.516 129.7 136.439 129.765 136.385C129.829 136.332 129.912 136.305 129.997 136.31C130.082 136.316 130.161 136.354 130.216 136.416C130.41 136.632 130.604 136.847 130.799 137.062C131.029 137.314 131.257 137.567 131.483 137.823C131.575 137.916 131.66 138.014 131.738 138.118C132.205 138.664 132.7 139.292 133.431 140.305C133.479 140.373 133.498 140.456 133.483 140.537C133.468 140.618 133.421 140.69 133.351 140.737C133.282 140.784 133.196 140.802 133.112 140.788C133.028 140.773 132.954 140.727 132.906 140.66C132.706 140.383 132.503 140.107 132.298 139.834C132.282 140.615 131.939 141.484 131.124 142.345C130.14 143.383 129.046 143.818 128.082 143.818Z" fill="#4E2A09"/>
<path d="M141.363 156.235C151.4 155.536 162.18 148.157 163.784 143.837C162.566 140.994 161.067 138.058 159.745 135.488C158.142 139.808 147.534 147.169 137.498 147.868C139.065 151.051 140.186 153.354 141.363 156.235Z" fill="#FEFEFE"/>
<path d="M141.363 156.544C141.299 156.544 141.236 156.525 141.183 156.49C141.13 156.455 141.089 156.406 141.065 156.348C139.916 153.535 138.842 151.318 137.209 148C137.186 147.955 137.176 147.905 137.178 147.854C137.18 147.804 137.195 147.755 137.221 147.711C137.247 147.668 137.284 147.631 137.328 147.604C137.372 147.577 137.423 147.562 137.475 147.558C143.551 147.135 148.942 144.378 151.615 142.772C155.591 140.383 158.664 137.482 159.444 135.383C159.465 135.326 159.503 135.276 159.553 135.239C159.603 135.203 159.663 135.182 159.726 135.178C159.789 135.175 159.851 135.189 159.905 135.219C159.96 135.25 160.003 135.295 160.031 135.349C161.489 138.182 162.895 140.953 164.079 143.718C164.11 143.789 164.112 143.869 164.085 143.941C162.427 148.409 151.598 155.832 141.386 156.543C141.378 156.544 141.371 156.544 141.363 156.544ZM137.986 148.139C139.474 151.166 140.497 153.291 141.574 155.908C151.233 155.134 161.744 148.042 163.439 143.843C162.356 141.326 161.087 138.798 159.764 136.22C157.448 140.647 147.504 147.287 137.986 148.139Z" fill="#4E2A09"/>
<path d="M72.0961 156.235C62.0509 168.416 48.5367 185.396 61.3238 202.56C67.3731 210.68 58.9525 224.675 49.1074 224.176C34.1508 222.88 27.9204 204.072 27.7294 191.162C27.403 169.086 42.919 142.643 59.4217 125.949" fill="#FEFEFE"/>
<path d="M49.6031 224.498C49.4318 224.498 49.2614 224.494 49.0906 224.485C42.2754 223.894 36.576 219.635 32.5967 212.165C29.4558 206.27 27.5166 198.42 27.4093 191.166C27.2569 180.87 30.5658 168.848 36.9781 156.398C42.6606 145.366 50.5488 134.476 59.1902 125.734C59.249 125.675 59.3297 125.641 59.4146 125.639C59.4995 125.637 59.5816 125.668 59.643 125.725C59.7043 125.782 59.7398 125.86 59.7417 125.942C59.7435 126.024 59.7116 126.104 59.6529 126.163C37.4891 148.583 27.81 174.961 28.0497 191.157C28.1556 198.32 30.0681 206.067 33.1659 211.881C35.8671 216.952 40.8305 223.147 49.1359 223.867C53.6114 224.091 58.2722 221.11 61.0013 216.265C63.6939 211.485 63.7179 206.302 61.064 202.74C55.3207 195.031 54.2687 186.749 57.8476 177.42C61.0077 169.183 67.2719 161.587 71.8458 156.041C71.8995 155.979 71.9762 155.94 72.0594 155.932C72.1426 155.924 72.2258 155.947 72.2911 155.998C72.3565 156.048 72.3988 156.122 72.4091 156.202C72.4194 156.282 72.3968 156.363 72.3462 156.428C62.9325 167.843 48.7063 185.093 61.5835 202.378C64.3829 206.135 64.3752 211.57 61.5635 216.562C58.82 221.432 54.1715 224.498 49.6031 224.498Z" fill="#4E2A09"/>
<path d="M58.9128 202.378C66.0105 209.527 96.4902 187.979 107.534 185.396C98.3364 187.547 108.821 202.57 113.938 209.529C91.946 218.126 65.2812 239.42 40.3245 220.921" fill="#FEFEFE"/>
<path d="M62.0906 228.558C54.0414 228.559 46.802 226.112 40.1299 221.167C40.0625 221.117 40.0183 221.043 40.0072 220.961C39.996 220.88 40.0187 220.798 40.0704 220.732C40.122 220.667 40.1983 220.624 40.2825 220.613C40.3666 220.603 40.4518 220.625 40.5192 220.675C49.2402 227.139 58.9533 229.257 70.2141 227.152C80.158 225.292 89.9011 220.512 99.3234 215.889C104.251 213.471 108.913 211.184 113.443 209.388C108.356 202.443 101.998 192.821 103.91 187.866C104.087 187.41 104.33 187.004 104.639 186.649C100.9 188.082 95.9676 190.629 90.8145 193.29C77.9961 199.91 63.4673 207.412 58.6821 202.592C58.6522 202.563 58.6285 202.528 58.6126 202.49C58.5967 202.452 58.5887 202.411 58.5892 202.37C58.5897 202.329 58.5987 202.288 58.6156 202.251C58.6324 202.213 58.6569 202.179 58.6875 202.15C58.7182 202.122 58.7543 202.1 58.794 202.085C58.8336 202.07 58.8759 202.063 58.9183 202.064C58.9608 202.065 59.0026 202.075 59.0413 202.091C59.08 202.108 59.1148 202.133 59.1437 202.163C61.1049 204.138 65.204 203.952 71.6745 201.595C77.438 199.495 84.085 196.063 90.5131 192.744C97.2226 189.279 103.56 186.006 107.459 185.095C107.541 185.075 107.628 185.089 107.701 185.131C107.773 185.174 107.825 185.243 107.845 185.323C107.865 185.403 107.851 185.487 107.807 185.557C107.763 185.628 107.692 185.678 107.609 185.697L107.6 185.7C105.994 186.077 104.983 186.857 104.51 188.083C102.462 193.388 111.296 205.401 114.199 209.348C114.227 209.386 114.246 209.43 114.254 209.476C114.262 209.522 114.259 209.57 114.245 209.615C114.232 209.66 114.208 209.701 114.175 209.736C114.143 209.771 114.103 209.798 114.058 209.815C109.435 211.623 104.664 213.963 99.6128 216.442C90.1513 221.084 80.3674 225.884 70.3355 227.76C67.4937 228.292 64.7474 228.558 62.0906 228.558Z" fill="#4E2A09"/>
<path d="M129.692 184.217C131.128 184.197 146.675 186.548 148.315 187.615C150.087 188.768 154.553 193.766 155.829 195.099C158.262 197.64 153.524 201.951 151.129 199.674C148.734 197.397 145.095 194.038 145.095 194.038L137.236 192.487C135.617 195.561 132.526 198.478 126.5 197.768" fill="#FEFEFE"/>
<path d="M152.743 200.627C152.041 200.627 151.413 200.378 150.905 199.894C148.716 197.814 145.447 194.791 144.941 194.324L137.408 192.836C135.201 196.849 131.422 198.66 126.461 198.075C126.419 198.07 126.379 198.058 126.342 198.038C126.306 198.018 126.273 197.991 126.248 197.959C126.222 197.927 126.202 197.89 126.191 197.851C126.18 197.812 126.177 197.771 126.182 197.73C126.192 197.649 126.236 197.575 126.303 197.524C126.369 197.473 126.454 197.45 126.538 197.46C131.361 198.029 134.865 196.308 136.95 192.345C136.982 192.285 137.033 192.236 137.096 192.207C137.16 192.177 137.231 192.169 137.3 192.182L145.159 193.734C145.218 193.746 145.272 193.773 145.316 193.814C145.352 193.847 148.984 197.2 151.353 199.452C152.12 200.181 153.608 200.342 155.064 198.972C156.532 197.593 156.388 196.138 155.594 195.309C155.347 195.05 154.991 194.667 154.541 194.181C152.791 192.294 149.534 188.781 148.136 187.872C146.595 186.869 131.118 184.507 129.696 184.526C129.52 184.524 129.374 184.392 129.371 184.221C129.37 184.138 129.403 184.059 129.462 184C129.521 183.941 129.602 183.908 129.687 183.906L129.704 183.906C131.169 183.906 146.708 186.196 148.493 187.357C149.958 188.31 153.125 191.726 155.017 193.767C155.448 194.231 155.82 194.632 156.064 194.887C157.452 196.337 156.75 198.252 155.51 199.417C154.85 200.038 154.053 200.451 153.268 200.582C153.095 200.611 152.919 200.626 152.743 200.627Z" fill="#4E2A09"/>
<path d="M107.534 185.396C117.034 182.186 126.867 180.34 137.1 182.681C143.983 184.255 148.245 190.933 146.618 197.596C145.236 203.255 140.051 207.083 134.302 207.143C133.261 207.154 132.223 207.042 131.21 206.809C126.358 205.699 120.285 207.179 113.938 209.528C108.821 202.57 106.704 194.52 107.534 185.396Z" fill="#FEFEFE"/>
<path d="M113.938 209.838C113.887 209.838 113.837 209.826 113.791 209.804C113.746 209.781 113.707 209.748 113.677 209.708C108.553 202.741 106.379 194.552 107.215 185.369C107.22 185.31 107.243 185.253 107.281 185.206C107.319 185.159 107.37 185.123 107.428 185.104C112.781 183.295 117.549 182.165 122.004 181.649C127.355 181.03 132.318 181.269 137.173 182.379C140.586 183.16 143.48 185.18 145.322 188.067C147.165 190.955 147.736 194.364 146.93 197.667C145.538 203.366 140.347 207.39 134.306 207.453C133.239 207.463 132.174 207.348 131.136 207.11C127.016 206.168 121.588 207.028 114.052 209.818C114.016 209.831 113.977 209.838 113.938 209.838ZM107.835 185.623C107.07 194.488 109.163 202.403 114.056 209.153C121.597 206.386 127.076 205.545 131.283 206.507C132.271 206.734 133.283 206.843 134.299 206.833C140.045 206.773 144.983 202.945 146.306 197.525C147.073 194.383 146.53 191.14 144.778 188.393C143.025 185.646 140.272 183.725 137.026 182.983C128.261 180.977 119.25 181.791 107.835 185.623Z" fill="#4E2A09"/>
<path d="M131.034 181.754C136.604 182.007 149.335 183.355 151.579 186.608C153.461 189.336 156.478 195.112 157.522 196.994C159.769 201.043 153.59 205.204 151.074 200.942C149.311 197.955 145.894 192.431 145.894 192.431L137.708 190.723" fill="#FEFEFE"/>
<path d="M154.004 203.053C152.6 203.053 151.45 202.203 150.796 201.095C149.195 198.383 146.191 193.515 145.691 192.705L137.641 191.025C137.599 191.017 137.56 191.001 137.524 190.978C137.489 190.955 137.459 190.926 137.436 190.891C137.413 190.857 137.397 190.819 137.389 190.778C137.381 190.738 137.382 190.697 137.391 190.656C137.4 190.616 137.417 190.578 137.441 190.545C137.465 190.511 137.496 190.482 137.532 190.46C137.568 190.438 137.608 190.423 137.649 190.416C137.691 190.409 137.734 190.41 137.775 190.42L145.962 192.127C146.048 192.145 146.123 192.197 146.169 192.271C146.203 192.326 149.607 197.832 151.352 200.788C152.075 202.012 153.63 203.062 155.632 201.987C157.238 201.126 158.346 199.135 157.24 197.14C157.026 196.755 156.73 196.208 156.379 195.557C155.041 193.081 152.801 188.937 151.313 186.78C150.393 185.447 147.343 184.264 142.493 183.36C138.435 182.603 133.905 182.194 131.018 182.063C130.976 182.061 130.935 182.051 130.897 182.034C130.859 182.016 130.825 181.992 130.797 181.962C130.768 181.932 130.746 181.896 130.732 181.858C130.718 181.82 130.712 181.779 130.713 181.739C130.722 181.568 130.873 181.438 131.048 181.444C131.228 181.452 148.995 182.304 151.845 186.436C153.352 188.62 155.602 192.783 156.946 195.27C157.296 195.918 157.591 196.463 157.804 196.847C158.56 198.21 158.358 199.417 158.056 200.19C157.676 201.16 156.906 202.013 155.943 202.53C155.263 202.894 154.609 203.053 154.004 203.053Z" fill="#4E2A09"/>
<path d="M135.995 186.871C140.034 187.478 146.761 188.286 148.661 191.739C150.253 194.634 149.589 202.964 149.476 205.098C149.271 208.962 142.532 209.581 142.543 205.019C142.551 201.337 142.35 196.889 142.35 196.889L135 194.925" fill="#FEFEFE"/>
<path d="M145.763 208.531C145.725 208.531 145.688 208.53 145.65 208.529C144.065 208.488 142.217 207.544 142.222 205.017C142.23 201.853 142.08 198.077 142.04 197.126L134.915 195.223C134.744 195.177 134.644 195.006 134.691 194.842C134.738 194.677 134.914 194.579 135.085 194.625L142.435 196.589C142.5 196.607 142.558 196.643 142.6 196.695C142.642 196.746 142.667 196.809 142.67 196.874C142.672 196.919 142.871 201.372 142.863 205.019C142.858 207.097 144.308 207.875 145.667 207.91C147.304 207.953 149.06 206.906 149.156 205.081C149.166 204.9 149.18 204.674 149.196 204.411C149.359 201.689 149.793 194.457 148.378 191.883C146.659 188.759 140.629 187.869 136.639 187.28C136.401 187.244 136.169 187.21 135.945 187.177C135.904 187.171 135.864 187.156 135.828 187.135C135.792 187.114 135.761 187.086 135.736 187.053C135.711 187.021 135.693 186.983 135.684 186.944C135.674 186.904 135.672 186.863 135.678 186.823C135.685 186.783 135.699 186.744 135.721 186.709C135.743 186.675 135.772 186.644 135.806 186.62C135.84 186.596 135.878 186.579 135.919 186.569C135.96 186.56 136.002 186.558 136.044 186.564C136.267 186.598 136.498 186.632 136.736 186.667C140.852 187.275 147.073 188.193 148.943 191.592C150.443 194.319 150.017 201.417 149.835 204.447C149.821 204.669 149.808 204.891 149.796 205.113C149.681 207.273 147.676 208.531 145.763 208.531Z" fill="#4E2A09"/>
<path d="M133.477 192.244C136.441 192.791 143.508 194.313 144.646 196.889C145.978 199.905 143.438 205.496 142.472 207.416C141.317 209.71 137.852 208.87 135.144 207.898C133.574 207.334 132.497 205.974 133.37 203.316C133.931 201.609 136.367 202.054 136.367 202.054L130.985 200.075" fill="#FEFEFE"/>
<path d="M139.574 209.192C137.824 209.192 135.915 208.507 135.033 208.19C133.83 207.758 131.976 206.539 133.065 203.223C133.342 202.379 134.032 201.967 134.754 201.793L130.871 200.366C130.792 200.337 130.728 200.278 130.693 200.203C130.658 200.129 130.656 200.043 130.686 199.966C130.716 199.89 130.776 199.827 130.854 199.794C130.931 199.76 131.019 199.757 131.099 199.787L136.481 201.765C136.556 201.793 136.618 201.846 136.654 201.916C136.69 201.985 136.698 202.065 136.676 202.139C136.654 202.214 136.605 202.278 136.536 202.319C136.468 202.36 136.387 202.374 136.308 202.359C136.303 202.359 135.732 202.259 135.113 202.354C134.351 202.473 133.867 202.829 133.675 203.411C132.978 205.536 133.524 206.987 135.256 207.609C139.11 208.993 141.377 208.886 142.184 207.282C143.022 205.618 145.653 199.958 144.351 197.012C143.604 195.32 139.619 193.694 133.417 192.55C133.334 192.535 133.26 192.488 133.212 192.42C133.165 192.352 133.147 192.268 133.163 192.187C133.179 192.107 133.227 192.035 133.297 191.989C133.367 191.943 133.454 191.926 133.537 191.941C137.307 192.636 143.8 194.188 144.94 196.769C145.542 198.132 145.471 200.11 144.729 202.649C144.127 204.708 143.237 206.606 142.76 207.553C142.133 208.799 140.899 209.192 139.574 209.192Z" fill="#4E2A09"/>
<path d="M130.479 198.105C132.679 198.558 140.219 200.825 140.98 202.724C141.746 204.635 139.178 212.42 138.004 212.982C136.374 213.762 130.382 211.711 129.151 211.333C126.5 210.518 127.471 206.855 128.256 206.545C129.944 206.735 131.596 207.148 133.22 207.747C131.208 207.011 129.053 206.405 126.596 206.441" fill="#FEFEFE"/>
<path d="M136.938 213.467C135.095 213.467 132.106 212.603 129.529 211.78C129.332 211.718 129.171 211.666 129.054 211.63C127.849 211.26 127.154 210.31 127.098 208.956C127.064 208.145 127.276 207.306 127.602 206.774C127.269 206.754 126.935 206.747 126.601 206.752C126.559 206.753 126.517 206.746 126.477 206.731C126.438 206.716 126.402 206.694 126.372 206.665C126.342 206.637 126.318 206.603 126.301 206.566C126.285 206.528 126.276 206.488 126.276 206.447C126.274 206.365 126.307 206.285 126.366 206.226C126.425 206.167 126.506 206.134 126.591 206.132C129.089 206.093 131.239 206.71 133.032 207.35C133.132 207.385 133.233 207.422 133.334 207.459C133.413 207.488 133.478 207.547 133.512 207.622C133.547 207.697 133.55 207.782 133.52 207.859C133.49 207.936 133.429 207.998 133.352 208.031C133.274 208.065 133.186 208.068 133.107 208.038C133.008 208.003 132.908 207.966 132.808 207.93C131.302 207.398 129.796 207.04 128.324 206.866C128.096 207.056 127.695 207.905 127.738 208.931C127.769 209.691 128.057 210.673 129.247 211.039C129.366 211.076 129.53 211.128 129.729 211.191C136.506 213.355 137.527 212.866 137.862 212.706C138.25 212.52 139.144 210.772 139.912 208.272C140.689 205.743 140.991 203.61 140.681 202.837C140.397 202.127 138.745 201.152 136.151 200.162C133.786 199.259 131.375 198.608 130.412 198.41C130.371 198.401 130.332 198.385 130.297 198.362C130.262 198.339 130.233 198.31 130.21 198.276C130.187 198.241 130.171 198.203 130.164 198.163C130.156 198.123 130.157 198.082 130.165 198.042C130.174 198.003 130.191 197.965 130.215 197.931C130.238 197.898 130.269 197.869 130.304 197.847C130.339 197.825 130.379 197.809 130.42 197.802C130.461 197.795 130.504 197.795 130.545 197.804C131.741 198.05 140.367 200.342 141.278 202.613C142.102 204.668 139.493 212.617 138.146 213.261C137.847 213.405 137.434 213.467 136.938 213.467Z" fill="#4E2A09"/>
<path d="M109.177 128.406C109.051 128.406 108.931 128.333 108.88 128.212L106.324 122.106C106.292 122.03 106.292 121.945 106.326 121.869C106.359 121.793 106.421 121.733 106.5 121.702C106.579 121.672 106.667 121.672 106.745 121.704C106.823 121.736 106.885 121.797 106.917 121.873L109.474 127.979C109.494 128.026 109.501 128.077 109.496 128.128C109.49 128.178 109.472 128.227 109.443 128.269C109.413 128.311 109.374 128.345 109.328 128.369C109.281 128.393 109.23 128.406 109.177 128.406ZM95.9865 129.676C95.9311 129.676 95.8766 129.662 95.8284 129.635C95.7803 129.609 95.7401 129.57 95.7117 129.524C95.6834 129.478 95.6679 129.426 95.6668 129.372C95.6657 129.318 95.679 129.265 95.7054 129.218L99.7028 122.081C99.7225 122.045 99.7494 122.012 99.782 121.986C99.8147 121.96 99.8525 121.94 99.8931 121.928C99.9338 121.916 99.9765 121.912 100.019 121.916C100.061 121.92 100.102 121.932 100.14 121.952C100.177 121.971 100.21 121.998 100.237 122.03C100.263 122.062 100.283 122.099 100.295 122.138C100.306 122.178 100.31 122.219 100.305 122.26C100.3 122.301 100.287 122.341 100.266 122.376L96.2683 129.513C96.2408 129.563 96.2001 129.604 96.1505 129.632C96.1009 129.661 96.0442 129.676 95.9865 129.676ZM54.5017 196.663C57.213 199.504 60.7957 200.585 67.5707 199.707C78.4458 198.298 95.8886 185.396 99.1081 185.395C101.968 185.394 103.756 186.638 103.756 186.638C104.897 186.191 106.126 185.8 107.534 185.395C106.72 193.919 109.285 201.894 113.938 209.527L110.381 210.926C110.381 210.926 111.091 212.819 109.065 215.156C107.228 217.275 73.7166 237.68 47.1021 224.986" fill="#FEFEFE"/>
<path d="M66.4532 229.415C60.0226 229.415 53.3188 228.298 46.9606 225.265C46.8849 225.229 46.8272 225.164 46.8002 225.087C46.7732 225.009 46.779 224.924 46.8164 224.851C46.8538 224.777 46.9198 224.721 46.9998 224.695C47.0799 224.668 47.1675 224.673 47.2436 224.709C61.0951 231.315 76.6587 228.694 87.276 225.332C99.2115 221.552 107.95 215.961 108.82 214.957C110.69 212.801 110.106 211.102 110.08 211.031C110.053 210.956 110.056 210.873 110.09 210.801C110.124 210.728 110.185 210.67 110.261 210.64L113.475 209.376C108.605 201.279 106.542 193.567 107.175 185.824C105.835 186.218 104.804 186.563 103.876 186.926C103.826 186.946 103.771 186.953 103.718 186.947C103.664 186.94 103.613 186.921 103.569 186.891C103.552 186.879 101.823 185.706 99.1111 185.706H99.1085C97.9647 185.706 94.5071 187.676 90.5034 189.958C83.7054 193.831 74.3951 199.136 67.6135 200.015C61.0719 200.863 57.2053 199.952 54.2668 196.874C54.2382 196.844 54.2161 196.809 54.2015 196.771C54.187 196.733 54.1803 196.692 54.182 196.651C54.1837 196.611 54.1936 196.571 54.2112 196.534C54.2288 196.497 54.2538 196.464 54.2846 196.436C54.3155 196.408 54.3517 196.387 54.3912 196.373C54.4306 196.359 54.4726 196.352 54.5146 196.354C54.5566 196.355 54.5979 196.365 54.636 196.382C54.6742 196.399 54.7086 196.423 54.7371 196.453C57.5152 199.364 61.2211 200.218 67.5285 199.4C74.1817 198.538 83.4275 193.27 90.1785 189.423C94.5974 186.905 97.7903 185.086 99.1084 185.086H99.1111C101.6 185.086 103.293 185.988 103.792 186.291C104.802 185.903 105.938 185.532 107.443 185.099C107.493 185.084 107.546 185.082 107.597 185.092C107.648 185.102 107.696 185.124 107.737 185.156C107.777 185.189 107.809 185.23 107.829 185.276C107.849 185.323 107.857 185.374 107.853 185.424C107.102 193.285 109.183 201.117 114.214 209.37C114.237 209.409 114.252 209.451 114.256 209.496C114.261 209.54 114.256 209.585 114.241 209.627C114.226 209.669 114.202 209.708 114.171 209.74C114.139 209.772 114.101 209.798 114.059 209.815L110.76 211.113C110.89 211.763 110.987 213.422 109.311 215.356C108.416 216.388 99.5305 222.103 87.4752 225.921C81.6024 227.781 74.2277 229.415 66.4532 229.415Z" fill="#4E2A09"/>
<path d="M103.756 186.638C101.838 196.2 106.49 208.303 110.381 210.927C113.105 209.906 116.04 208.662 118.909 207.897C115.018 205.274 111.042 193.321 112.959 183.76C109.538 184.591 106.51 185.648 103.756 186.638Z" fill="#FEFEFE"/>
<path d="M110.382 211.236C110.317 211.236 110.253 211.217 110.199 211.18C108.166 209.81 106.015 206.09 104.584 201.473C103.648 198.452 102.254 192.499 103.442 186.579C103.452 186.527 103.476 186.478 103.512 186.437C103.547 186.397 103.593 186.366 103.644 186.347C106.439 185.342 109.455 184.292 112.882 183.459C112.934 183.446 112.989 183.446 113.041 183.459C113.093 183.473 113.141 183.498 113.18 183.534C113.219 183.57 113.248 183.615 113.265 183.664C113.281 183.714 113.284 183.767 113.274 183.818C111.333 193.495 115.407 205.157 119.093 207.642C119.143 207.675 119.181 207.722 119.205 207.776C119.228 207.831 119.235 207.89 119.225 207.948C119.215 208.006 119.188 208.06 119.147 208.104C119.106 208.148 119.053 208.179 118.995 208.195C116.825 208.774 114.614 209.629 112.476 210.457C111.818 210.713 111.158 210.966 110.497 211.215C110.46 211.229 110.421 211.236 110.382 211.236ZM104.037 186.867C102.268 196.094 106.641 207.816 110.428 210.576C111.02 210.353 111.614 210.123 112.239 209.882C114.198 209.123 116.218 208.342 118.225 207.764C116.402 206.182 114.607 202.728 113.447 198.509C112.111 193.652 111.791 188.462 112.555 184.179C109.425 184.967 106.634 185.935 104.037 186.867Z" fill="#4E2A09"/>
</g>
<g clip-path="url(#clip3_2061_26933)">
<path d="M122.137 213.369H172.396V217.422H122.137V213.369Z" fill="#FEFEFE"/>
<path d="M172.396 217.748H122.137C122.051 217.748 121.969 217.714 121.908 217.652C121.847 217.591 121.813 217.508 121.813 217.421V213.368C121.813 213.281 121.847 213.198 121.908 213.137C121.969 213.075 122.051 213.041 122.137 213.041H172.396C172.482 213.041 172.564 213.075 172.625 213.137C172.686 213.198 172.72 213.281 172.72 213.368V217.421C172.72 217.508 172.686 217.591 172.625 217.652C172.564 217.714 172.482 217.748 172.396 217.748ZM122.461 217.094H172.072V213.696H122.461V217.094Z" fill="#4E2A09"/>
<path d="M172.396 213.369H200.689V217.422H172.396V213.369Z" fill="#FEFEFE"/>
<path d="M200.689 217.748H172.396C172.31 217.748 172.228 217.714 172.167 217.652C172.106 217.591 172.072 217.508 172.072 217.421V213.368C172.072 213.281 172.106 213.198 172.167 213.137C172.228 213.075 172.31 213.041 172.396 213.041H200.689C200.775 213.041 200.858 213.075 200.918 213.137C200.979 213.198 201.013 213.281 201.013 213.368V217.421C201.013 217.508 200.979 217.591 200.918 217.652C200.858 217.714 200.775 217.748 200.689 217.748ZM172.72 217.094H200.365V213.696H172.72V217.094Z" fill="#4E2A09"/>
<path d="M179.469 217.748C179.383 217.748 179.301 217.714 179.24 217.652C179.179 217.591 179.145 217.508 179.145 217.421C179.145 217.334 179.179 217.251 179.24 217.19C179.301 217.128 179.383 217.094 179.469 217.094C180.861 217.094 181.993 215.423 181.993 213.368C181.993 211.314 180.861 209.643 179.469 209.643C178.078 209.643 176.946 211.314 176.946 213.368C176.946 213.455 176.912 213.538 176.851 213.6C176.79 213.661 176.708 213.696 176.622 213.696C176.536 213.696 176.453 213.661 176.393 213.6C176.332 213.538 176.298 213.455 176.298 213.368C176.298 210.953 177.72 208.988 179.469 208.988C181.218 208.988 182.641 210.953 182.641 213.368C182.641 215.783 181.218 217.748 179.469 217.748ZM186.542 217.748C186.456 217.748 186.374 217.714 186.313 217.652C186.253 217.591 186.218 217.508 186.218 217.421C186.218 217.334 186.253 217.251 186.313 217.19C186.374 217.128 186.456 217.094 186.542 217.094C187.934 217.094 189.066 215.423 189.066 213.368C189.066 211.314 187.934 209.643 186.542 209.643C185.151 209.643 184.019 211.314 184.019 213.368C184.019 213.455 183.985 213.538 183.924 213.6C183.863 213.661 183.781 213.696 183.695 213.696C183.609 213.696 183.527 213.661 183.466 213.6C183.405 213.538 183.371 213.455 183.371 213.368C183.371 210.953 184.794 208.988 186.542 208.988C188.291 208.988 189.714 210.953 189.714 213.368C189.714 215.783 188.291 217.748 186.542 217.748ZM193.616 217.748C193.53 217.748 193.448 217.714 193.387 217.652C193.326 217.591 193.292 217.508 193.292 217.421C193.292 217.334 193.326 217.251 193.387 217.19C193.448 217.128 193.53 217.094 193.616 217.094C195.007 217.094 196.139 215.423 196.139 213.368C196.139 211.314 195.007 209.643 193.616 209.643C192.224 209.643 191.092 211.314 191.092 213.368C191.092 213.455 191.058 213.538 190.997 213.6C190.937 213.661 190.854 213.696 190.768 213.696C190.683 213.696 190.6 213.661 190.539 213.6C190.479 213.538 190.445 213.455 190.445 213.368C190.445 210.953 191.867 208.988 193.616 208.988C195.364 208.988 196.787 210.953 196.787 213.368C196.787 215.783 195.364 217.748 193.616 217.748Z" fill="#4E2A09"/>
</g>
<g clip-path="url(#clip4_2061_26933)">
<path d="M305.918 199.015H198.498L205.582 125.766H313.002L305.918 199.015Z" fill="#796959"/>
<path d="M305.918 199.358H198.498C198.448 199.358 198.4 199.348 198.355 199.329C198.31 199.31 198.269 199.281 198.236 199.246C198.203 199.211 198.177 199.169 198.162 199.124C198.146 199.079 198.141 199.031 198.145 198.983L205.229 125.733C205.237 125.648 205.278 125.569 205.343 125.511C205.409 125.454 205.494 125.422 205.582 125.422H313.002C313.052 125.422 313.1 125.432 313.146 125.451C313.191 125.47 313.231 125.499 313.264 125.534C313.297 125.569 313.323 125.611 313.338 125.656C313.354 125.702 313.36 125.75 313.355 125.797L306.271 199.047C306.263 199.132 306.222 199.211 306.157 199.269C306.092 199.326 306.006 199.358 305.918 199.358ZM198.887 198.672H305.596L312.613 126.109H205.904L198.887 198.672Z" fill="#796959"/>
<path d="M260.57 217.268H241.744L243.54 199.016H262.367L260.57 217.268Z" fill="#796959"/>
<path d="M260.57 217.611H241.744C241.694 217.611 241.646 217.601 241.601 217.582C241.555 217.562 241.515 217.534 241.482 217.499C241.449 217.463 241.423 217.421 241.408 217.376C241.392 217.331 241.387 217.283 241.391 217.235L243.188 198.983C243.196 198.898 243.237 198.819 243.302 198.761C243.367 198.704 243.452 198.672 243.54 198.672H262.367C262.416 198.672 262.465 198.682 262.51 198.701C262.555 198.721 262.596 198.749 262.629 198.784C262.662 198.82 262.687 198.861 262.703 198.907C262.718 198.952 262.724 199 262.719 199.048L260.923 217.3C260.914 217.385 260.874 217.464 260.809 217.522C260.743 217.579 260.658 217.611 260.57 217.611ZM242.133 216.924H260.248L261.977 199.359H243.862L242.133 216.924Z" fill="#796959"/>
<path d="M243.646 217.268H240.858L242.655 199.016H245.443L243.646 217.268Z" fill="#FEFEFE"/>
<path d="M243.646 217.611H240.858C240.809 217.611 240.76 217.601 240.715 217.582C240.67 217.562 240.63 217.534 240.596 217.499C240.563 217.463 240.538 217.421 240.522 217.376C240.507 217.331 240.501 217.283 240.506 217.235L242.302 198.983C242.31 198.898 242.351 198.819 242.416 198.761C242.482 198.704 242.567 198.672 242.655 198.672H245.443C245.492 198.672 245.541 198.682 245.586 198.701C245.631 198.721 245.671 198.749 245.705 198.784C245.738 198.82 245.763 198.861 245.779 198.907C245.794 198.952 245.8 199 245.795 199.048L243.999 217.3C243.991 217.385 243.95 217.464 243.885 217.522C243.819 217.579 243.734 217.611 243.646 217.611ZM241.248 216.924H243.324L245.053 199.359H242.977L241.248 216.924Z" fill="#796959"/>
<path d="M279.114 217.268H225.165L225.503 213.848H279.452L279.114 217.268Z" fill="#796959"/>
<path d="M279.114 217.611H225.165C225.116 217.611 225.067 217.601 225.022 217.581C224.977 217.562 224.936 217.534 224.903 217.498C224.87 217.463 224.845 217.421 224.829 217.376C224.813 217.33 224.808 217.282 224.812 217.235L225.15 213.815C225.159 213.73 225.199 213.651 225.265 213.593C225.33 213.536 225.415 213.504 225.503 213.504H279.452C279.502 213.504 279.551 213.514 279.596 213.533C279.641 213.553 279.681 213.581 279.714 213.616C279.748 213.652 279.773 213.694 279.788 213.739C279.804 213.784 279.81 213.832 279.805 213.88L279.467 217.3C279.459 217.385 279.418 217.464 279.353 217.522C279.287 217.579 279.203 217.611 279.114 217.611ZM225.555 216.924H278.792L279.063 214.191H225.825L225.555 216.924Z" fill="#796959"/>
<path d="M225.165 217.268H213.911L214.249 213.848H225.503L225.165 217.268Z" fill="#FEFEFE"/>
<path d="M225.165 217.611H213.911C213.861 217.611 213.813 217.601 213.768 217.581C213.722 217.562 213.682 217.534 213.649 217.498C213.616 217.463 213.59 217.421 213.575 217.376C213.559 217.33 213.554 217.282 213.558 217.235L213.896 213.815C213.905 213.73 213.945 213.651 214.011 213.593C214.076 213.536 214.161 213.504 214.249 213.504H225.503C225.552 213.504 225.601 213.514 225.646 213.533C225.692 213.553 225.732 213.581 225.765 213.616C225.798 213.652 225.824 213.694 225.839 213.739C225.855 213.784 225.86 213.832 225.856 213.88L225.518 217.3C225.509 217.385 225.469 217.464 225.403 217.522C225.338 217.579 225.253 217.611 225.165 217.611ZM214.301 216.924H224.843L225.113 214.191H214.571L214.301 216.924Z" fill="#796959"/>
<path d="M201.891 199.015H198.498L205.582 125.766H208.975L201.891 199.015Z" fill="#FEFEFE"/>
<path d="M201.891 199.358H198.498C198.448 199.358 198.4 199.348 198.355 199.329C198.31 199.31 198.269 199.281 198.236 199.246C198.203 199.211 198.177 199.169 198.162 199.124C198.146 199.079 198.141 199.031 198.145 198.983L205.229 125.733C205.237 125.648 205.278 125.569 205.343 125.511C205.409 125.454 205.494 125.422 205.582 125.422H208.975C209.024 125.422 209.073 125.432 209.118 125.451C209.163 125.47 209.204 125.499 209.237 125.534C209.27 125.569 209.295 125.611 209.311 125.656C209.326 125.702 209.332 125.75 209.328 125.797L202.243 199.047C202.235 199.132 202.195 199.211 202.129 199.269C202.064 199.326 201.979 199.358 201.891 199.358ZM198.887 198.672H201.568L208.586 126.109H205.904L198.887 198.672Z" fill="#796959"/>
<path d="M262.367 199.359H245.443C245.349 199.359 245.259 199.322 245.192 199.258C245.126 199.194 245.088 199.106 245.088 199.015C245.088 198.924 245.126 198.837 245.192 198.772C245.259 198.708 245.349 198.672 245.443 198.672H262.367C262.461 198.672 262.551 198.708 262.617 198.772C262.684 198.837 262.721 198.924 262.721 199.015C262.721 199.106 262.684 199.194 262.617 199.258C262.551 199.322 262.461 199.359 262.367 199.359ZM260.907 214.191H243.983C243.889 214.191 243.799 214.155 243.732 214.09C243.666 214.026 243.629 213.939 243.629 213.847C243.629 213.756 243.666 213.669 243.732 213.605C243.799 213.54 243.889 213.504 243.983 213.504H260.907C261.001 213.504 261.091 213.54 261.157 213.605C261.224 213.669 261.261 213.756 261.261 213.847C261.261 213.939 261.224 214.026 261.157 214.09C261.091 214.155 261.001 214.191 260.907 214.191Z" fill="#FEFEFE"/>
</g>
<g clip-path="url(#clip5_2061_26933)">
<path d="M141.103 172.831L146.022 171.383L157.219 207.548L152.3 208.996L141.103 172.831Z" fill="#796959"/>
<path d="M152.301 209.309C152.232 209.309 152.165 209.287 152.11 209.247C152.055 209.207 152.015 209.151 151.995 209.087L140.797 172.921C140.773 172.842 140.782 172.757 140.822 172.684C140.862 172.612 140.93 172.557 141.011 172.533L145.93 171.086C146.011 171.062 146.098 171.07 146.173 171.109C146.247 171.148 146.303 171.214 146.328 171.293L157.525 207.46C157.55 207.539 157.541 207.624 157.501 207.697C157.461 207.769 157.393 207.824 157.312 207.847L152.393 209.295C152.363 209.304 152.332 209.309 152.301 209.309ZM141.501 173.039L152.514 208.609L156.822 207.341L145.809 171.771L141.501 173.039Z" fill="#796959"/>
<path d="M152.301 208.999L156.22 212.989L157.22 207.551L152.301 208.999Z" fill="#FEFEFE"/>
<path d="M156.22 213.301C156.177 213.301 156.134 213.292 156.095 213.276C156.055 213.259 156.019 213.235 155.989 213.205L152.07 209.215C152.032 209.176 152.005 209.129 151.992 209.077C151.978 209.026 151.978 208.972 151.992 208.92C152.006 208.869 152.033 208.822 152.071 208.783C152.109 208.745 152.156 208.717 152.208 208.701L157.128 207.253C157.18 207.238 157.235 207.236 157.289 207.248C157.342 207.259 157.391 207.284 157.432 207.319C157.473 207.354 157.504 207.399 157.521 207.45C157.539 207.5 157.544 207.554 157.534 207.606L156.534 213.044C156.521 213.116 156.482 213.181 156.425 213.228C156.367 213.275 156.295 213.301 156.22 213.301ZM152.891 209.151L156.016 212.332L156.814 207.996L152.891 209.151Z" fill="#4E2A09"/>
<path d="M154.688 211.429L156.611 210.863L156.22 212.989L154.688 211.429Z" fill="#4E2A09"/>
<path d="M156.22 213.3C156.177 213.3 156.134 213.292 156.095 213.275C156.055 213.259 156.019 213.235 155.99 213.205L154.458 211.645C154.42 211.606 154.393 211.559 154.379 211.508C154.365 211.456 154.365 211.402 154.379 211.35C154.393 211.299 154.42 211.252 154.458 211.213C154.496 211.175 154.543 211.147 154.596 211.132L156.519 210.565C156.571 210.55 156.626 210.548 156.68 210.56C156.733 210.571 156.782 210.596 156.823 210.631C156.864 210.666 156.895 210.711 156.913 210.762C156.93 210.812 156.935 210.866 156.925 210.918L156.534 213.044C156.521 213.116 156.482 213.181 156.425 213.228C156.367 213.275 156.295 213.3 156.22 213.3ZM155.278 211.581L156.017 212.332L156.205 211.308L155.278 211.581ZM142.325 168.111C143.683 167.712 145.117 168.461 145.527 169.786L146.022 171.385L141.103 172.833L140.608 171.234C140.198 169.909 140.967 168.511 142.325 168.111Z" fill="#4E2A09"/>
<path d="M141.103 173.144C141.034 173.144 140.968 173.122 140.913 173.082C140.858 173.042 140.817 172.986 140.798 172.923L140.302 171.323C140.192 170.969 140.154 170.597 140.192 170.229C140.229 169.861 140.342 169.504 140.522 169.178C140.7 168.852 140.943 168.563 141.237 168.329C141.531 168.094 141.869 167.919 142.233 167.813C142.596 167.705 142.977 167.668 143.355 167.705C143.732 167.742 144.099 167.851 144.432 168.027C144.767 168.201 145.064 168.438 145.304 168.724C145.544 169.011 145.724 169.341 145.833 169.695L146.328 171.295C146.352 171.374 146.344 171.459 146.304 171.532C146.264 171.605 146.196 171.659 146.115 171.683L141.195 173.13C141.165 173.139 141.134 173.144 141.103 173.144ZM143.07 168.314C142.852 168.314 142.632 168.346 142.417 168.409C141.842 168.578 141.368 168.956 141.084 169.472C140.8 169.989 140.74 170.582 140.913 171.143L141.316 172.445L145.624 171.177L145.222 169.875C145.137 169.599 144.997 169.342 144.81 169.119C144.622 168.896 144.392 168.711 144.131 168.576C143.805 168.404 143.441 168.314 143.07 168.314Z" fill="#4E2A09"/>
</g>
<g clip-path="url(#clip6_2061_26933)">
<path d="M58.9468 202.377C66.0475 209.526 96.5396 187.979 107.588 185.396C98.3866 187.547 108.876 202.569 113.995 209.527C91.9937 218.124 65.3179 239.417 40.3508 220.919" fill="#FEFEFE"/>
<path d="M62.1259 228.558C54.0735 228.558 46.8309 226.112 40.1561 221.166C40.1227 221.141 40.0947 221.111 40.0736 221.075C40.0525 221.04 40.0388 221.001 40.0333 220.961C40.0278 220.921 40.0305 220.88 40.0413 220.84C40.0522 220.801 40.0709 220.764 40.0965 220.732C40.1221 220.699 40.154 220.672 40.1904 220.652C40.2268 220.632 40.267 220.618 40.3087 220.613C40.3504 220.608 40.3928 220.61 40.4334 220.621C40.4741 220.631 40.5122 220.649 40.5456 220.674C49.27 227.138 58.9872 229.257 70.2525 227.151C80.2005 225.292 89.9476 220.511 99.3739 215.889C104.303 213.471 108.967 211.184 113.499 209.388C108.411 202.443 102.049 192.822 103.963 187.867C104.139 187.411 104.382 187.005 104.692 186.65C100.952 188.083 96.0169 190.63 90.8619 193.291C78.0383 199.91 63.5034 207.413 58.7159 202.593C58.657 202.534 58.6249 202.454 58.6266 202.372C58.6283 202.29 58.6637 202.211 58.7249 202.155C58.7862 202.098 58.8683 202.067 58.9533 202.068C59.0382 202.07 59.119 202.104 59.1779 202.163C61.1401 204.139 65.2407 203.953 71.7139 201.596C77.4799 199.496 84.1294 196.064 90.5603 192.744C97.2725 189.28 103.612 186.008 107.513 185.096C107.595 185.077 107.681 185.091 107.753 185.134C107.825 185.177 107.876 185.246 107.896 185.325C107.916 185.404 107.902 185.488 107.859 185.558C107.815 185.628 107.745 185.678 107.663 185.698C106.052 186.075 105.037 186.855 104.563 188.084C102.514 193.389 111.352 205.401 114.256 209.348C114.284 209.386 114.302 209.43 114.31 209.476C114.318 209.523 114.316 209.57 114.302 209.615C114.288 209.66 114.265 209.701 114.232 209.736C114.2 209.771 114.16 209.798 114.115 209.815C109.49 211.622 104.717 213.963 99.6637 216.441C90.1981 221.083 80.4103 225.884 70.3741 227.759C67.5313 228.291 64.7838 228.558 62.1259 228.558Z" fill="#4E2A09"/>
<path d="M129.755 184.219C131.192 184.199 146.744 186.55 148.386 187.617C150.159 188.77 154.626 193.767 155.903 195.1C158.336 197.642 153.597 201.952 151.201 199.675C148.805 197.398 145.164 194.04 145.164 194.04L137.302 192.488C135.682 195.563 132.59 198.48 126.561 197.77" fill="#FEFEFE"/>
<path d="M152.815 200.627C152.114 200.627 151.485 200.379 150.977 199.895C148.787 197.815 145.516 194.792 145.01 194.325L137.474 192.838C135.267 196.85 131.483 198.661 126.523 198.076C126.481 198.071 126.441 198.059 126.404 198.039C126.367 198.019 126.335 197.992 126.309 197.96C126.257 197.895 126.233 197.813 126.243 197.731C126.254 197.65 126.297 197.575 126.364 197.525C126.431 197.474 126.516 197.451 126.6 197.461C131.427 198.029 134.93 196.308 137.016 192.347C137.048 192.286 137.1 192.238 137.163 192.208C137.226 192.179 137.297 192.17 137.366 192.184L145.228 193.735C145.287 193.747 145.342 193.774 145.385 193.815C145.422 193.848 149.055 197.201 151.425 199.453C152.192 200.182 153.681 200.343 155.137 198.973C156.606 197.594 156.462 196.139 155.668 195.31C155.42 195.051 155.064 194.668 154.614 194.182C152.864 192.295 149.606 188.783 148.207 187.874C146.672 186.875 131.307 184.528 129.778 184.528L129.755 184.528C129.67 184.529 129.588 184.496 129.527 184.439C129.467 184.381 129.433 184.302 129.432 184.22C129.432 184.138 129.465 184.059 129.524 184C129.584 183.942 129.665 183.909 129.75 183.908H129.767C131.233 183.908 146.778 186.198 148.564 187.359C150.029 188.311 153.198 191.727 155.091 193.768C155.522 194.233 155.894 194.634 156.138 194.889C157.526 196.338 156.824 198.253 155.584 199.418C154.923 200.039 154.126 200.453 153.341 200.583C153.168 200.612 152.992 200.627 152.815 200.627Z" fill="#4E2A09"/>
<path d="M107.588 185.398C117.092 182.188 126.929 180.342 137.166 182.683C144.052 184.257 148.315 190.935 146.688 197.597C145.306 203.256 140.118 207.084 134.367 207.144C133.325 207.155 132.286 207.042 131.273 206.81C126.419 205.7 120.344 207.18 113.995 209.529C108.875 202.571 106.757 194.521 107.588 185.398Z" fill="#FEFEFE"/>
<path d="M113.995 209.839C113.944 209.839 113.893 209.827 113.848 209.804C113.803 209.782 113.763 209.749 113.734 209.709C108.608 202.742 106.433 194.554 107.269 185.371C107.274 185.311 107.297 185.255 107.335 185.208C107.373 185.161 107.424 185.125 107.482 185.105C112.837 183.297 117.607 182.167 122.064 181.651C127.418 181.032 132.382 181.27 137.24 182.381C140.654 183.162 143.549 185.182 145.392 188.069C147.236 190.957 147.807 194.365 147 197.668C145.608 203.367 140.415 207.391 134.371 207.454C133.303 207.464 132.238 207.349 131.199 207.111C127.078 206.169 121.648 207.029 114.109 209.818C114.073 209.832 114.034 209.839 113.995 209.839ZM107.889 185.625C107.124 194.489 109.217 202.404 114.113 209.154C121.657 206.386 127.138 205.546 131.347 206.508C132.335 206.735 133.348 206.844 134.364 206.834C140.113 206.774 145.052 202.946 146.376 197.526C147.144 194.384 146.601 191.141 144.847 188.395C143.094 185.648 140.34 183.727 137.092 182.985C128.323 180.979 119.309 181.793 107.889 185.625Z" fill="#4E2A09"/>
<path d="M131.097 181.756C136.67 182.009 149.406 183.357 151.652 186.61C153.534 189.337 156.552 195.113 157.597 196.995C159.844 201.044 153.663 205.205 151.146 200.943C149.382 197.956 145.964 192.432 145.964 192.432L137.775 190.725" fill="#FEFEFE"/>
<path d="M154.077 203.054C152.673 203.054 151.522 202.203 150.868 201.096C149.266 198.384 146.261 193.516 145.761 192.706L137.707 191.027C137.625 191.009 137.554 190.96 137.509 190.891C137.463 190.823 137.448 190.739 137.466 190.66C137.483 190.58 137.533 190.51 137.603 190.466C137.674 190.421 137.759 190.405 137.842 190.421L146.032 192.129C146.075 192.138 146.115 192.155 146.151 192.18C146.186 192.205 146.217 192.236 146.239 192.273C146.273 192.328 149.679 197.833 151.424 200.789C152.147 202.013 153.703 203.062 155.707 201.988C157.312 201.127 158.422 199.136 157.314 197.141C157.101 196.756 156.804 196.208 156.452 195.557C155.114 193.081 152.873 188.938 151.385 186.782C150.465 185.448 147.414 184.266 142.562 183.361C138.502 182.605 133.97 182.196 131.082 182.065C131.04 182.063 130.999 182.053 130.961 182.036C130.923 182.018 130.889 181.994 130.86 181.964C130.832 181.934 130.81 181.898 130.796 181.86C130.782 181.822 130.775 181.781 130.777 181.741C130.786 181.57 130.941 181.439 131.112 181.446C131.291 181.454 149.066 182.306 151.918 186.437C153.425 188.621 155.675 192.783 157.02 195.269C157.371 195.918 157.666 196.464 157.879 196.848C158.635 198.211 158.433 199.418 158.131 200.191C157.751 201.161 156.98 202.014 156.017 202.53C155.336 202.895 154.683 203.054 154.077 203.054Z" fill="#4E2A09"/>
<path d="M136.06 186.875C140.102 187.482 146.832 188.29 148.732 191.742C150.325 194.637 149.661 202.968 149.548 205.101C149.343 208.965 142.601 209.584 142.611 205.022C142.62 201.34 142.418 196.892 142.418 196.892L135.065 194.928" fill="#FEFEFE"/>
<path d="M145.832 208.533C145.795 208.533 145.757 208.533 145.72 208.532C144.134 208.491 142.285 207.547 142.291 205.02C142.298 201.856 142.148 198.08 142.108 197.13L134.98 195.226C134.898 195.204 134.829 195.152 134.787 195.08C134.745 195.009 134.734 194.924 134.756 194.845C134.768 194.806 134.787 194.769 134.812 194.737C134.838 194.705 134.87 194.678 134.907 194.658C134.944 194.638 134.984 194.625 135.026 194.62C135.067 194.615 135.11 194.618 135.15 194.629L142.503 196.592C142.569 196.61 142.627 196.647 142.669 196.698C142.711 196.749 142.735 196.812 142.738 196.878C142.74 196.922 142.94 201.375 142.931 205.022C142.926 207.099 144.377 207.877 145.737 207.912C147.369 207.953 149.131 206.909 149.228 205.084C149.237 204.903 149.251 204.677 149.266 204.414C149.43 201.692 149.864 194.46 148.449 191.887C146.729 188.762 140.697 187.872 136.705 187.284C136.466 187.248 136.235 187.214 136.011 187.181C135.97 187.174 135.93 187.16 135.894 187.139C135.858 187.118 135.827 187.09 135.802 187.057C135.777 187.024 135.759 186.987 135.749 186.948C135.739 186.908 135.737 186.867 135.744 186.827C135.757 186.746 135.803 186.673 135.871 186.624C135.94 186.576 136.025 186.556 136.109 186.568C136.332 186.601 136.563 186.636 136.801 186.671C140.92 187.278 147.143 188.196 149.014 191.596C150.515 194.322 150.088 201.42 149.906 204.45C149.892 204.672 149.879 204.894 149.867 205.116C149.753 207.276 147.746 208.533 145.832 208.533Z" fill="#4E2A09"/>
<path d="M133.542 192.246C136.507 192.793 143.576 194.315 144.715 196.891C146.047 199.906 143.507 205.497 142.54 207.418C141.385 209.711 137.918 208.872 135.209 207.899C133.639 207.336 132.561 205.975 133.435 203.317C133.996 201.61 136.433 202.055 136.433 202.055L131.048 200.077" fill="#FEFEFE"/>
<path d="M139.641 209.192C137.89 209.192 135.981 208.507 135.098 208.19C133.895 207.758 132.04 206.539 133.129 203.224C133.407 202.379 134.097 201.967 134.82 201.794L130.935 200.367C130.855 200.338 130.791 200.279 130.756 200.204C130.722 200.129 130.719 200.044 130.749 199.967C130.779 199.89 130.84 199.828 130.917 199.794C130.995 199.761 131.083 199.758 131.162 199.787L136.547 201.766C136.622 201.793 136.683 201.847 136.719 201.916C136.756 201.985 136.763 202.065 136.742 202.14C136.72 202.214 136.67 202.278 136.602 202.319C136.534 202.36 136.453 202.374 136.374 202.36C136.369 202.359 135.797 202.259 135.179 202.355C134.415 202.473 133.931 202.829 133.74 203.412C133.042 205.536 133.589 206.987 135.321 207.609C139.177 208.993 141.445 208.886 142.252 207.282C143.09 205.618 145.723 199.96 144.42 197.013C143.672 195.321 139.686 193.694 133.482 192.551C133.399 192.535 133.327 192.487 133.28 192.42C133.233 192.352 133.216 192.269 133.232 192.189C133.247 192.109 133.295 192.039 133.364 191.992C133.433 191.946 133.519 191.928 133.602 191.942C137.372 192.637 143.869 194.189 145.009 196.77C145.612 198.133 145.54 200.111 144.798 202.65C144.195 204.709 143.305 206.606 142.828 207.554C142.201 208.799 140.967 209.192 139.641 209.192Z" fill="#4E2A09"/>
<path d="M130.542 198.107C132.743 198.56 140.286 200.827 141.048 202.726C141.814 204.636 139.245 212.422 138.071 212.983C136.44 213.763 130.446 211.713 129.214 211.334C126.561 210.52 127.534 206.857 128.319 206.546C130.007 206.736 131.66 207.149 133.285 207.749C131.271 207.013 129.116 206.407 126.658 206.442" fill="#FEFEFE"/>
<path d="M137.004 213.467C135.161 213.467 132.17 212.603 129.592 211.78C129.433 211.729 129.275 211.679 129.117 211.63C127.912 211.26 127.217 210.31 127.16 208.957C127.126 208.146 127.338 207.306 127.665 206.774C127.331 206.755 126.997 206.748 126.663 206.753C126.493 206.755 126.34 206.619 126.337 206.447C126.337 206.407 126.344 206.366 126.36 206.328C126.375 206.291 126.399 206.256 126.428 206.227C126.457 206.198 126.492 206.174 126.531 206.158C126.569 206.142 126.611 206.133 126.653 206.133C129.151 206.097 131.3 206.709 133.093 207.349C133.195 207.385 133.297 207.422 133.399 207.459C133.478 207.489 133.542 207.547 133.577 207.622C133.612 207.697 133.615 207.782 133.585 207.859C133.554 207.936 133.494 207.998 133.417 208.032C133.339 208.066 133.251 208.068 133.171 208.039C133.072 208.003 132.972 207.966 132.871 207.93C131.365 207.398 129.859 207.041 128.387 206.867C128.158 207.056 127.757 207.906 127.8 208.932C127.832 209.691 128.12 210.674 129.311 211.039C129.43 211.076 129.593 211.128 129.792 211.191C136.573 213.355 137.594 212.867 137.929 212.706C138.317 212.52 139.212 210.772 139.98 208.272C140.758 205.744 141.06 203.611 140.75 202.838C140.465 202.128 138.813 201.153 136.217 200.163C133.851 199.26 131.44 198.609 130.476 198.411C130.434 198.403 130.394 198.387 130.359 198.364C130.324 198.341 130.294 198.312 130.27 198.278C130.247 198.243 130.231 198.205 130.223 198.164C130.215 198.124 130.215 198.083 130.224 198.042C130.233 198.002 130.25 197.964 130.274 197.93C130.298 197.896 130.329 197.868 130.365 197.846C130.401 197.823 130.441 197.808 130.483 197.801C130.525 197.794 130.568 197.796 130.609 197.805C131.806 198.051 140.435 200.343 141.347 202.614C142.171 204.669 139.561 212.617 138.213 213.261C137.913 213.404 137.5 213.467 137.004 213.467Z" fill="#4E2A09"/>
<path d="M54.5338 196.666C57.2463 199.506 60.8304 200.587 67.6082 199.71C78.4877 198.3 95.9377 185.399 99.1586 185.398C102.02 185.398 103.808 186.642 103.808 186.642C104.95 186.195 106.179 185.804 107.588 185.398C106.774 193.922 109.339 201.896 113.994 209.529L110.436 210.929C110.436 210.929 111.146 212.821 109.12 215.158C107.282 217.277 73.7566 237.681 47.1311 224.988" fill="#FEFEFE"/>
<path d="M66.4904 229.415C60.0571 229.415 53.3505 228.298 46.9897 225.265C46.914 225.229 46.8563 225.165 46.8293 225.087C46.8022 225.01 46.8081 224.925 46.8455 224.851C46.8829 224.778 46.9489 224.722 47.029 224.695C47.109 224.668 47.1967 224.674 47.2729 224.71C61.1299 231.315 76.7 228.694 87.3216 225.332C99.2618 221.552 108.004 215.962 108.875 214.958C110.745 212.802 110.161 211.103 110.135 211.032C110.107 210.957 110.111 210.874 110.145 210.802C110.178 210.729 110.24 210.671 110.316 210.641L113.531 209.376C108.659 201.281 106.595 193.568 107.228 185.826C105.888 186.22 104.856 186.565 103.928 186.928C103.826 186.968 103.711 186.955 103.621 186.893C103.605 186.881 101.874 185.708 99.1609 185.708H99.1588C98.0147 185.708 94.5557 187.678 90.5503 189.959C83.7495 193.833 74.4354 199.137 67.651 200.016C61.1072 200.864 57.2384 199.954 54.2988 196.875C54.2696 196.846 54.2468 196.811 54.2317 196.772C54.2166 196.734 54.2095 196.693 54.2109 196.652C54.2123 196.611 54.2221 196.571 54.2397 196.533C54.2574 196.496 54.2825 196.462 54.3136 196.435C54.3448 196.407 54.3813 196.385 54.4212 196.371C54.461 196.357 54.5034 196.351 54.5457 196.353C54.5881 196.354 54.6297 196.364 54.668 196.382C54.7064 196.4 54.7407 196.424 54.7691 196.455C57.5485 199.365 61.2563 200.219 67.5658 199.402C74.2219 198.54 83.4714 193.272 90.2252 189.425C94.646 186.907 97.84 185.088 99.1586 185.088H99.1609C101.651 185.088 103.345 185.99 103.844 186.293C104.854 185.905 105.99 185.534 107.496 185.101C107.546 185.086 107.6 185.084 107.651 185.094C107.702 185.104 107.75 185.126 107.791 185.158C107.831 185.19 107.863 185.232 107.883 185.278C107.903 185.325 107.911 185.376 107.907 185.426C107.156 193.286 109.238 201.119 114.27 209.371C114.294 209.41 114.308 209.452 114.313 209.497C114.318 209.541 114.313 209.586 114.298 209.628C114.283 209.67 114.259 209.709 114.228 209.741C114.196 209.773 114.158 209.799 114.115 209.816L110.815 211.113C110.945 211.764 111.043 213.423 109.365 215.356C108.47 216.388 99.5808 222.103 87.5206 225.921C81.6457 227.781 74.268 229.415 66.4904 229.415Z" fill="#4E2A09"/>
<path d="M103.808 186.642C101.89 196.203 106.544 208.306 110.437 210.929C113.161 209.909 116.098 208.665 118.968 207.9C115.075 205.276 111.097 193.325 113.016 183.764C109.593 184.595 106.563 185.652 103.808 186.642Z" fill="#FEFEFE"/>
<path d="M110.436 211.239C110.372 211.239 110.308 211.22 110.253 211.183C108.22 209.813 106.068 206.093 104.636 201.476C103.699 198.455 102.306 192.503 103.494 186.583C103.504 186.53 103.528 186.482 103.564 186.441C103.599 186.401 103.645 186.37 103.697 186.351C106.492 185.346 109.508 184.296 112.937 183.462C112.99 183.45 113.044 183.45 113.097 183.463C113.149 183.476 113.197 183.502 113.236 183.538C113.275 183.574 113.304 183.619 113.32 183.668C113.337 183.718 113.34 183.771 113.33 183.822C111.389 193.499 115.463 205.16 119.151 207.645C119.201 207.678 119.24 207.725 119.263 207.779C119.287 207.834 119.294 207.893 119.284 207.951C119.274 208.009 119.246 208.063 119.205 208.107C119.165 208.151 119.112 208.182 119.053 208.198C116.884 208.776 114.673 209.631 112.535 210.458C111.88 210.712 111.203 210.974 110.552 211.217C110.515 211.231 110.476 211.239 110.436 211.239ZM104.089 186.871C102.32 196.098 106.694 207.819 110.483 210.579C111.076 210.355 111.671 210.125 112.297 209.883C114.256 209.125 116.276 208.344 118.283 207.767C116.459 206.185 114.664 202.731 113.503 198.512C112.167 193.656 111.847 188.466 112.61 184.183C109.478 184.971 106.687 185.939 104.089 186.871Z" fill="#4E2A09"/>
</g>
</g>
<defs>
<clipPath id="clip0_2061_26933">
<rect width="330" height="292" fill="white"/>
</clipPath>
<clipPath id="clip1_2061_26933">
<rect width="275.191" height="7.09143" fill="white" transform="translate(26.5435 217.053)"/>
</clipPath>
<clipPath id="clip2_2061_26933">
<rect width="148.93" height="167.413" fill="white" transform="translate(27.4043 62.0156)"/>
</clipPath>
<clipPath id="clip3_2061_26933">
<rect width="79.2" height="8.76" fill="white" transform="translate(121.813 208.988)"/>
</clipPath>
<clipPath id="clip4_2061_26933">
<rect width="115.213" height="92.1886" fill="white" transform="translate(198.144 125.422)"/>
</clipPath>
<clipPath id="clip5_2061_26933">
<rect width="17.3609" height="45.6076" fill="white" transform="translate(140.178 167.691)"/>
</clipPath>
<clipPath id="clip6_2061_26933">
<rect width="118.37" height="48.1105" fill="white" transform="translate(40.0305 181.318)"/>
</clipPath>
</defs>
</svg>
