<svg width="16" height="16" viewBox="0 0 16 16" fill="none" xmlns="http://www.w3.org/2000/svg">
<path id="Vector" d="M16.001 8.04902C16.001 3.60302 12.419 -0.000976562 8.00102 -0.000976562C3.58102 2.34375e-05 -0.000976562 3.60302 -0.000976562 8.05002C-0.000976562 12.067 2.92502 15.397 6.74902 16.001V10.376H4.71902V8.05002H6.75102V6.27502C6.75102 4.25802 7.94602 3.14402 9.77302 3.14402C10.649 3.14402 11.564 3.30102 11.564 3.30102V5.28102H10.555C9.56202 5.28102 9.25202 5.90202 9.25202 6.53902V8.04902H11.47L11.116 10.375H9.25102V16C13.075 15.396 16.001 12.066 16.001 8.04902Z" fill="#796959"/>
</svg>
