<svg width="16" height="12" viewBox="0 0 16 12" fill="none" xmlns="http://www.w3.org/2000/svg">
<path id="Vector" d="M8.05149 0.380493H8.14049C8.96249 0.383493 13.1275 0.413493 14.2505 0.715493C14.59 0.807662 14.8993 0.987316 15.1476 1.2365C15.396 1.48569 15.5745 1.79568 15.6655 2.13549C15.7665 2.51549 15.8375 3.01849 15.8855 3.53749L15.8955 3.64149L15.9175 3.90149L15.9255 4.00549C15.9905 4.91949 15.9985 5.77549 15.9995 5.96249V6.03749C15.9985 6.23149 15.9895 7.14549 15.9175 8.09749L15.9095 8.20249L15.9005 8.30649C15.8505 8.87849 15.7765 9.44649 15.6655 9.86449C15.5748 10.2044 15.3963 10.5146 15.148 10.7638C14.8996 11.013 14.5901 11.1926 14.2505 11.2845C13.0905 11.5965 8.68149 11.6185 8.07049 11.6195H7.92849C7.61949 11.6195 6.34149 11.6135 5.00149 11.5675L4.83149 11.5615L4.74449 11.5575L4.57349 11.5505L4.40249 11.5435C3.29249 11.4945 2.23549 11.4155 1.74849 11.2835C1.40898 11.1917 1.09955 11.0123 0.851213 10.7632C0.602872 10.5142 0.424335 10.2043 0.333488 9.86449C0.222488 9.44749 0.148488 8.87849 0.0984883 8.30649L0.0904883 8.20149L0.0824883 8.09749C0.0331359 7.41989 0.00578815 6.74087 0.000488281 6.06149L0.000488281 5.93849C0.00248828 5.72349 0.0104883 4.98049 0.0644883 4.16049L0.0714883 4.05749L0.0744883 4.00549L0.0824883 3.90149L0.104488 3.64149L0.114488 3.53749C0.162488 3.01849 0.233488 2.51449 0.334488 2.13549C0.425182 1.79554 0.603651 1.4854 0.852001 1.23618C1.10035 0.986947 1.40986 0.807386 1.74949 0.715493C2.23649 0.585493 3.29349 0.505493 4.40349 0.455493L4.57349 0.448493L4.74549 0.442493L4.83149 0.439493L5.00249 0.432493C5.9542 0.401868 6.90629 0.384866 7.85849 0.381493H8.05149V0.380493ZM6.40049 3.59049V8.40849L10.5575 6.00049L6.40049 3.59049Z" fill="#796959"/>
</svg>
