<svg enable-background="new 0 0 50 50" viewBox="0 0 50 50" xmlns="http://www.w3.org/2000/svg"><g stroke="#4c2a12" stroke-miterlimit="10"><path d="m19.56 29.23h.98v3.75h8.21v-3.02h.84v3.82h-18.94v-3.82h.84v3.02h8.07zm-6.88-17.4h7.23c.26-.56.33-.71.77-1.79.06-.21.07-.2.1-.33l.92.24-.82 1.89h14.27v8.16h-21.62v3.07h25.03v.8h-25.03v3.07h24.67c0 2.5.06 4.44.05 6.52 0 2.14-.32 2.86-1.1 3.45-.77.58-1.8.51-4.4.5-4.28-.03-3.53.01-8.12-.11 0-.65.02-.14 0-.76 1.76.03 6.06.03 8.16.04 1.88.01 3.25.06 3.79-.42.84-.74.73-1.8.72-2.72-.01-1.79.03-2.88-.06-5.66l-24.55-.03v-15.92zm.85.8v2.83h20.79v-2.83zm0 3.62v2.95h20.79v-2.95z" fill="#4b2912" stroke-width="2"/><circle cx="25" cy="24.57" fill="none" r="19.6" stroke-linecap="round" stroke-width="3"/></g></svg>