<svg width="37" height="37" viewBox="0 0 37 37" fill="none" xmlns="http://www.w3.org/2000/svg">
<g clip-path="url(#clip0_2169_39000)">
<rect width="36.67" height="36.67" rx="18.335" fill="#00C300"/>
<path d="M9.70996 31.8359H26.96C29.6525 31.8359 31.835 29.6534 31.835 26.9609V9.71094C31.835 7.01844 29.6525 4.83594 26.96 4.83594H9.70996C7.01746 4.83594 4.83496 7.01844 4.83496 9.71094V26.9609C4.83496 29.6534 7.01746 31.8359 9.70996 31.8359Z" fill="#00C300"/>
<path d="M27.9962 17.3137C27.9962 12.9149 23.5862 9.33594 18.166 9.33594C12.7457 9.33594 8.33496 12.9149 8.33496 17.3137C8.33496 21.2572 11.8322 24.5602 16.5565 25.1849C16.8767 25.2539 17.3125 25.3964 17.4227 25.6694C17.5217 25.9177 17.4872 26.3069 17.4542 26.5582C17.4542 26.5582 17.3395 27.2519 17.314 27.3997C17.2712 27.6479 17.1167 28.3717 18.1652 27.9299C19.2145 27.4882 23.8262 24.5962 25.8887 22.2217H25.888C27.3137 20.6602 27.9962 19.0739 27.9962 17.3137ZM14.3177 19.9312H12.3647C12.0805 19.9312 11.8495 19.7002 11.8495 19.4152V15.5084C11.8495 15.2242 12.0805 14.9932 12.3647 14.9932C12.649 14.9932 12.88 15.2242 12.88 15.5084V18.8992H14.3177C14.602 18.8992 14.833 19.1302 14.833 19.4144C14.833 19.6994 14.602 19.9312 14.3177 19.9312ZM16.3375 19.4152C16.3375 19.6994 16.1065 19.9312 15.8222 19.9312C15.538 19.9312 15.307 19.7002 15.307 19.4152V15.5084C15.307 15.2242 15.538 14.9932 15.8222 14.9932C16.1065 14.9932 16.3375 15.2242 16.3375 15.5084V19.4152ZM21.04 19.4152C21.04 19.6379 20.899 19.8344 20.6875 19.9042C20.6342 19.9222 20.5787 19.9312 20.524 19.9312C20.3627 19.9312 20.209 19.8539 20.1122 19.7249L18.1105 16.9987V19.4152C18.1105 19.6994 17.8795 19.9312 17.5945 19.9312C17.3102 19.9312 17.0785 19.7002 17.0785 19.4152V15.5084C17.0785 15.2864 17.2202 15.0899 17.431 15.0194C17.4842 15.0014 17.539 14.9932 17.5945 14.9932C17.755 14.9932 17.9095 15.0704 18.0062 15.1994L20.0087 17.9257V15.5084C20.0087 15.2242 20.2405 14.9932 20.5247 14.9932C20.809 14.9932 21.04 15.2242 21.04 15.5084V19.4152ZM24.2005 16.9462C24.4847 16.9462 24.7165 17.1772 24.7165 17.4622C24.7165 17.7464 24.4855 17.9774 24.2005 17.9774H22.7627V18.8999H24.2005C24.4847 18.8999 24.7165 19.1309 24.7165 19.4152C24.7165 19.6994 24.4847 19.9312 24.2005 19.9312H22.2475C21.964 19.9312 21.7322 19.7002 21.7322 19.4152V17.4629V17.4614V15.5107C21.7322 15.5099 21.7322 15.5099 21.7322 15.5092C21.7322 15.2249 21.9632 14.9939 22.2475 14.9939H24.2005C24.4847 14.9939 24.7165 15.2249 24.7165 15.5092C24.7165 15.7934 24.4855 16.0244 24.2005 16.0244H22.7627V16.9469L24.2005 16.9462Z" fill="white"/>
</g>
<defs>
<clipPath id="clip0_2169_39000">
<rect width="36.67" height="36.67" rx="18.335" fill="white"/>
</clipPath>
</defs>
</svg>
