<svg width="45" height="44" viewBox="0 0 45 44" fill="none" xmlns="http://www.w3.org/2000/svg">
<path d="M22.4998 3.66406C12.3743 3.66406 4.1665 11.8719 4.1665 21.9974C4.1665 32.1229 12.3743 40.3307 22.4998 40.3307C32.6253 40.3307 40.8332 32.1229 40.8332 21.9974C40.8332 11.8719 32.6253 3.66406 22.4998 3.66406Z" fill="url(#paint0_linear_2169_38990)"/>
<path d="M24.9814 26.8602H29.7261L30.4713 22.0404H24.9814V19.4059C24.9814 17.4039 25.6359 15.6283 27.5087 15.6283H30.5181V11.4226C29.9892 11.3511 28.8708 11.1953 26.7579 11.1953C22.3451 11.1953 19.7583 13.5255 19.7583 18.8348V22.0413H15.2217V26.8611H19.7573V40.1088C20.6557 40.2426 21.5659 40.3343 22.5 40.3343C23.3443 40.3343 24.1683 40.2573 24.9814 40.1473V26.8602Z" fill="white"/>
<defs>
<linearGradient id="paint0_linear_2169_38990" x1="9.66009" y1="9.15765" x2="37.7303" y2="37.2278" gradientUnits="userSpaceOnUse">
<stop stop-color="#2AA4F4"/>
<stop offset="1" stop-color="#007AD9"/>
</linearGradient>
</defs>
</svg>
