<svg width="44" height="44" viewBox="0 0 44 44" fill="none" xmlns="http://www.w3.org/2000/svg">
<path d="M21.9998 3.66406C17.1375 3.66406 12.4744 5.5956 9.03621 9.03377C5.59805 12.4719 3.6665 17.1351 3.6665 21.9974C3.6665 26.8597 5.59805 31.5229 9.03621 34.961C12.4744 38.3992 17.1375 40.3307 21.9998 40.3307C26.8621 40.3307 31.5253 38.3992 34.9635 34.961C38.4016 31.5229 40.3332 26.8597 40.3332 21.9974C40.3332 17.1351 38.4016 12.4719 34.9635 9.03377C31.5253 5.5956 26.8621 3.66406 21.9998 3.66406Z" fill="#03A9F4"/>
<path d="M33 15.6933C32.1915 16.0518 31.1676 16.3882 30.25 16.5C31.1832 15.9463 32.6636 14.7932 33 13.75C32.1283 14.2624 30.5516 14.8097 29.5231 15.0077C28.7018 14.1368 27.5303 13.75 26.2323 13.75C23.7389 13.75 22 15.8629 22 18.3333V20.1667C18.3333 20.1667 14.7583 17.3736 12.5336 14.6667C12.1422 15.3276 11.9222 16.1013 11.9222 16.9189C11.9222 18.5863 13.4539 20.2785 14.6667 21.0833C13.9269 21.0604 12.5263 20.4957 11.9167 20.1667C11.9167 20.1813 11.9167 20.1997 11.9167 20.2189C11.9167 22.3887 13.4393 23.8617 15.5027 24.2724C15.1259 24.376 14.6667 24.75 12.8993 24.75C13.4732 26.5237 16.3579 27.4615 18.3333 27.5C16.7878 28.6981 14.0323 29.3333 11.9167 29.3333C11.5509 29.3333 11.3529 29.3535 11 29.3122C12.9965 30.5772 15.785 31.1667 18.3333 31.1667C26.6356 31.1667 31.1667 24.8252 31.1667 18.9108C31.1667 18.7165 31.1602 18.0657 31.1502 17.875C32.0375 17.2498 32.3968 16.5953 33 15.6933Z" fill="white"/>
</svg>
